<svg width="40" height="40" viewBox="0 0 40 40" fill="none" xmlns="http://www.w3.org/2000/svg">
<g clip-path="url(#clip0_1648_1995)">
<path d="M24.2661 32.6292C23.0216 32.6292 21.7487 32.5265 20.4651 32.3166C19.9377 32.2304 19.5355 31.7983 19.4871 31.266L18.9726 25.6055C18.9246 25.0772 19.2375 24.5825 19.7354 24.3994L38.3914 17.5398C38.7509 17.4076 39.1524 17.4594 39.4665 17.6786C39.7807 17.8978 39.9679 18.2567 39.9679 18.6397C39.9679 22.9154 38.4294 26.4828 35.5185 28.9564C32.713 31.3402 28.6727 32.6292 24.2661 32.6292Z" fill="#F6EFEA"/>
<path d="M39.7995 17.9325C38.6623 15.8667 37.2985 14.186 35.7462 12.9369C34.2678 11.7474 32.6102 10.9399 30.8192 10.5368C26.6116 9.58976 21.7557 10.8989 17.1459 14.2232C15.9371 15.0948 14.2938 15.1798 12.8572 14.4446C11.4862 13.743 10.6678 12.478 10.6678 11.0607C10.6678 10.4696 10.2276 9.97106 9.64107 9.89777L5.8906 9.42896C5.5572 9.38732 5.22161 9.49084 4.96962 9.71329C4.71756 9.93574 4.57324 10.2557 4.57324 10.5919V15.3864C4.57324 17.7321 5.01775 19.9424 5.89443 21.9558C6.77118 23.9692 8.08634 25.8003 9.80344 27.3984C11.0039 28.5154 12.3038 29.3895 13.9576 30.1875V33.747C13.9576 34.3943 14.4823 34.9191 15.1296 34.9191H15.7983C19.6759 34.9191 22.8305 31.7645 22.8305 27.8869V26.5435C23.4942 26.6161 24.2415 26.6532 25.0363 26.6532C26.1354 26.6532 27.3241 26.5829 28.5014 26.44C30.9047 26.1485 34.2992 25.4412 36.8226 23.727C38.707 22.4469 39.8535 20.8369 39.9967 18.9192C40.0246 18.5471 39.8825 18.0831 39.7995 17.9325Z" fill="#1B60F5"/>
<path d="M39.7994 17.9322C38.6621 15.8664 37.2984 14.1857 35.7461 12.9366C34.2677 11.7471 32.61 10.9395 30.8191 10.5364C27.4734 9.78346 23.7178 10.4584 20.002 12.4372V33.5207C21.7178 32.2372 22.8304 30.1894 22.8304 27.8867V26.5432C23.494 26.6159 24.2414 26.6529 25.0362 26.6529C26.1353 26.6529 27.324 26.5826 28.5012 26.4398C30.9046 26.1483 34.2991 25.4409 36.8225 23.7268C38.7069 22.4467 39.8534 20.8367 39.9966 18.919C40.0245 18.5468 39.8824 18.0828 39.7994 17.9322Z" fill="#438BFF"/>
<path d="M32.2326 18.7959C31.5853 18.7959 31.0605 19.3207 31.0605 19.9679V19.9878C31.0605 20.635 31.5853 21.1598 32.2326 21.1598C32.8798 21.1598 33.4046 20.635 33.4046 19.9878V19.9679C33.4046 19.3206 32.8798 18.7959 32.2326 18.7959Z" fill="#3E322E"/>
<path d="M14.9977 5.08057H12.4777C10.5814 5.08057 8.83683 6.05632 7.8156 7.60393C6.7943 6.05632 5.04978 5.08057 3.15353 5.08057H0.63344C0.283552 5.08057 0 5.3642 0 5.71401V5.79847C0 8.8955 2.50751 11.415 5.58954 11.415H10.0417C13.1237 11.415 15.6312 8.8955 15.6312 5.79847V5.71401C15.6311 5.3642 15.3476 5.08057 14.9977 5.08057Z" fill="#1B60F5"/>
</g>
<defs>
<clipPath id="clip0_1648_1995">
<rect width="40" height="40" fill="white"/>
</clipPath>
</defs>
</svg>
