<svg width="16" height="16" viewBox="0 0 16 16" fill="none" xmlns="http://www.w3.org/2000/svg">
<path d="M14 2.75H2C1.66848 2.75 1.35054 2.8817 1.11612 3.11612C0.881696 3.35054 0.75 3.66848 0.75 4V5.5C0.749941 5.78816 0.849446 6.0675 1.03167 6.29073C1.2139 6.51395 1.46766 6.66737 1.75 6.725V12C1.75 12.3315 1.8817 12.6495 2.11612 12.8839C2.35054 13.1183 2.66848 13.25 3 13.25H13C13.3315 13.25 13.6495 13.1183 13.8839 12.8839C14.1183 12.6495 14.25 12.3315 14.25 12V6.725C14.5323 6.66737 14.7861 6.51395 14.9683 6.29073C15.1506 6.0675 15.2501 5.78816 15.25 5.5V4C15.25 3.66848 15.1183 3.35054 14.8839 3.11612C14.6495 2.8817 14.3315 2.75 14 2.75ZM2.25 4.25H13.75V5.25H2.25V4.25ZM3.25 11.75V6.75H12.75V11.75H3.25ZM10.25 8.5C10.25 8.69891 10.171 8.88968 10.0303 9.03033C9.88968 9.17098 9.69891 9.25 9.5 9.25H6.5C6.30109 9.25 6.11032 9.17098 5.96967 9.03033C5.82902 8.88968 5.75 8.69891 5.75 8.5C5.75 8.30109 5.82902 8.11032 5.96967 7.96967C6.11032 7.82902 6.30109 7.75 6.5 7.75H9.5C9.69891 7.75 9.88968 7.82902 10.0303 7.96967C10.171 8.11032 10.25 8.30109 10.25 8.5Z" fill="#FFBE4C"/>
</svg>
