<svg width="24" height="25" viewBox="0 0 24 25" fill="none" xmlns="http://www.w3.org/2000/svg">
<path d="M22.5005 5.75013V10.2501C22.5005 10.449 22.4215 10.6398 22.2808 10.7805C22.1402 10.9211 21.9494 11.0001 21.7505 11.0001H17.2505C17.0516 11.0001 16.8608 10.9211 16.7202 10.7805C16.5795 10.6398 16.5005 10.449 16.5005 10.2501C16.5005 10.0512 16.5795 9.86046 16.7202 9.7198C16.8608 9.57915 17.0516 9.50013 17.2505 9.50013H19.8192L17.3264 7.21638L17.303 7.19388C16.2606 6.15184 14.9342 5.44006 13.4896 5.14746C12.045 4.85485 10.5462 4.9944 9.1804 5.54866C7.81463 6.10293 6.64246 7.04734 5.81031 8.26391C4.97817 9.48048 4.52294 10.9153 4.50149 12.3891C4.48005 13.8629 4.89334 15.3103 5.68974 16.5506C6.48615 17.7908 7.63035 18.769 8.97941 19.3627C10.3285 19.9565 11.8226 20.1396 13.2751 19.8891C14.7276 19.6387 16.0741 18.9658 17.1464 17.9545C17.291 17.8178 17.484 17.744 17.6829 17.7496C17.8819 17.7551 18.0705 17.8395 18.2072 17.984C18.344 18.1286 18.4177 18.3216 18.4121 18.5205C18.4066 18.7195 18.3223 18.9081 18.1777 19.0448C16.5103 20.6261 14.2985 21.5053 12.0005 21.5001H11.8767C10.4028 21.4799 8.95628 21.098 7.66446 20.3879C6.37265 19.6777 5.27504 18.6612 4.46811 17.4275C3.66118 16.1938 3.16964 14.7808 3.03668 13.3127C2.90373 11.8446 3.13343 10.3663 3.7056 9.00772C4.27777 7.64916 5.17489 6.45194 6.31811 5.52128C7.46133 4.59063 8.81566 3.95504 10.262 3.67038C11.7084 3.38571 13.2026 3.46069 14.6132 3.88871C16.0239 4.31674 17.3077 5.08471 18.3521 6.12513L21.0005 8.54388V5.75013C21.0005 5.55122 21.0795 5.36046 21.2202 5.2198C21.3608 5.07915 21.5516 5.00013 21.7505 5.00013C21.9494 5.00013 22.1402 5.07915 22.2808 5.2198C22.4215 5.36046 22.5005 5.55122 22.5005 5.75013Z" fill="#438BFF"/>
</svg>
