<svg width="24" height="25" viewBox="0 0 24 25" fill="none" xmlns="http://www.w3.org/2000/svg">
<path d="M20.9996 12.4999C20.9996 12.6988 20.9206 12.8896 20.7799 13.0303C20.6393 13.1709 20.4485 13.2499 20.2496 13.2499H5.55993L11.0302 18.7193C11.0999 18.789 11.1552 18.8717 11.1929 18.9628C11.2306 19.0538 11.25 19.1514 11.25 19.2499C11.25 19.3485 11.2306 19.4461 11.1929 19.5371C11.1552 19.6281 11.0999 19.7109 11.0302 19.7806C10.9606 19.8502 10.8778 19.9055 10.7868 19.9432C10.6957 19.9809 10.5982 20.0003 10.4996 20.0003C10.4011 20.0003 10.3035 19.9809 10.2124 19.9432C10.1214 19.9055 10.0387 19.8502 9.96899 19.7806L3.21899 13.0306C3.14926 12.9609 3.09394 12.8782 3.05619 12.7871C3.01845 12.6961 2.99902 12.5985 2.99902 12.4999C2.99902 12.4014 3.01845 12.3038 3.05619 12.2127C3.09394 12.1217 3.14926 12.039 3.21899 11.9693L9.96899 5.2193C10.1097 5.07857 10.3006 4.99951 10.4996 4.99951C10.6986 4.99951 10.8895 5.07857 11.0302 5.2193C11.171 5.36003 11.25 5.55091 11.25 5.74993C11.25 5.94895 11.171 6.13982 11.0302 6.28055L5.55993 11.7499H20.2496C20.4485 11.7499 20.6393 11.8289 20.7799 11.9696C20.9206 12.1103 20.9996 12.301 20.9996 12.4999Z" fill="black"/>
</svg>
