<svg width="17" height="16" viewBox="0 0 17 16" fill="none" xmlns="http://www.w3.org/2000/svg">
<path d="M6 6.49986H3C2.86739 6.49986 2.74021 6.44719 2.64645 6.35342C2.55268 6.25965 2.5 6.13247 2.5 5.99986V2.99986C2.5 2.86726 2.55268 2.74008 2.64645 2.64631C2.74021 2.55254 2.86739 2.49986 3 2.49986C3.13261 2.49986 3.25979 2.55254 3.35355 2.64631C3.44732 2.74008 3.5 2.86726 3.5 2.99986V4.79299L4.41438 3.87861C5.52951 2.75787 7.044 2.12573 8.625 2.12111H8.65812C10.2257 2.11708 11.7317 2.73076 12.85 3.82924C12.9413 3.92265 12.9924 4.04809 12.9924 4.17872C12.9925 4.30934 12.9413 4.43479 12.85 4.52821C12.7587 4.62163 12.6345 4.67562 12.5039 4.67861C12.3733 4.68161 12.2467 4.63338 12.1512 4.54424C11.2191 3.62929 9.96427 3.11805 8.65812 3.12111H8.63C7.31261 3.12517 6.05067 3.65184 5.12125 4.58549L4.20688 5.49986H6C6.13261 5.49986 6.25979 5.55254 6.35355 5.64631C6.44732 5.74008 6.5 5.86726 6.5 5.99986C6.5 6.13247 6.44732 6.25965 6.35355 6.35342C6.25979 6.44719 6.13261 6.49986 6 6.49986ZM14 9.49986H11C10.8674 9.49986 10.7402 9.55254 10.6464 9.64631C10.5527 9.74008 10.5 9.86726 10.5 9.99986C10.5 10.1325 10.5527 10.2597 10.6464 10.3534C10.7402 10.4472 10.8674 10.4999 11 10.4999H12.7931L11.8787 11.4142C10.9495 12.3477 9.6878 12.8744 8.37063 12.8786H8.3425C7.03636 12.8817 5.78151 12.3704 4.84937 11.4555C4.8028 11.4078 4.74718 11.37 4.68578 11.3441C4.62437 11.3183 4.55842 11.305 4.49179 11.305C4.42517 11.305 4.35922 11.3183 4.29781 11.3442C4.23641 11.37 4.18079 11.4079 4.13423 11.4555C4.08766 11.5032 4.05109 11.5597 4.02665 11.6216C4.00222 11.6836 3.99042 11.7499 3.99195 11.8165C3.99348 11.8831 4.0083 11.9487 4.03555 12.0095C4.0628 12.0703 4.10192 12.125 4.15062 12.1705C5.26892 13.269 6.77495 13.8827 8.3425 13.8786H8.375C9.95579 13.8738 11.47 13.2417 12.585 12.1211L13.5 11.2067V12.9999C13.5 13.1325 13.5527 13.2597 13.6464 13.3534C13.7402 13.4472 13.8674 13.4999 14 13.4999C14.1326 13.4999 14.2598 13.4472 14.3536 13.3534C14.4473 13.2597 14.5 13.1325 14.5 12.9999V9.99986C14.5 9.86726 14.4473 9.74008 14.3536 9.64631C14.2598 9.55254 14.1326 9.49986 14 9.49986Z" fill="white"/>
</svg>
