<svg width="24" height="25" viewBox="0 0 24 25" fill="none" xmlns="http://www.w3.org/2000/svg">
<path d="M2.99941 12.5001C2.99941 12.3012 3.07843 12.1104 3.21908 11.9697C3.35973 11.8291 3.5505 11.7501 3.74941 11.7501L18.4391 11.7501L12.9688 6.2807C12.8991 6.21101 12.8438 6.12829 12.8061 6.03724C12.7684 5.9462 12.749 5.84862 12.749 5.75007C12.749 5.65152 12.7684 5.55394 12.8061 5.4629C12.8438 5.37185 12.8991 5.28913 12.9688 5.21945C13.0385 5.14976 13.1212 5.09449 13.2122 5.05678C13.3033 5.01906 13.4009 4.99965 13.4994 4.99965C13.598 4.99965 13.6955 5.01906 13.7866 5.05678C13.8776 5.09449 13.9604 5.14976 14.03 5.21945L20.78 11.9694C20.8498 12.0391 20.9051 12.1218 20.9428 12.2129C20.9806 12.3039 21 12.4015 21 12.5001C21 12.5986 20.9806 12.6962 20.9428 12.7873C20.9051 12.8783 20.8498 12.961 20.78 13.0307L14.03 19.7807C13.8893 19.9214 13.6984 20.0005 13.4994 20.0005C13.3004 20.0005 13.1095 19.9214 12.9688 19.7807C12.8281 19.64 12.749 19.4491 12.749 19.2501C12.749 19.051 12.8281 18.8602 12.9688 18.7194L18.4391 13.2501L3.74941 13.2501C3.5505 13.2501 3.35973 13.1711 3.21908 13.0304C3.07843 12.8897 2.99941 12.699 2.99941 12.5001Z" fill="white"/>
</svg>
