<svg width="18" height="18" viewBox="0 0 18 18" fill="none" xmlns="http://www.w3.org/2000/svg">
<path d="M12.3735 11.2523C11.9982 11.2521 11.6268 11.3273 11.2811 11.4733C10.9355 11.6193 10.6226 11.8332 10.3611 12.1023L7.11971 10.019C7.37468 9.36514 7.37468 8.63937 7.11971 7.98553L10.3611 5.90217C10.848 6.40091 11.5027 6.7011 12.1984 6.74454C12.894 6.78797 13.581 6.57156 14.1261 6.13726C14.6713 5.70296 15.0357 5.08171 15.1488 4.39396C15.262 3.70621 15.1157 3.00096 14.7384 2.41493C14.361 1.82891 13.7796 1.40387 13.1067 1.22221C12.4338 1.04055 11.7174 1.11522 11.0964 1.43174C10.4754 1.74827 9.9941 2.28409 9.74574 2.93533C9.49739 3.58657 9.49969 4.30683 9.75221 4.95647L6.5108 7.03983C6.12048 6.6391 5.61951 6.36388 5.07196 6.24934C4.5244 6.1348 3.95512 6.18615 3.4369 6.39682C2.91868 6.6075 2.47505 6.96793 2.16273 7.43203C1.85042 7.89614 1.68359 8.44284 1.68359 9.00225C1.68359 9.56166 1.85042 10.1084 2.16273 10.5725C2.47505 11.0366 2.91868 11.397 3.4369 11.6077C3.95512 11.8184 4.5244 11.8697 5.07196 11.7552C5.61951 11.6406 6.12048 11.3654 6.5108 10.9647L9.75221 13.048C9.53506 13.6081 9.50293 14.223 9.66052 14.8026C9.8181 15.3822 10.1571 15.8962 10.628 16.2692C11.0988 16.6422 11.6767 16.8547 12.277 16.8756C12.8773 16.8964 13.4685 16.7245 13.9641 16.385C14.4596 16.0455 14.8334 15.5563 15.0308 14.9889C15.2282 14.4216 15.2388 13.806 15.061 13.2322C14.8832 12.6585 14.5263 12.1567 14.0427 11.8004C13.5591 11.4441 12.9741 11.252 12.3735 11.2523ZM12.3735 2.25225C12.7072 2.25225 13.0335 2.35122 13.311 2.53665C13.5885 2.72207 13.8048 2.98562 13.9325 3.29397C14.0602 3.60232 14.0936 3.94162 14.0285 4.26897C13.9634 4.59631 13.8027 4.89699 13.5667 5.133C13.3307 5.369 13.03 5.52972 12.7027 5.59483C12.3753 5.65994 12.036 5.62652 11.7277 5.4988C11.4193 5.37108 11.1558 5.15479 10.9704 4.87728C10.7849 4.59977 10.686 4.27351 10.686 3.93975C10.686 3.4922 10.8638 3.06298 11.1802 2.74651C11.4967 2.43004 11.9259 2.25225 12.3735 2.25225ZM4.49846 10.6898C4.1647 10.6898 3.83844 10.5908 3.56094 10.4054C3.28343 10.2199 3.06714 9.95638 2.93941 9.64803C2.81169 9.33968 2.77827 9.00038 2.84339 8.67304C2.9085 8.34569 3.06922 8.04501 3.30522 7.80901C3.54122 7.57301 3.8419 7.41229 4.16925 7.34718C4.49659 7.28206 4.83589 7.31548 5.14424 7.44321C5.45259 7.57093 5.71614 7.78722 5.90156 8.06473C6.08699 8.34224 6.18596 8.6685 6.18596 9.00225C6.18596 9.44981 6.00817 9.87903 5.6917 10.1955C5.37524 10.512 4.94601 10.6898 4.49846 10.6898ZM12.3735 15.7523C12.0397 15.7523 11.7134 15.6533 11.4359 15.4679C11.1584 15.2824 10.9421 15.0189 10.8144 14.7105C10.6867 14.4022 10.6533 14.0629 10.7184 13.7355C10.7835 13.4082 10.9442 13.1075 11.1802 12.8715C11.4162 12.6355 11.7169 12.4748 12.0442 12.4097C12.3716 12.3446 12.7109 12.378 13.0192 12.5057C13.3276 12.6334 13.5911 12.8497 13.7766 13.1272C13.962 13.4047 14.061 13.731 14.061 14.0648C14.061 14.5123 13.8832 14.9415 13.5667 15.258C13.2502 15.5745 12.821 15.7523 12.3735 15.7523Z" fill="black"/>
</svg>
