<svg width="20" height="20" viewBox="0 0 20 20" fill="none" xmlns="http://www.w3.org/2000/svg">
<path d="M18.125 5.62578H12.5C12.0149 5.62578 11.5364 5.73874 11.1025 5.9557C10.6685 6.17266 10.2911 6.48767 10 6.87578C9.70892 6.48767 9.33147 6.17266 8.89754 5.9557C8.46362 5.73874 7.98514 5.62578 7.5 5.62578H1.875C1.70924 5.62578 1.55027 5.69163 1.43306 5.80884C1.31585 5.92605 1.25 6.08502 1.25 6.25078V15.6258C1.25 15.7915 1.31585 15.9505 1.43306 16.0677C1.55027 16.1849 1.70924 16.2508 1.875 16.2508H7.5C7.99728 16.2508 8.47419 16.4483 8.82583 16.8C9.17746 17.1516 9.375 17.6285 9.375 18.1258C9.375 18.2915 9.44085 18.4505 9.55806 18.5677C9.67527 18.6849 9.83424 18.7508 10 18.7508C10.1658 18.7508 10.3247 18.6849 10.4419 18.5677C10.5592 18.4505 10.625 18.2915 10.625 18.1258C10.625 17.6285 10.8225 17.1516 11.1742 16.8C11.5258 16.4483 12.0027 16.2508 12.5 16.2508H18.125C18.2908 16.2508 18.4497 16.1849 18.5669 16.0677C18.6842 15.9505 18.75 15.7915 18.75 15.6258V6.25078C18.75 6.08502 18.6842 5.92605 18.5669 5.80884C18.4497 5.69163 18.2908 5.62578 18.125 5.62578ZM7.5 15.0008H2.5V6.87578H7.5C7.99728 6.87578 8.47419 7.07333 8.82583 7.42496C9.17746 7.77659 9.375 8.2535 9.375 8.75078V15.6258C8.83458 15.2191 8.17633 14.9997 7.5 15.0008ZM17.5 15.0008H12.5C11.8237 14.9997 11.1654 15.2191 10.625 15.6258V8.75078C10.625 8.2535 10.8225 7.77659 11.1742 7.42496C11.5258 7.07333 12.0027 6.87578 12.5 6.87578H17.5V15.0008ZM7 3.375C7.3493 2.90926 7.80224 2.53125 8.32295 2.2709C8.84366 2.01054 9.41783 1.875 10 1.875C10.5822 1.875 11.1563 2.01054 11.6771 2.2709C12.1978 2.53125 12.6507 2.90926 13 3.375C13.0997 3.5075 13.1426 3.67417 13.1194 3.83834C13.0962 4.00251 13.0087 4.15073 12.8762 4.25039C12.7437 4.35005 12.577 4.393 12.4128 4.36978C12.2487 4.34655 12.1004 4.25907 12.0008 4.12656C11.7679 3.81578 11.4659 3.5635 11.1186 3.38974C10.7713 3.21599 10.3883 3.12552 10 3.12552C9.61167 3.12552 9.22867 3.21599 8.88138 3.38974C8.53409 3.5635 8.23206 3.81578 7.99922 4.12656C7.94987 4.19217 7.88808 4.24742 7.81738 4.28915C7.74668 4.33088 7.66846 4.35828 7.58717 4.36978C7.50588 4.38127 7.42312 4.37665 7.34363 4.35617C7.26412 4.33568 7.18944 4.29974 7.12383 4.25039C7.05822 4.20104 7.00297 4.13925 6.96124 4.06855C6.91951 3.99786 6.89211 3.91963 6.88061 3.83834C6.86912 3.75705 6.87374 3.6743 6.89423 3.5948C6.91471 3.5153 6.95065 3.44061 7 3.375Z" fill="black"/>
</svg>
