<svg width="20" height="20" viewBox="0 0 20 20" fill="none" xmlns="http://www.w3.org/2000/svg">
<path d="M16.25 1.875H5.625C4.96196 1.875 4.32607 2.13839 3.85723 2.60723C3.38839 3.07607 3.125 3.71196 3.125 4.375V17.5C3.125 17.6658 3.19085 17.8247 3.30806 17.9419C3.42527 18.0592 3.58424 18.125 3.75 18.125H15C15.1658 18.125 15.3247 18.0592 15.4419 17.9419C15.5592 17.8247 15.625 17.6658 15.625 17.5C15.625 17.3342 15.5592 17.1753 15.4419 17.0581C15.3247 16.9408 15.1658 16.875 15 16.875H4.375C4.375 16.5435 4.5067 16.2255 4.74112 15.9911C4.97554 15.7567 5.29348 15.625 5.625 15.625H16.25C16.4158 15.625 16.5747 15.5592 16.6919 15.4419C16.8092 15.3247 16.875 15.1658 16.875 15V2.5C16.875 2.33424 16.8092 2.17527 16.6919 2.05806C16.5747 1.94085 16.4158 1.875 16.25 1.875ZM9.375 3.125H13.125V8.75L11.6242 7.625C11.516 7.54386 11.3845 7.5 11.2492 7.5C11.114 7.5 10.9824 7.54386 10.8742 7.625L9.375 8.75V3.125ZM15.625 14.375H5.625C5.18605 14.3744 4.75477 14.49 4.375 14.7102V4.375C4.375 4.04348 4.5067 3.72554 4.74112 3.49112C4.97554 3.2567 5.29348 3.125 5.625 3.125H8.125V10C8.125 10.1161 8.15732 10.2298 8.21834 10.3286C8.27937 10.4273 8.36668 10.5071 8.47049 10.559C8.57431 10.6109 8.69053 10.6329 8.80613 10.6225C8.92173 10.6121 9.03214 10.5696 9.125 10.5L11.25 8.90625L13.3758 10.5C13.4838 10.581 13.615 10.6248 13.75 10.625C13.9158 10.625 14.0747 10.5592 14.1919 10.4419C14.3092 10.3247 14.375 10.1658 14.375 10V3.125H15.625V14.375Z" fill="#727272"/>
</svg>
