<svg width="20" height="21" viewBox="0 0 20 21" fill="none" xmlns="http://www.w3.org/2000/svg">
<path d="M16.6925 8.54166L10.4425 14.7917C10.3845 14.8498 10.3156 14.8959 10.2397 14.9273C10.1638 14.9588 10.0825 14.975 10.0003 14.975C9.91821 14.975 9.83688 14.9588 9.76101 14.9273C9.68514 14.8959 9.61621 14.8498 9.55816 14.7917L3.30816 8.54166C3.19088 8.42438 3.125 8.26532 3.125 8.09947C3.125 7.93362 3.19088 7.77456 3.30816 7.65728C3.42544 7.54001 3.5845 7.47412 3.75035 7.47412C3.9162 7.47412 4.07526 7.54001 4.19253 7.65728L10.0003 13.4659L15.8082 7.65728C15.8662 7.59921 15.9352 7.55315 16.011 7.52172C16.0869 7.4903 16.1682 7.47412 16.2503 7.47412C16.3325 7.47412 16.4138 7.4903 16.4897 7.52172C16.5655 7.55315 16.6345 7.59921 16.6925 7.65728C16.7506 7.71535 16.7967 7.78429 16.8281 7.86016C16.8595 7.93603 16.8757 8.01735 16.8757 8.09947C16.8757 8.18159 16.8595 8.26291 16.8281 8.33878C16.7967 8.41465 16.7506 8.48359 16.6925 8.54166Z" fill="#141414"/>
</svg>
