<svg width="33" height="33" viewBox="0 0 33 33" fill="none" xmlns="http://www.w3.org/2000/svg">
<path d="M10.9536 23.2262C10.7709 23.302 10.5698 23.3219 10.3758 23.2834C10.1818 23.2449 10.0035 23.1497 9.8636 23.0099L3.8636 17.0099C3.77062 16.9171 3.69686 16.8068 3.64654 16.6854C3.59621 16.564 3.57031 16.4339 3.57031 16.3024C3.57031 16.171 3.59621 16.0409 3.64654 15.9195C3.69686 15.7981 3.77062 15.6878 3.8636 15.5949L9.8636 9.59493C10.0035 9.45492 10.1817 9.35956 10.3758 9.32091C10.5699 9.28226 10.7711 9.30206 10.9539 9.37781C11.1367 9.45357 11.2929 9.58186 11.4028 9.74645C11.5127 9.91105 11.5713 10.1045 11.5711 10.3024V22.3024C11.5711 22.5002 11.5124 22.6935 11.4025 22.858C11.2925 23.0224 11.1363 23.1505 10.9536 23.2262ZM21.5711 10.3024V22.3024C21.5709 22.5003 21.6295 22.6938 21.7394 22.8584C21.8492 23.023 22.0055 23.1513 22.1883 23.2271C22.3711 23.3028 22.5723 23.3226 22.7664 23.284C22.9605 23.2453 23.1387 23.1499 23.2786 23.0099L29.2786 17.0099C29.3716 16.9171 29.4453 16.8068 29.4957 16.6854C29.546 16.564 29.5719 16.4339 29.5719 16.3024C29.5719 16.171 29.546 16.0409 29.4957 15.9195C29.4453 15.7981 29.3716 15.6878 29.2786 15.5949L23.2786 9.59493C23.1387 9.45492 22.9605 9.35956 22.7664 9.32091C22.5723 9.28226 22.3711 9.30206 22.1883 9.37781C22.0055 9.45357 21.8492 9.58186 21.7394 9.74645C21.6295 9.91105 21.5709 10.1045 21.5711 10.3024Z" fill="white"/>
</svg>
