<svg width="32" height="33" viewBox="0 0 32 33" fill="none" xmlns="http://www.w3.org/2000/svg">
<path d="M16 3.68457C13.4288 3.68457 10.9154 4.44701 8.77759 5.87547C6.63975 7.30392 4.97351 9.33425 3.98957 11.7097C3.00563 14.0851 2.74819 16.699 3.2498 19.2207C3.75141 21.7425 4.98953 24.0589 6.80762 25.877C8.6257 27.695 10.9421 28.9332 13.4638 29.4348C15.9856 29.9364 18.5995 29.6789 20.9749 28.695C23.3503 27.7111 25.3807 26.0448 26.8091 23.907C28.2376 21.7691 29 19.2557 29 16.6846C28.9964 13.2379 27.6256 9.93339 25.1884 7.4962C22.7512 5.05902 19.4467 3.68821 16 3.68457ZM21.7075 14.3921L14.7075 21.3921C14.6146 21.485 14.5043 21.5588 14.3829 21.6091C14.2615 21.6595 14.1314 21.6854 14 21.6854C13.8686 21.6854 13.7385 21.6595 13.6171 21.6091C13.4957 21.5588 13.3854 21.485 13.2925 21.3921L10.2925 18.3921C10.1049 18.2044 9.99945 17.9499 9.99945 17.6846C9.99945 17.4192 10.1049 17.1647 10.2925 16.9771C10.4801 16.7894 10.7346 16.684 11 16.684C11.2654 16.684 11.5199 16.7894 11.7075 16.9771L14 19.2708L20.2925 12.9771C20.3854 12.8842 20.4957 12.8105 20.6171 12.7602C20.7385 12.7099 20.8686 12.684 21 12.684C21.1314 12.684 21.2615 12.7099 21.3829 12.7602C21.5043 12.8105 21.6146 12.8842 21.7075 12.9771C21.8004 13.07 21.8741 13.1803 21.9244 13.3017C21.9747 13.4231 22.0006 13.5532 22.0006 13.6846C22.0006 13.816 21.9747 13.9461 21.9244 14.0675C21.8741 14.1889 21.8004 14.2992 21.7075 14.3921Z" fill="#40C4AA"/>
</svg>
