<svg width="17" height="17" viewBox="0 0 17 17" fill="none" xmlns="http://www.w3.org/2000/svg">
<path d="M14.688 5.35354L6.68801 13.3535C6.64158 13.4 6.58643 13.4369 6.52573 13.4621C6.46503 13.4872 6.39997 13.5002 6.33426 13.5002C6.26855 13.5002 6.20349 13.4872 6.14279 13.4621C6.08209 13.4369 6.02695 13.4 5.98051 13.3535L2.48051 9.85354C2.38669 9.75972 2.33398 9.63247 2.33398 9.49979C2.33398 9.36711 2.38669 9.23986 2.48051 9.14604C2.57433 9.05222 2.70158 8.99951 2.83426 8.99951C2.96694 8.99951 3.09419 9.05222 3.18801 9.14604L6.33426 12.2929L13.9805 4.64604C14.0743 4.55222 14.2016 4.49951 14.3343 4.49951C14.4669 4.49951 14.5942 4.55222 14.688 4.64604C14.7818 4.73986 14.8345 4.86711 14.8345 4.99979C14.8345 5.13247 14.7818 5.25972 14.688 5.35354Z" fill="white"/>
</svg>
