<svg width="17" height="17" viewBox="0 0 17 17" fill="none" xmlns="http://www.w3.org/2000/svg">
<path d="M14.854 5.35354L6.85403 13.3535C6.80759 13.4 6.75245 13.4369 6.69175 13.4621C6.63105 13.4872 6.56599 13.5002 6.50028 13.5002C6.43457 13.5002 6.36951 13.4872 6.30881 13.4621C6.24811 13.4369 6.19296 13.4 6.14653 13.3535L2.64653 9.85354C2.55271 9.75972 2.5 9.63247 2.5 9.49979C2.5 9.36711 2.55271 9.23986 2.64653 9.14604C2.74035 9.05222 2.8676 8.99951 3.00028 8.99951C3.13296 8.99951 3.26021 9.05222 3.35403 9.14604L6.50028 12.2929L14.1465 4.64604C14.2403 4.55222 14.3676 4.49951 14.5003 4.49951C14.633 4.49951 14.7602 4.55222 14.854 4.64604C14.9478 4.73986 15.0006 4.86711 15.0006 4.99979C15.0006 5.13247 14.9478 5.25972 14.854 5.35354Z" fill="#438BFF"/>
</svg>
