<svg width="20" height="20" viewBox="0 0 20 20" fill="none" xmlns="http://www.w3.org/2000/svg">
<path d="M18.1255 10.6766C17.9928 12.2203 17.4218 13.694 16.48 14.9243C15.5381 16.1546 14.2644 17.0903 12.8088 17.6213C11.3532 18.1523 9.77622 18.2565 8.2634 17.9217C6.75057 17.5869 5.36484 16.827 4.26922 15.7314C3.17361 14.6358 2.4137 13.25 2.07889 11.7372C1.74409 10.2244 1.84832 8.64739 2.37932 7.19179C2.91032 5.73619 3.846 4.46252 5.07628 3.52064C6.30656 2.57875 7.78025 2.00783 9.32398 1.87505C9.40606 1.86828 9.48866 1.87774 9.56708 1.90289C9.6455 1.92804 9.7182 1.9684 9.78103 2.02165C9.84385 2.07489 9.89557 2.14 9.93324 2.21323C9.9709 2.28647 9.99377 2.36641 10.0005 2.44849C10.0073 2.53056 9.99785 2.61317 9.9727 2.69159C9.94755 2.77001 9.90719 2.84271 9.85395 2.90553C9.8007 2.96835 9.7356 3.02008 9.66236 3.05774C9.58912 3.09541 9.50918 3.11828 9.42711 3.12505C8.12053 3.23731 6.8732 3.72041 5.83188 4.51752C4.79055 5.31463 3.99856 6.39257 3.54908 7.62452C3.0996 8.85647 3.01134 10.1912 3.29467 11.4716C3.57801 12.752 4.22116 13.9248 5.14845 14.8521C6.07574 15.7794 7.24859 16.4226 8.52901 16.7059C9.80942 16.9893 11.1441 16.901 12.3761 16.4515C13.608 16.002 14.686 15.21 15.4831 14.1687C16.2802 13.1274 16.7633 11.8801 16.8755 10.5735C16.8892 10.4077 16.9682 10.2542 17.0951 10.1466C17.2219 10.0391 17.3863 9.98637 17.5521 10C17.7179 10.0137 17.8714 10.0927 17.9789 10.2196C18.0865 10.3464 18.1392 10.5108 18.1255 10.6766ZM9.37554 5.62505V10C9.37554 10.1658 9.44139 10.3248 9.5586 10.442C9.67581 10.5592 9.83478 10.625 10.0005 10.625H14.3755C14.5413 10.625 14.7003 10.5592 14.8175 10.442C14.9347 10.3248 15.0005 10.1658 15.0005 10C15.0005 9.83429 14.9347 9.67532 14.8175 9.55811C14.7003 9.4409 14.5413 9.37505 14.3755 9.37505H10.6255V5.62505C10.6255 5.45929 10.5597 5.30032 10.4425 5.18311C10.3253 5.0659 10.1663 5.00005 10.0005 5.00005C9.83478 5.00005 9.67581 5.0659 9.5586 5.18311C9.44139 5.30032 9.37554 5.45929 9.37554 5.62505ZM12.5005 3.75005C12.686 3.75005 12.8672 3.69506 13.0214 3.59205C13.1756 3.48904 13.2957 3.34262 13.3667 3.17131C13.4376 3.00001 13.4562 2.81151 13.42 2.62965C13.3839 2.44779 13.2946 2.28075 13.1635 2.14964C13.0323 2.01852 12.8653 1.92924 12.6834 1.89306C12.5016 1.85689 12.3131 1.87545 12.1418 1.94641C11.9705 2.01737 11.8241 2.13753 11.721 2.2917C11.618 2.44587 11.563 2.62713 11.563 2.81255C11.563 3.06119 11.6618 3.29965 11.8376 3.47546C12.0134 3.65128 12.2519 3.75005 12.5005 3.75005ZM15.313 5.62505C15.4985 5.62505 15.6797 5.57007 15.8339 5.46705C15.9881 5.36404 16.1082 5.21762 16.1792 5.04631C16.2501 4.87501 16.2687 4.68651 16.2325 4.50465C16.1964 4.32279 16.1071 4.15575 15.976 4.02464C15.8448 3.89352 15.6778 3.80424 15.4959 3.76806C15.3141 3.73189 15.1256 3.75045 14.9543 3.82141C14.783 3.89237 14.6366 4.01253 14.5335 4.1667C14.4305 4.32087 14.3755 4.50213 14.3755 4.68755C14.3755 4.93619 14.4743 5.17465 14.6501 5.35046C14.8259 5.52628 15.0644 5.62505 15.313 5.62505ZM17.188 8.43755C17.3735 8.43755 17.5547 8.38256 17.7089 8.27955C17.8631 8.17654 17.9832 8.03012 18.0542 7.85881C18.1251 7.68751 18.1437 7.49901 18.1075 7.31715C18.0714 7.13529 17.9821 6.96825 17.851 6.83714C17.7198 6.70602 17.5528 6.61674 17.3709 6.58056C17.1891 6.54439 17.0006 6.56295 16.8293 6.63391C16.658 6.70487 16.5116 6.82503 16.4085 6.9792C16.3055 7.13337 16.2505 7.31463 16.2505 7.50005C16.2505 7.74869 16.3493 7.98715 16.5251 8.16296C16.7009 8.33878 16.9394 8.43755 17.188 8.43755Z" fill="black"/>
</svg>
