<svg width="24" height="24" viewBox="0 0 24 24" fill="none" xmlns="http://www.w3.org/2000/svg">
<path d="M10.451 4.93406C10.2749 4.75837 10.0573 4.62988 9.81842 4.56045C9.57952 4.49101 9.32697 4.48287 9.0841 4.53677C8.84122 4.59067 8.61583 4.70488 8.42872 4.86885C8.24162 5.03283 8.09883 5.24129 8.01354 5.475L3.0926 19.0106C3.01176 19.2338 2.98565 19.4732 3.01646 19.7086C3.04726 19.944 3.13409 20.1685 3.26965 20.3634C3.40521 20.5583 3.58554 20.7178 3.79551 20.8286C4.00548 20.9394 4.23896 20.9981 4.47635 21C4.65113 20.9988 4.82437 20.9671 4.98822 20.9062L18.5229 15.9844C18.7567 15.8992 18.9652 15.7565 19.1293 15.5694C19.2934 15.3824 19.4077 15.157 19.4617 14.9141C19.5157 14.6712 19.5076 14.4186 19.4383 14.1797C19.3689 13.9407 19.2405 13.7231 19.0648 13.5469L10.451 4.93406ZM6.10572 15.1059L7.90572 10.1569L13.842 16.0931L8.89197 17.8931L6.10572 15.1059ZM14.9988 6.75C15.0129 6.24297 15.1357 5.74488 15.3588 5.28937C15.8557 4.29656 16.7932 3.75 17.9988 3.75C18.627 3.75 19.0301 3.53531 19.2785 3.07406C19.4094 2.81601 19.4844 2.53333 19.4988 2.24437C19.4996 2.04546 19.5793 1.85499 19.7205 1.71487C19.8617 1.57474 20.0527 1.49644 20.2517 1.49719C20.4506 1.49793 20.641 1.57767 20.7812 1.71885C20.9213 1.86003 20.9996 2.05109 20.9988 2.25C20.9988 3.45563 20.2001 5.25 17.9988 5.25C17.3707 5.25 16.9676 5.46469 16.7192 5.92594C16.5883 6.18399 16.5133 6.46667 16.4988 6.75562C16.4985 6.85412 16.4787 6.95157 16.4407 7.04242C16.4026 7.13328 16.3471 7.21575 16.2772 7.28513C16.2073 7.35451 16.1244 7.40945 16.0333 7.4468C15.9421 7.48415 15.8445 7.50318 15.746 7.50281C15.6475 7.50244 15.5501 7.48268 15.4592 7.44465C15.3684 7.40661 15.2859 7.35106 15.2165 7.28115C15.1471 7.21125 15.0922 7.12836 15.0549 7.03723C15.0175 6.94609 14.9985 6.84849 14.9988 6.75ZM12.7488 3.75V1.5C12.7488 1.30109 12.8279 1.11032 12.9685 0.96967C13.1092 0.829018 13.2999 0.75 13.4988 0.75C13.6978 0.75 13.8885 0.829018 14.0292 0.96967C14.1698 1.11032 14.2488 1.30109 14.2488 1.5V3.75C14.2488 3.94891 14.1698 4.13968 14.0292 4.28033C13.8885 4.42098 13.6978 4.5 13.4988 4.5C13.2999 4.5 13.1092 4.42098 12.9685 4.28033C12.8279 4.13968 12.7488 3.94891 12.7488 3.75ZM22.2795 11.4694C22.3491 11.5391 22.4043 11.6218 22.442 11.7128C22.4796 11.8038 22.499 11.9014 22.4989 11.9999C22.4989 12.0984 22.4794 12.1959 22.4417 12.2869C22.404 12.3779 22.3487 12.4605 22.279 12.5302C22.2093 12.5998 22.1266 12.655 22.0356 12.6926C21.9446 12.7303 21.847 12.7497 21.7485 12.7496C21.65 12.7496 21.5525 12.7301 21.4615 12.6924C21.3705 12.6547 21.2878 12.5994 21.2182 12.5297L19.7182 11.0297C19.5775 10.889 19.4984 10.6981 19.4984 10.4991C19.4984 10.3 19.5775 10.1092 19.7182 9.96844C19.859 9.82771 20.0498 9.74865 20.2488 9.74865C20.4479 9.74865 20.6387 9.82771 20.7795 9.96844L22.2795 11.4694ZM22.736 7.46156L20.486 8.21156C20.2973 8.27447 20.0913 8.25983 19.9134 8.17087C19.7355 8.0819 19.6002 7.92591 19.5373 7.73719C19.4744 7.54847 19.489 7.34249 19.578 7.16457C19.6669 6.98664 19.8229 6.85134 20.0117 6.78844L22.2617 6.03844C22.4504 5.97553 22.6564 5.99017 22.8343 6.07913C23.0122 6.1681 23.1475 6.32409 23.2104 6.51281C23.2733 6.70153 23.2587 6.90751 23.1697 7.08543C23.0808 7.26336 22.9248 7.39866 22.736 7.46156Z" fill="#438BFF"/>
</svg>
