<svg width="64" height="64" viewBox="0 0 64 64" fill="none" xmlns="http://www.w3.org/2000/svg">
<rect x="0.5" y="0.5" width="63" height="63" rx="11.5" fill="#0C8092"/>
<rect x="0.5" y="0.5" width="63" height="63" rx="11.5" stroke="#EDEDED"/>
<path d="M45 24H42V22C42 21.7348 41.8946 21.4804 41.7071 21.2929C41.5196 21.1054 41.2652 21 41 21H23C22.7348 21 22.4804 21.1054 22.2929 21.2929C22.1054 21.4804 22 21.7348 22 22V24H19C18.4696 24 17.9609 24.2107 17.5858 24.5858C17.2107 24.9609 17 25.4696 17 26V28C17 29.3261 17.5268 30.5979 18.4645 31.5355C18.9288 31.9998 19.48 32.3681 20.0866 32.6194C20.6932 32.8707 21.3434 33 22 33H22.4563C23.0453 34.8668 24.1685 36.52 25.6869 37.7554C27.2053 38.9908 29.0524 39.7542 31 39.9513V43H28C27.7348 43 27.4804 43.1054 27.2929 43.2929C27.1054 43.4804 27 43.7348 27 44C27 44.2652 27.1054 44.5196 27.2929 44.7071C27.4804 44.8946 27.7348 45 28 45H36C36.2652 45 36.5196 44.8946 36.7071 44.7071C36.8946 44.5196 37 44.2652 37 44C37 43.7348 36.8946 43.4804 36.7071 43.2929C36.5196 43.1054 36.2652 43 36 43H33V39.9475C36.9925 39.5438 40.305 36.7425 41.51 33H42C43.3261 33 44.5979 32.4732 45.5355 31.5355C46.4732 30.5979 47 29.3261 47 28V26C47 25.4696 46.7893 24.9609 46.4142 24.5858C46.0391 24.2107 45.5304 24 45 24ZM22 31C21.2044 31 20.4413 30.6839 19.8787 30.1213C19.3161 29.5587 19 28.7956 19 28V26H22V30C22 30.3333 22.0163 30.6667 22.0487 31H22ZM40 29.8875C40 34.3275 36.375 37.9675 32 38C29.8783 38 27.8434 37.1571 26.3431 35.6569C24.8429 34.1566 24 32.1217 24 30V23H40V29.8875ZM45 28C45 28.7956 44.6839 29.5587 44.1213 30.1213C43.5587 30.6839 42.7956 31 42 31H41.9375C41.9785 30.6306 41.9994 30.2592 42 29.8875V26H45V28Z" fill="white"/>
</svg>
