<svg width="24" height="24" viewBox="0 0 24 24" fill="none" xmlns="http://www.w3.org/2000/svg">
<g clip-path="url(#clip0_1645_693)">
<path fill-rule="evenodd" clip-rule="evenodd" d="M12 3C14.4853 3 16.7353 4.00738 18.364 5.63607C19.9927 7.26476 21.0001 9.51479 21.0001 12C21.0001 14.4853 19.9927 16.7353 18.364 18.364C16.7353 19.9927 14.4853 21.0001 12 21.0001C9.5148 21.0001 7.26479 19.9927 5.63607 18.364C4.00738 16.7353 3 14.4853 3 12C3 9.5148 4.00738 7.26479 5.63607 5.63607C7.26476 4.00738 9.51479 3 12 3ZM11.625 12V5.62501V5.25001H12C13.8639 5.25001 15.5515 6.00556 16.773 7.22708C17.9945 8.44859 18.7501 10.1361 18.7501 12C18.7501 13.8639 17.9945 15.5515 16.773 16.773C15.5515 17.9945 13.864 18.7501 12.0001 18.7501H11.6265L11.6265 18.3751L11.625 12Z" fill="#424242"/>
</g>
<defs>
<clipPath id="clip0_1645_693">
<rect width="24" height="24" fill="white"/>
</clipPath>
</defs>
</svg>
