<svg width="20" height="21" viewBox="0 0 20 21" fill="none" xmlns="http://www.w3.org/2000/svg">
<path d="M17.5 11.6191V16.6191C17.5 16.7849 17.4342 16.9439 17.3169 17.0611C17.1997 17.1783 17.0408 17.2441 16.875 17.2441H3.125C2.95924 17.2441 2.80027 17.1783 2.68306 17.0611C2.56585 16.9439 2.5 16.7849 2.5 16.6191V11.6191C2.5 11.4534 2.56585 11.2944 2.68306 11.1772C2.80027 11.06 2.95924 10.9941 3.125 10.9941C3.29076 10.9941 3.44973 11.06 3.56694 11.1772C3.68415 11.2944 3.75 11.4534 3.75 11.6191V15.9941H16.25V11.6191C16.25 11.4534 16.3158 11.2944 16.4331 11.1772C16.5503 11.06 16.7092 10.9941 16.875 10.9941C17.0408 10.9941 17.1997 11.06 17.3169 11.1772C17.4342 11.2944 17.5 11.4534 17.5 11.6191ZM9.55781 12.0613C9.61586 12.1194 9.68479 12.1655 9.76066 12.197C9.83654 12.2284 9.91787 12.2446 10 12.2446C10.0821 12.2446 10.1635 12.2284 10.2393 12.197C10.3152 12.1655 10.3841 12.1194 10.4422 12.0613L13.5672 8.93633C13.6253 8.87826 13.6713 8.80932 13.7027 8.73345C13.7342 8.65758 13.7503 8.57626 13.7503 8.49414C13.7503 8.41202 13.7342 8.3307 13.7027 8.25483C13.6713 8.17896 13.6253 8.11002 13.5672 8.05195C13.5091 7.99388 13.4402 7.94782 13.3643 7.91639C13.2884 7.88497 13.2071 7.86879 13.125 7.86879C13.0429 7.86879 12.9616 7.88497 12.8857 7.91639C12.8098 7.94782 12.7409 7.99388 12.6828 8.05195L10.625 10.1105V2.86914C10.625 2.70338 10.5592 2.54441 10.4419 2.4272C10.3247 2.30999 10.1658 2.24414 10 2.24414C9.83424 2.24414 9.67527 2.30999 9.55806 2.4272C9.44085 2.54441 9.375 2.70338 9.375 2.86914V10.1105L7.31719 8.05195C7.19991 7.93468 7.04085 7.86879 6.875 7.86879C6.70915 7.86879 6.55009 7.93468 6.43281 8.05195C6.31554 8.16923 6.24965 8.32829 6.24965 8.49414C6.24965 8.65999 6.31554 8.81905 6.43281 8.93633L9.55781 12.0613Z" fill="white"/>
</svg>
