<svg xmlns="http://www.w3.org/2000/svg" width="290" height="55" viewBox="0 0 290 55" fill="none">
  <g filter="url(#filter0_i_1605_573)">
    <path d="M8.78466 2.44114C11.2036 1.38285 13.6226 0.8537 16.0415 0.8537C18.4983 0.815903 20.766 1.28835 22.8448 2.27105C24.9614 3.21595 26.7945 4.63331 28.3441 6.52311C29.8938 8.37512 31.0088 10.624 31.6891 13.2697C32.1426 14.9705 32.4072 16.8036 32.4828 18.769C32.5962 20.6966 32.5206 22.662 32.256 24.6652C32.0293 26.6684 31.5946 28.6527 30.9521 30.6181C30.3473 32.5457 29.5347 34.3599 28.5142 36.0608C27.4937 37.7238 26.2654 39.2167 24.8291 40.5396C23.4306 41.8247 21.8054 42.8263 19.9534 43.5444C18.2904 44.1869 16.5329 44.546 14.6809 44.6216C12.8666 44.6594 10.9579 44.357 8.95474 43.7145H8.78466C8.78466 43.9412 8.76576 44.1869 8.72797 44.4515C8.72797 44.6783 8.70907 44.9239 8.67127 45.1885L-0.00292969 44.9617C0.299439 41.9002 0.507317 38.6876 0.620706 35.3237C0.77189 31.9221 0.847482 28.596 0.847482 25.3456C0.847482 22.0573 0.790788 18.9391 0.6774 15.991C0.601808 13.0051 0.507317 10.3783 0.393929 8.11055C0.318337 5.84278 0.223847 4.04747 0.110459 2.72461C0.0348664 1.36395 -0.00292969 0.664719 -0.00292969 0.626923L8.61458 0.400146C8.61458 0.551331 8.63348 0.721414 8.67127 0.910394C8.67127 1.09937 8.67127 1.32615 8.67127 1.59072C8.70907 1.85529 8.74686 2.13877 8.78466 2.44114ZM9.3516 34.53C10.5233 35.1725 11.7328 35.6261 12.98 35.8907C14.2651 36.1552 15.5313 36.023 16.7785 35.4938C18.4416 34.8513 19.7833 33.7174 20.8038 32.0922C21.8621 30.4291 22.6369 28.596 23.1283 26.5928C23.6196 24.5896 23.8653 22.5676 23.8653 20.5266C23.9031 18.4856 23.733 16.7659 23.3551 15.3674C22.9015 13.6288 22.1267 12.287 21.0306 11.3421C19.9345 10.3972 18.7061 9.81137 17.3455 9.58459C15.9848 9.35782 14.5864 9.49011 13.1501 9.98145C11.7139 10.435 10.4099 11.2098 9.23821 12.3059C9.3894 15.443 9.48389 18.9391 9.52168 22.7943C9.55948 26.6117 9.50279 30.5236 9.3516 34.53Z" fill="url(#paint0_radial_1605_573)"/>
    <path d="M45.6832 11.5122L45.7399 14.0634C46.836 13.1185 48.0644 12.4193 49.425 11.9657C50.8235 11.4744 52.3542 11.3421 54.0173 11.5689C56.1716 11.8713 57.8725 12.6083 59.1197 13.78C60.4048 14.9138 61.3497 16.2745 61.9545 17.8619C62.597 19.4494 62.9749 21.1313 63.0883 22.9077C63.2017 24.6841 63.2017 26.3283 63.0883 27.8401C63.0127 29.3519 62.8805 30.5992 62.6915 31.5819C62.5025 32.5646 62.408 33.056 62.408 33.056L54.244 32.7158C54.244 32.7158 54.2818 32.4134 54.3574 31.8087C54.4708 31.204 54.5653 30.448 54.6409 29.5409C54.7543 28.6338 54.8299 27.6511 54.8677 26.5928C54.9055 25.5345 54.8677 24.5518 54.7543 23.6447C54.6787 22.6998 54.4897 21.9061 54.1874 21.2636C53.885 20.6211 53.4503 20.262 52.8834 20.1864C52.2031 20.073 51.5605 20.2242 50.9558 20.6399C50.3511 21.0557 49.803 21.6415 49.3117 22.3975C48.8203 23.1156 48.3668 23.9471 47.951 24.892C47.573 25.7991 47.2518 26.7251 46.9872 27.67C46.7226 28.6149 46.5147 29.522 46.3636 30.3913C46.2124 31.2607 46.1557 31.9788 46.1935 32.5457L46.4203 44.5082L37.8027 44.6783L37.0657 11.6823L45.6832 11.5122Z" fill="url(#paint1_radial_1605_573)"/>
    <path d="M78.6234 30.3346C77.6029 30.448 76.847 30.8638 76.3556 31.5819C75.9021 32.2622 75.6942 32.9804 75.732 33.7363C75.8076 34.4544 76.11 35.0781 76.6391 35.6072C77.1683 36.0985 77.9431 36.2497 78.9636 36.0608C79.6439 36.0985 80.3053 35.9663 80.9479 35.6639C81.6282 35.3615 82.1951 34.9647 82.6487 34.4733C83.1022 33.982 83.4046 33.4717 83.5558 32.9426C83.7448 32.3756 83.707 31.8654 83.4424 31.4118C83.1778 30.9583 82.6676 30.6181 81.9117 30.3913C81.1557 30.1646 80.0597 30.1457 78.6234 30.3346ZM69.0988 17.4651C69.8169 15.991 70.724 14.706 71.8201 13.6099C72.9162 12.476 74.1257 11.5689 75.4485 10.8886C76.7714 10.1704 78.1888 9.69798 79.7006 9.47121C81.2502 9.24443 82.8377 9.32002 84.4629 9.69798C86.1259 10.0759 87.6189 10.7185 88.9417 11.6256C90.2646 12.4949 91.3985 13.5532 92.3434 14.8005C93.2883 16.0477 94.0064 17.4462 94.4978 18.9958C95.0269 20.5455 95.3293 22.1518 95.4049 23.8148C95.4427 25.2889 95.4616 26.7818 95.4616 28.2937C95.4616 29.8055 95.4427 31.2984 95.4049 32.7725C95.3671 34.2465 95.3104 35.6828 95.2348 37.0812C95.1592 38.4419 95.1025 39.6892 95.0647 40.8231C94.9891 42.0325 94.9702 42.9774 95.008 43.6578C95.0458 44.3003 95.0647 44.7916 95.0647 45.1318L86.4472 45.4153C86.4094 44.9617 86.3716 44.4893 86.3338 43.9979C86.296 43.4688 86.3149 42.7318 86.3905 41.7869C85.3322 42.5428 84.2928 43.1664 83.2723 43.6578C82.2896 44.1113 81.3825 44.4137 80.551 44.5649C78.888 44.8672 77.3005 44.8861 75.7887 44.6216C74.3147 44.3192 72.9729 43.7712 71.7634 42.9774C70.5917 42.1459 69.609 41.0876 68.8153 39.8026C68.0216 38.5175 67.5114 37.0435 67.2846 35.3804C67.0578 33.7174 67.1523 32.1489 67.5681 30.6748C68.0216 29.163 68.7208 27.8212 69.6657 26.6495C70.6106 25.4778 71.7823 24.5329 73.1808 23.8148C74.5792 23.0589 76.1289 22.5864 77.8297 22.3975C79.7573 22.2085 81.4581 22.2652 82.9322 22.5676C84.4062 22.8321 85.6913 23.1912 86.7874 23.6447C86.674 22.3597 86.2582 21.2069 85.5401 20.1864C84.822 19.1281 83.8204 18.4478 82.5353 18.1454C81.2502 17.843 80.1164 18.032 79.1337 18.7123C78.1888 19.3549 77.4328 20.2242 76.8659 21.3203L69.0988 17.4651Z" fill="url(#paint2_radial_1605_573)"/>
    <path d="M137.47 13.0429C137.47 13.0807 137.602 13.6477 137.867 14.7438C138.169 15.8398 138.491 17.2572 138.831 18.9958C139.209 20.7344 139.53 22.6998 139.795 24.892C140.059 27.0464 140.173 29.2008 140.135 31.3551C140.097 33.5095 139.832 35.5505 139.341 37.4781C138.887 39.3679 138.094 40.9365 136.96 42.1837C135.977 43.242 134.881 44.0546 133.672 44.6216H133.615C132.292 45.1507 130.969 45.3208 129.646 45.1318C128.323 44.9806 127.02 44.5082 125.734 43.7145C124.827 43.1097 123.958 42.3538 123.127 41.4467C122.333 40.5018 121.558 39.4624 120.802 38.3285C120.386 37.7616 120.027 37.1568 119.725 36.5143C119.007 37.875 118.156 39.1978 117.174 40.4829C116.191 41.768 115.038 42.8451 113.715 43.7145C112.468 44.5082 111.183 44.9806 109.86 45.1318C108.575 45.3208 107.233 45.1507 105.835 44.6216C104.663 44.1302 103.567 43.3176 102.547 42.1837C101.413 40.9365 100.6 39.3679 100.109 37.4781C99.6174 35.5505 99.3528 33.5095 99.315 31.3551C99.2772 29.2008 99.3906 27.0464 99.6552 24.892C99.9575 22.6998 100.279 20.7344 100.619 18.9958C100.959 17.2572 101.28 15.8398 101.583 14.7438C101.885 13.6477 102.036 13.0807 102.036 13.0429L110.597 14.2335C110.181 15.8209 109.785 17.4462 109.407 19.1092C109.104 20.5455 108.783 22.0951 108.443 23.7581C108.14 25.4212 107.914 27.0086 107.762 28.5204C107.573 30.5992 107.517 32.2245 107.592 33.3961C107.706 34.5678 107.895 35.3804 108.159 35.834C108.462 36.2497 108.821 36.3631 109.236 36.1741C109.69 35.9474 110.162 35.5127 110.654 34.8702C111.183 34.1898 111.693 33.3394 112.185 32.3189C112.714 31.2984 113.224 30.1835 113.715 28.974C114.093 27.9913 114.433 26.9897 114.736 25.9692C115.038 24.9487 115.284 23.8904 115.473 22.7943H123.977C124.355 24.9109 124.922 26.8952 125.678 28.7472C126.434 30.7882 127.227 32.489 128.059 33.8497C128.928 35.2103 129.684 35.9852 130.327 36.1741C131.007 36.3253 131.479 35.7584 131.744 34.4733C132.046 33.1883 132.009 30.9016 131.631 27.6133C131.479 26.1393 131.253 24.6463 130.95 23.1345C130.648 21.5849 130.346 20.1864 130.043 18.9391C129.779 17.6541 129.533 16.5958 129.306 15.7643C129.079 14.9327 128.966 14.517 128.966 14.517L137.47 13.0429Z" fill="url(#paint3_radial_1605_573)"/>
    <path d="M157.375 4.48212C157.375 4.89788 157.356 5.52152 157.318 6.35303C157.28 7.14675 157.223 8.09165 157.148 9.18774C157.072 10.3594 157.016 11.6445 156.978 13.0429C156.94 14.4414 156.902 15.8965 156.864 17.4084H166.672V26.0259H156.921C156.997 27.4999 157.11 28.9173 157.261 30.278C157.412 31.6386 157.601 32.8859 157.828 34.0198C158.131 35.4182 158.49 36.4387 158.905 37.0812C159.359 37.7238 159.812 38.0261 160.266 37.9883C160.72 37.9506 161.135 37.5915 161.513 36.9112C161.929 36.2308 162.25 35.2292 162.477 33.9064C162.553 33.415 162.609 32.9426 162.647 32.489C162.685 31.9977 162.723 31.5252 162.761 31.0717L171.435 31.3551C171.397 31.9977 171.34 32.678 171.265 33.3961C171.227 34.0765 171.132 34.7568 170.981 35.4371C170.528 37.7805 169.753 39.7648 168.657 41.39C167.598 43.0152 166.37 44.2625 164.972 45.1318C163.573 46.0389 162.08 46.5492 160.493 46.6626C158.905 46.7759 157.375 46.4547 155.901 45.6988C154.464 44.9428 153.16 43.7712 151.989 42.1837C150.817 40.5585 149.948 38.4608 149.381 35.8907C149.078 34.4544 148.833 32.9048 148.644 31.2418C148.455 29.5787 148.322 27.8401 148.247 26.0259H144.845V17.4084H148.19C148.228 15.8209 148.266 14.3091 148.304 12.8729C148.341 11.3988 148.398 10.057 148.474 8.84757C148.587 6.99556 148.644 5.48372 148.644 4.31204L157.375 4.48212Z" fill="url(#paint4_radial_1605_573)"/>
    <path d="M216.957 54.5997C216.957 54.5997 216.863 53.8816 216.674 52.4454C216.485 51.0091 216.277 49.1004 216.05 46.7192C215.823 44.3759 215.597 41.6924 215.37 38.6687C215.181 35.6072 215.068 32.4701 215.03 29.2575C215.03 26.007 215.124 22.7754 215.313 19.5628C215.502 16.3501 215.88 13.402 216.447 10.7185L225.008 11.5122C224.97 11.6634 224.913 11.9657 224.838 12.4193C224.8 12.8729 224.762 13.1752 224.724 13.3264C226.085 12.3059 227.597 11.5311 229.26 11.0019C230.923 10.4728 232.567 10.2649 234.192 10.3783C235.855 10.4917 237.405 10.9642 238.841 11.7957C240.315 12.6272 241.525 13.8556 242.47 15.4808C242.999 16.4257 243.377 17.4462 243.604 18.5423C243.868 19.6006 244.019 20.6966 244.057 21.8305C244.095 22.9266 244.038 24.0227 243.887 25.1188C243.736 26.2149 243.528 27.2732 243.263 28.2937C242.734 30.2213 241.846 32.0922 240.599 33.9064C239.352 35.7206 237.877 37.3269 236.177 38.7254C234.476 40.086 232.605 41.1632 230.564 41.9569C228.523 42.7129 226.463 42.9963 224.384 42.8074C224.498 44.4704 224.63 45.9822 224.781 47.3429C224.932 48.7413 225.065 49.9319 225.178 50.9146C225.329 52.0863 225.461 53.1446 225.575 54.0895L216.957 54.5997ZM230.564 32.1489C231.584 31.3551 232.473 30.4291 233.229 29.3708C234.022 28.3126 234.57 27.2165 234.873 26.0826C235.364 24.1928 235.496 22.6431 235.27 21.4337C235.081 20.2242 234.627 19.4116 233.909 18.9958C233.229 18.5801 232.34 18.6179 231.244 19.1092C230.186 19.6006 229.071 20.6022 227.899 22.114C227.257 22.9455 226.671 23.8337 226.142 24.7786C225.65 25.6857 225.235 26.5739 224.895 27.4432C224.214 29.1063 223.836 30.5047 223.761 31.6386C223.723 32.7725 223.95 33.5662 224.441 34.0198C224.932 34.4733 225.688 34.5678 226.709 34.3032C227.729 34.0387 229.014 33.3205 230.564 32.1489Z" fill="url(#paint5_radial_1605_573)"/>
    <path d="M257.834 20.9801L257.097 45.1318L248.48 44.905L249.217 20.7533L257.834 20.9801ZM253.696 17.5785C252.259 17.5785 251.05 17.0871 250.067 16.1044C249.084 15.0839 248.593 13.8556 248.593 12.4193C248.593 10.9831 249.084 9.77358 250.067 8.79088C251.05 7.77038 252.259 7.26014 253.696 7.26014C255.132 7.26014 256.341 7.77038 257.324 8.79088C258.344 9.77358 258.855 10.9831 258.855 12.4193C258.855 13.8556 258.344 15.0839 257.324 16.1044C256.341 17.0871 255.132 17.5785 253.696 17.5785Z" fill="url(#paint6_radial_1605_573)"/>
    <path d="M273.159 30.3346C272.138 30.448 271.383 30.8638 270.891 31.5819C270.438 32.2622 270.23 32.9804 270.268 33.7363C270.343 34.4544 270.645 35.0781 271.175 35.6072C271.704 36.0985 272.479 36.2497 273.499 36.0608C274.179 36.0985 274.841 35.9663 275.483 35.6639C276.164 35.3615 276.731 34.9647 277.184 34.4733C277.638 33.982 277.94 33.4717 278.091 32.9426C278.28 32.3756 278.242 31.8654 277.978 31.4118C277.713 30.9583 277.203 30.6181 276.447 30.3913C275.691 30.1646 274.595 30.1457 273.159 30.3346ZM263.634 17.4651C264.352 15.991 265.26 14.706 266.356 13.6099C267.452 12.476 268.661 11.5689 269.984 10.8886C271.307 10.1704 272.724 9.69798 274.236 9.47121C275.786 9.24443 277.373 9.32002 278.998 9.69798C280.661 10.0759 282.154 10.7185 283.477 11.6256C284.8 12.4949 285.934 13.5532 286.879 14.8005C287.824 16.0477 288.542 17.4462 289.033 18.9958C289.562 20.5455 289.865 22.1518 289.94 23.8148C289.978 25.2889 289.997 26.7818 289.997 28.2937C289.997 29.8055 289.978 31.2984 289.94 32.7725C289.903 34.2465 289.846 35.6828 289.77 37.0812C289.695 38.4419 289.638 39.6892 289.6 40.8231C289.525 42.0325 289.506 42.9774 289.544 43.6578C289.581 44.3003 289.6 44.7916 289.6 45.1318L280.983 45.4153C280.945 44.9617 280.907 44.4893 280.869 43.9979C280.832 43.4688 280.85 42.7318 280.926 41.7869C279.868 42.5428 278.828 43.1664 277.808 43.6578C276.825 44.1113 275.918 44.4137 275.087 44.5649C273.423 44.8672 271.836 44.8861 270.324 44.6216C268.85 44.3192 267.508 43.7712 266.299 42.9774C265.127 42.1459 264.145 41.0876 263.351 39.8026C262.557 38.5175 262.047 37.0435 261.82 35.3804C261.593 33.7174 261.688 32.1489 262.104 30.6748C262.557 29.163 263.256 27.8212 264.201 26.6495C265.146 25.4778 266.318 24.5329 267.716 23.8148C269.115 23.0589 270.664 22.5864 272.365 22.3975C274.293 22.2085 275.994 22.2652 277.468 22.5676C278.942 22.8321 280.227 23.1912 281.323 23.6447C281.209 22.3597 280.794 21.2069 280.076 20.1864C279.357 19.1281 278.356 18.4478 277.071 18.1454C275.786 17.843 274.652 18.032 273.669 18.7123C272.724 19.3549 271.968 20.2242 271.401 21.3203L263.634 17.4651Z" fill="url(#paint7_radial_1605_573)"/>
  </g>
  <defs>
    <filter id="filter0_i_1605_573" x="-0.00292969" y="0.400146" width="290" height="55.0095" filterUnits="userSpaceOnUse" color-interpolation-filters="sRGB">
      <feFlood flood-opacity="0" result="BackgroundImageFix"/>
      <feBlend mode="normal" in="SourceGraphic" in2="BackgroundImageFix" result="shape"/>
      <feColorMatrix in="SourceAlpha" type="matrix" values="0 0 0 0 0 0 0 0 0 0 0 0 0 0 0 0 0 0 127 0" result="hardAlpha"/>
      <feOffset dy="0.809916"/>
      <feGaussianBlur stdDeviation="1.21487"/>
      <feComposite in2="hardAlpha" operator="arithmetic" k2="-1" k3="1"/>
      <feColorMatrix type="matrix" values="0 0 0 0 0.530769 0 0 0 0 0.120192 0 0 0 0 1 0 0 0 1 0"/>
      <feBlend mode="normal" in2="shape" result="effect1_innerShadow_1605_573"/>
    </filter>
    <radialGradient id="paint0_radial_1605_573" cx="0" cy="0" r="1" gradientUnits="userSpaceOnUse" gradientTransform="translate(144.997 27.4999) rotate(90) scale(27.0998 145)">
      <stop offset="0.4375" stop-color="#0FE3EF"/>
      <stop offset="1" stop-color="#438BFF"/>
    </radialGradient>
    <radialGradient id="paint1_radial_1605_573" cx="0" cy="0" r="1" gradientUnits="userSpaceOnUse" gradientTransform="translate(144.997 27.4999) rotate(90) scale(27.0998 145)">
      <stop offset="0.4375" stop-color="#0FE3EF"/>
      <stop offset="1" stop-color="#438BFF"/>
    </radialGradient>
    <radialGradient id="paint2_radial_1605_573" cx="0" cy="0" r="1" gradientUnits="userSpaceOnUse" gradientTransform="translate(144.997 27.4999) rotate(90) scale(27.0998 145)">
      <stop offset="0.4375" stop-color="#0FE3EF"/>
      <stop offset="1" stop-color="#438BFF"/>
    </radialGradient>
    <radialGradient id="paint3_radial_1605_573" cx="0" cy="0" r="1" gradientUnits="userSpaceOnUse" gradientTransform="translate(144.997 27.4999) rotate(90) scale(27.0998 145)">
      <stop offset="0.4375" stop-color="#0FE3EF"/>
      <stop offset="1" stop-color="#438BFF"/>
    </radialGradient>
    <radialGradient id="paint4_radial_1605_573" cx="0" cy="0" r="1" gradientUnits="userSpaceOnUse" gradientTransform="translate(144.997 27.4999) rotate(90) scale(27.0998 145)">
      <stop offset="0.4375" stop-color="#0FE3EF"/>
      <stop offset="1" stop-color="#438BFF"/>
    </radialGradient>
    <radialGradient id="paint5_radial_1605_573" cx="0" cy="0" r="1" gradientUnits="userSpaceOnUse" gradientTransform="translate(144.997 27.4999) rotate(90) scale(27.0998 145)">
      <stop offset="0.4375" stop-color="#0FE3EF"/>
      <stop offset="1" stop-color="#438BFF"/>
    </radialGradient>
    <radialGradient id="paint6_radial_1605_573" cx="0" cy="0" r="1" gradientUnits="userSpaceOnUse" gradientTransform="translate(144.997 27.4999) rotate(90) scale(27.0998 145)">
      <stop offset="0.4375" stop-color="#0FE3EF"/>
      <stop offset="1" stop-color="#438BFF"/>
    </radialGradient>
    <radialGradient id="paint7_radial_1605_573" cx="0" cy="0" r="1" gradientUnits="userSpaceOnUse" gradientTransform="translate(144.997 27.4999) rotate(90) scale(27.0998 145)">
      <stop offset="0.4375" stop-color="#0FE3EF"/>
      <stop offset="1" stop-color="#438BFF"/>
    </radialGradient>
  </defs>
</svg>