<svg width="16" height="16" viewBox="0 0 16 16" fill="none" xmlns="http://www.w3.org/2000/svg">
<path d="M15.0161 11.6314L9.55047 2.13957C9.39216 1.86882 9.16572 1.64425 8.89368 1.48818C8.62164 1.33212 8.31348 1.25 7.99985 1.25C7.68622 1.25 7.37805 1.33212 7.10601 1.48818C6.83397 1.64425 6.60753 1.86882 6.44922 2.13957L0.983594 11.6314C0.829982 11.8942 0.749023 12.193 0.749023 12.4974C0.749023 12.8017 0.829982 13.1006 0.983594 13.3633C1.14015 13.6354 1.36628 13.8609 1.63877 14.0168C1.91127 14.1727 2.22032 14.2532 2.53422 14.2502H13.4655C13.7792 14.253 14.088 14.1723 14.3602 14.0165C14.6325 13.8606 14.8584 13.6352 15.0148 13.3633C15.1686 13.1007 15.2498 12.8019 15.25 12.4975C15.2503 12.1932 15.1695 11.8943 15.0161 11.6314ZM13.7161 12.6127C13.6907 12.656 13.654 12.6916 13.61 12.7158C13.566 12.7401 13.5163 12.7519 13.4661 12.7502H2.53422C2.48403 12.7519 2.4343 12.7401 2.39029 12.7158C2.34629 12.6916 2.30964 12.656 2.28422 12.6127C2.26266 12.5776 2.25124 12.5373 2.25124 12.4961C2.25124 12.455 2.26266 12.4146 2.28422 12.3796L7.74985 2.88769C7.77691 2.84603 7.81395 2.8118 7.85762 2.7881C7.90128 2.76439 7.95017 2.75198 7.99985 2.75198C8.04952 2.75198 8.09841 2.76439 8.14208 2.7881C8.18574 2.8118 8.22278 2.84603 8.24985 2.88769L13.7148 12.3796C13.7366 12.4145 13.7482 12.4548 13.7484 12.496C13.7487 12.5371 13.7375 12.5775 13.7161 12.6127ZM7.24985 8.50019V6.50019C7.24985 6.30128 7.32886 6.11051 7.46951 5.96986C7.61017 5.82921 7.80093 5.75019 7.99985 5.75019C8.19876 5.75019 8.38952 5.82921 8.53018 5.96986C8.67083 6.11051 8.74985 6.30128 8.74985 6.50019V8.50019C8.74985 8.6991 8.67083 8.88987 8.53018 9.03052C8.38952 9.17117 8.19876 9.25019 7.99985 9.25019C7.80093 9.25019 7.61017 9.17117 7.46951 9.03052C7.32886 8.88987 7.24985 8.6991 7.24985 8.50019ZM8.99985 11.0002C8.99985 11.198 8.9412 11.3913 8.83132 11.5558C8.72143 11.7202 8.56526 11.8484 8.38253 11.9241C8.1998 11.9998 7.99874 12.0196 7.80476 11.981C7.61077 11.9424 7.43259 11.8471 7.29274 11.7073C7.15289 11.5674 7.05765 11.3893 7.01906 11.1953C6.98047 11.0013 7.00028 10.8002 7.07597 10.6175C7.15165 10.4348 7.27983 10.2786 7.44427 10.1687C7.60872 10.0588 7.80206 10.0002 7.99985 10.0002C8.26506 10.0002 8.51942 10.1055 8.70695 10.2931C8.89449 10.4806 8.99985 10.735 8.99985 11.0002Z" fill="#DF1C41"/>
</svg>

