<svg width="64" height="64" viewBox="0 0 64 64" fill="none" xmlns="http://www.w3.org/2000/svg">
<rect x="0.5" y="0.5" width="63" height="63" rx="11.5" fill="#173DB6"/>
<rect x="0.5" y="0.5" width="63" height="63" rx="11.5" stroke="#EDEDED"/>
<path d="M45.8966 28.1573C45.7716 27.773 45.5356 27.4342 45.2184 27.1838C44.9012 26.9333 44.517 26.7823 44.1141 26.7498L36.7391 26.1548L33.8916 19.2686C33.7376 18.8933 33.4755 18.5724 33.1386 18.3465C32.8018 18.1206 32.4053 18 31.9997 18C31.5941 18 31.1977 18.1206 30.8608 18.3465C30.5239 18.5724 30.2619 18.8933 30.1079 19.2686L27.2629 26.1536L19.8841 26.7498C19.4806 26.784 19.0961 26.9364 18.7788 27.1881C18.4616 27.4398 18.2256 27.7795 18.1006 28.1646C17.9755 28.5498 17.9669 28.9633 18.0758 29.3534C18.1847 29.7434 18.4063 30.0927 18.7129 30.3573L24.3379 35.2111L22.6241 42.4686C22.5283 42.8629 22.5517 43.2767 22.6915 43.6577C22.8313 44.0386 23.0812 44.3694 23.4093 44.608C23.7375 44.8467 24.1291 44.9825 24.5346 44.9982C24.94 45.0139 25.341 44.9087 25.6866 44.6961L31.9991 40.8111L38.3154 44.6961C38.6611 44.9062 39.0612 45.0093 39.4654 44.9925C39.8696 44.9756 40.2598 44.8396 40.5869 44.6014C40.9139 44.3632 41.1631 44.0336 41.3032 43.6541C41.4433 43.2746 41.468 42.8621 41.3741 42.4686L39.6541 35.2098L45.2791 30.3561C45.5881 30.0919 45.8117 29.7419 45.9217 29.3504C46.0316 28.959 46.0229 28.5438 45.8966 28.1573ZM43.9791 28.8411L37.8916 34.0911C37.7528 34.2107 37.6495 34.3662 37.5931 34.5406C37.5366 34.715 37.5292 34.9015 37.5716 35.0798L39.4316 42.9298C39.4364 42.9406 39.4369 42.9529 39.4329 42.9641C39.429 42.9752 39.4209 42.9844 39.4104 42.9898C39.3879 43.0073 39.3816 43.0036 39.3629 42.9898L32.5229 38.7836C32.3653 38.6867 32.184 38.6355 31.9991 38.6355C31.8142 38.6355 31.6329 38.6867 31.4754 38.7836L24.6354 42.9923C24.6166 43.0036 24.6116 43.0073 24.5879 42.9923C24.5773 42.9869 24.5692 42.9777 24.5653 42.9666C24.5613 42.9554 24.5618 42.9431 24.5666 42.9323L26.4266 35.0823C26.469 34.904 26.4616 34.7175 26.4051 34.5431C26.3487 34.3687 26.2454 34.2132 26.1066 34.0936L20.0191 28.8436C20.0041 28.8311 19.9904 28.8198 20.0029 28.7811C20.0154 28.7423 20.0254 28.7473 20.0441 28.7448L28.0341 28.0998C28.2174 28.0841 28.3927 28.0181 28.5409 27.9092C28.6891 27.8003 28.8044 27.6526 28.8741 27.4823L31.9516 20.0311C31.9616 20.0098 31.9654 19.9998 31.9954 19.9998C32.0254 19.9998 32.0291 20.0098 32.0391 20.0311L35.1241 27.4823C35.1944 27.6526 35.3105 27.8002 35.4593 27.9087C35.6082 28.0172 35.7842 28.0825 35.9679 28.0973L43.9579 28.7423C43.9766 28.7423 43.9879 28.7423 43.9991 28.7786C44.0104 28.8148 43.9991 28.8286 43.9791 28.8411Z" fill="white"/>
</svg>
