<svg width="25" height="25" viewBox="0 0 25 25" fill="none" xmlns="http://www.w3.org/2000/svg">
<path d="M20 3.50001H8.31032C8.11326 3.49938 7.91805 3.53792 7.73602 3.61341C7.554 3.68889 7.38879 3.7998 7.25001 3.93969L3.93969 7.25001C3.7998 7.38879 3.68889 7.554 3.61341 7.73602C3.53792 7.91805 3.49938 8.11326 3.50001 8.31032V20C3.50001 20.3978 3.65804 20.7794 3.93935 21.0607C4.22065 21.342 4.60218 21.5 5.00001 21.5H20C20.3978 21.5 20.7794 21.342 21.0607 21.0607C21.342 20.7794 21.5 20.3978 21.5 20V5.00001C21.5 4.60218 21.342 4.22065 21.0607 3.93935C20.7794 3.65804 20.3978 3.50001 20 3.50001ZM8.75001 5.00001H16.25V8.00001H8.75001V5.00001ZM20 20H5.00001V8.31032L7.25001 6.06032V8.00001C7.25001 8.39783 7.40804 8.77936 7.68935 9.06067C7.97065 9.34197 8.35218 9.50001 8.75001 9.50001H16.25C16.6478 9.50001 17.0294 9.34197 17.3107 9.06067C17.592 8.77936 17.75 8.39783 17.75 8.00001V5.00001H20V20ZM12.5 11C11.7583 11 11.0333 11.2199 10.4166 11.632C9.79994 12.0441 9.31929 12.6297 9.03546 13.3149C8.75163 14.0002 8.67737 14.7542 8.82206 15.4816C8.96676 16.209 9.32391 16.8772 9.84836 17.4017C10.3728 17.9261 11.041 18.2833 11.7684 18.428C12.4958 18.5726 13.2498 18.4984 13.9351 18.2146C14.6203 17.9307 15.206 17.4501 15.618 16.8334C16.0301 16.2167 16.25 15.4917 16.25 14.75C16.25 13.7554 15.8549 12.8016 15.1517 12.0984C14.4484 11.3951 13.4946 11 12.5 11ZM12.5 17C12.055 17 11.62 16.868 11.25 16.6208C10.88 16.3736 10.5916 16.0222 10.4213 15.611C10.251 15.1999 10.2064 14.7475 10.2932 14.3111C10.3801 13.8746 10.5943 13.4737 10.909 13.159C11.2237 12.8443 11.6246 12.6301 12.0611 12.5432C12.4975 12.4564 12.9499 12.501 13.361 12.6713C13.7722 12.8416 14.1236 13.13 14.3708 13.5C14.618 13.87 14.75 14.305 14.75 14.75C14.75 15.3467 14.513 15.919 14.091 16.341C13.669 16.763 13.0967 17 12.5 17Z" fill="white"/>
</svg>
