<svg width="22" height="22" viewBox="0 0 22 22" fill="none" xmlns="http://www.w3.org/2000/svg">
<path d="M6.7075 20.2925C6.84751 20.4324 6.94288 20.6106 6.98153 20.8047C7.02018 20.9988 7.00038 21.2 6.92462 21.3828C6.84887 21.5656 6.72058 21.7218 6.55598 21.8317C6.39139 21.9416 6.1979 22.0002 6 22H1C0.734784 22 0.48043 21.8946 0.292894 21.7071C0.105357 21.5196 3.09801e-07 21.2652 3.09801e-07 21V16C-0.000155428 15.8021 0.0584092 15.6086 0.16828 15.444C0.278151 15.2794 0.434387 15.1511 0.61721 15.0754C0.800033 14.9996 1.00122 14.9798 1.19531 15.0185C1.38939 15.0571 1.56764 15.1525 1.7075 15.2925L6.7075 20.2925ZM6 3.09801e-07H1C0.734784 3.09801e-07 0.48043 0.105357 0.292894 0.292894C0.105357 0.48043 3.09801e-07 0.734784 3.09801e-07 1V6C-0.000155428 6.1979 0.0584092 6.39139 0.16828 6.55598C0.278151 6.72058 0.434387 6.84887 0.61721 6.92462C0.800033 7.00038 1.00122 7.02018 1.19531 6.98153C1.38939 6.94288 1.56764 6.84751 1.7075 6.7075L6.7075 1.7075C6.84751 1.56764 6.94288 1.38939 6.98153 1.19531C7.02018 1.00122 7.00038 0.800033 6.92462 0.61721C6.84887 0.434387 6.72058 0.278151 6.55598 0.16828C6.39139 0.0584092 6.1979 -0.000155428 6 3.09801e-07ZM21.3825 15.0763C21.1998 15.0005 20.9987 14.9805 20.8047 15.019C20.6107 15.0575 20.4324 15.1527 20.2925 15.2925L15.2925 20.2925C15.1525 20.4324 15.0571 20.6106 15.0185 20.8047C14.9798 20.9988 14.9996 21.2 15.0754 21.3828C15.1511 21.5656 15.2794 21.7218 15.444 21.8317C15.6086 21.9416 15.8021 22.0002 16 22H21C21.2652 22 21.5196 21.8946 21.7071 21.7071C21.8946 21.5196 22 21.2652 22 21V16C22 15.8022 21.9413 15.6089 21.8314 15.4445C21.7214 15.28 21.5652 15.1519 21.3825 15.0763ZM21 3.09801e-07H16C15.8021 -0.000155428 15.6086 0.0584092 15.444 0.16828C15.2794 0.278151 15.1511 0.434387 15.0754 0.61721C14.9996 0.800033 14.9798 1.00122 15.0185 1.19531C15.0571 1.38939 15.1525 1.56764 15.2925 1.7075L20.2925 6.7075C20.4324 6.84751 20.6106 6.94288 20.8047 6.98153C20.9988 7.02018 21.2 7.00038 21.3828 6.92462C21.5656 6.84887 21.7218 6.72058 21.8317 6.55598C21.9416 6.39139 22.0002 6.1979 22 6V1C22 0.734784 21.8946 0.48043 21.7071 0.292894C21.5196 0.105357 21.2652 3.09801e-07 21 3.09801e-07Z" fill="#141414"/>
</svg>
