<svg width="24" height="24" viewBox="0 0 24 24" fill="none" xmlns="http://www.w3.org/2000/svg">
<path d="M12.0015 7.4976C11.1115 7.4976 10.2415 7.76152 9.50144 8.25599C8.76142 8.75046 8.18465 9.45326 7.84405 10.2755C7.50346 11.0978 7.41434 12.0026 7.58797 12.8755C7.76161 13.7484 8.19019 14.5502 8.81953 15.1796C9.44886 15.8089 10.2507 16.2375 11.1236 16.4111C11.9965 16.5848 12.9013 16.4957 13.7236 16.1551C14.5459 15.8145 15.2487 15.2377 15.7431 14.4977C16.2376 13.7576 16.5015 12.8876 16.5015 11.9976C16.5003 10.8045 16.0258 9.66064 15.1821 8.81699C14.3385 7.97335 13.1946 7.49884 12.0015 7.4976ZM12.0015 14.9976C11.4082 14.9976 10.8281 14.8217 10.3348 14.492C9.84145 14.1624 9.45693 13.6938 9.22987 13.1457C9.00281 12.5975 8.9434 11.9943 9.05915 11.4123C9.17491 10.8304 9.46063 10.2958 9.88019 9.87628C10.2997 9.45672 10.8343 9.171 11.4162 9.05525C11.9982 8.93949 12.6014 8.9989 13.1496 9.22596C13.6977 9.45303 14.1663 9.83754 14.4959 10.3309C14.8256 10.8242 15.0015 11.4043 15.0015 11.9976C15.0015 12.7933 14.6854 13.5563 14.1228 14.1189C13.5602 14.6815 12.7972 14.9976 12.0015 14.9976ZM20.2515 12.2001C20.2553 12.0651 20.2553 11.9301 20.2515 11.7951L21.6503 10.0476C21.7236 9.95585 21.7744 9.84815 21.7985 9.73319C21.8226 9.61823 21.8193 9.49921 21.789 9.38573C21.5597 8.52379 21.2167 7.69621 20.769 6.92479C20.7104 6.82384 20.629 6.73796 20.5314 6.674C20.4337 6.61004 20.3225 6.56975 20.2065 6.55635L17.9828 6.30885C17.8903 6.21135 17.7965 6.1176 17.7015 6.0276L17.439 3.79823C17.4255 3.68218 17.3851 3.57088 17.321 3.47322C17.2568 3.37556 17.1708 3.29424 17.0696 3.23573C16.2979 2.78886 15.4704 2.4462 14.6087 2.21666C14.4951 2.18647 14.3761 2.18339 14.2611 2.20765C14.1461 2.23191 14.0385 2.28285 13.9468 2.35635L12.204 3.7476C12.069 3.7476 11.934 3.7476 11.799 3.7476L10.0515 2.35166C9.95976 2.27832 9.85206 2.22756 9.7371 2.20346C9.62213 2.17936 9.50312 2.1826 9.38963 2.21291C8.52784 2.44263 7.70031 2.78562 6.9287 3.23291C6.82774 3.29153 6.74187 3.37291 6.67791 3.47056C6.61394 3.56821 6.57366 3.67945 6.56026 3.79541L6.31276 6.02291C6.21526 6.11604 6.12151 6.20979 6.03151 6.30416L3.80213 6.5601C3.68608 6.5736 3.57479 6.61403 3.47713 6.67816C3.37947 6.74229 3.29814 6.82835 3.23963 6.92948C2.79277 7.70119 2.4501 8.5287 2.22057 9.39041C2.19038 9.50397 2.18729 9.62303 2.21156 9.73799C2.23582 9.85296 2.28675 9.96062 2.36026 10.0523L3.75151 11.7951C3.75151 11.9301 3.75151 12.0651 3.75151 12.2001L2.35557 13.9476C2.28223 14.0394 2.23146 14.147 2.20736 14.262C2.18326 14.377 2.1865 14.496 2.21682 14.6095C2.44612 15.4714 2.78913 16.299 3.23682 17.0704C3.29544 17.1714 3.37681 17.2572 3.47447 17.3212C3.57212 17.3852 3.68336 17.4255 3.79932 17.4389L6.02307 17.6864C6.1162 17.7839 6.20995 17.8776 6.30432 17.9676L6.56401 20.197C6.57751 20.313 6.61794 20.4243 6.68207 20.522C6.7462 20.6196 6.83226 20.701 6.93338 20.7595C7.7051 21.2063 8.53261 21.549 9.39432 21.7785C9.50788 21.8087 9.62693 21.8118 9.7419 21.7876C9.85687 21.7633 9.96453 21.7124 10.0562 21.6389L11.799 20.2476C11.934 20.2514 12.069 20.2514 12.204 20.2476L13.9515 21.6464C14.0433 21.7197 14.151 21.7705 14.2659 21.7946C14.3809 21.8187 14.4999 21.8154 14.6134 21.7851C15.4753 21.5558 16.3029 21.2128 17.0743 20.7651C17.1753 20.7065 17.2611 20.6251 17.3251 20.5275C17.3891 20.4298 17.4294 20.3186 17.4428 20.2026L17.6903 17.9789C17.7878 17.8864 17.8815 17.7926 17.9715 17.6976L20.2009 17.4351C20.3169 17.4216 20.4282 17.3812 20.5259 17.317C20.6235 17.2529 20.7049 17.1669 20.7634 17.0657C21.2102 16.294 21.5529 15.4665 21.7824 14.6048C21.8126 14.4912 21.8157 14.3722 21.7915 14.2572C21.7672 14.1422 21.7163 14.0346 21.6428 13.9429L20.2515 12.2001ZM18.7421 11.5907C18.7581 11.8617 18.7581 12.1335 18.7421 12.4045C18.731 12.59 18.7891 12.7731 18.9053 12.9182L20.2356 14.5804C20.0829 15.0655 19.8875 15.5361 19.6515 15.9867L17.5328 16.2267C17.3482 16.2471 17.1779 16.3353 17.0546 16.4742C16.8742 16.6771 16.682 16.8693 16.479 17.0498C16.3402 17.173 16.252 17.3434 16.2315 17.5279L15.9962 19.6448C15.5457 19.8809 15.0751 20.0763 14.5899 20.2289L12.9268 18.8985C12.7937 18.7922 12.6284 18.7343 12.4581 18.7345H12.4131C12.1421 18.7504 11.8703 18.7504 11.5993 18.7345C11.4138 18.7233 11.2307 18.7814 11.0856 18.8976L9.4187 20.2289C8.93357 20.0762 8.46297 19.8807 8.01245 19.6448L7.77245 17.5289C7.75196 17.3443 7.66378 17.174 7.52495 17.0507C7.32199 16.8703 7.12978 16.6781 6.94932 16.4751C6.82607 16.3363 6.65571 16.2481 6.4712 16.2276L4.35432 15.9914C4.11825 15.5409 3.92279 15.0703 3.77026 14.5851L5.10057 12.922C5.21673 12.7769 5.27486 12.5938 5.2637 12.4082C5.24776 12.1372 5.24776 11.8655 5.2637 11.5945C5.27486 11.4089 5.21673 11.2258 5.10057 11.0807L3.77026 9.41479C3.92291 8.92966 4.11836 8.45906 4.35432 8.00854L6.47026 7.76854C6.65477 7.74806 6.82513 7.65987 6.94838 7.52104C7.12884 7.31808 7.32105 7.12587 7.52401 6.94541C7.66339 6.82208 7.75194 6.65133 7.77245 6.46635L8.00776 4.35041C8.45823 4.11434 8.92884 3.91888 9.41401 3.76635L11.0771 5.09666C11.2223 5.21283 11.4053 5.27096 11.5909 5.25979C11.8619 5.24385 12.1336 5.24385 12.4046 5.25979C12.5902 5.27096 12.7733 5.21283 12.9184 5.09666L14.5843 3.76635C15.0694 3.919 15.54 4.11446 15.9906 4.35041L16.2306 6.46635C16.2511 6.65087 16.3392 6.82123 16.4781 6.94448C16.681 7.12494 16.8732 7.31714 17.0537 7.5201C17.1769 7.65893 17.3473 7.74712 17.5318 7.7676L19.6487 8.00291C19.8848 8.45339 20.0802 8.924 20.2328 9.40916L18.9024 11.0723C18.7852 11.2186 18.727 11.4036 18.7393 11.5907H18.7421Z" fill="black"/>
</svg>
