<svg width="24" height="24" viewBox="0 0 24 24" fill="none" xmlns="http://www.w3.org/2000/svg">
<path d="M19.5 9.74991C19.5 8.29853 19.0788 6.87833 18.2877 5.66156C17.4965 4.44479 16.3692 3.48372 15.0427 2.89492C13.7161 2.30611 12.2472 2.11486 10.814 2.34436C9.38092 2.57387 8.04518 3.21427 6.96881 4.18789C5.89245 5.16151 5.1217 6.42653 4.75005 7.82952C4.37841 9.23251 4.42182 10.7132 4.87504 12.092C5.32825 13.4708 6.1718 14.6885 7.30336 15.5974C8.43493 16.5062 9.8059 17.0673 11.25 17.2124V21.7499C11.25 21.9488 11.329 22.1396 11.4697 22.2802C11.6103 22.4209 11.8011 22.4999 12 22.4999C12.1989 22.4999 12.3897 22.4209 12.5303 22.2802C12.671 22.1396 12.75 21.9488 12.75 21.7499V17.2124C14.5991 17.0243 16.3127 16.1571 17.5595 14.7787C18.8063 13.4003 19.4977 11.6085 19.5 9.74991ZM12 15.7499C10.8133 15.7499 9.65327 15.398 8.66658 14.7387C7.67988 14.0794 6.91085 13.1424 6.45672 12.046C6.0026 10.9497 5.88378 9.74325 6.11529 8.57937C6.3468 7.41548 6.91824 6.34638 7.75736 5.50727C8.59647 4.66815 9.66557 4.09671 10.8295 3.8652C11.9933 3.63369 13.1997 3.75251 14.2961 4.20663C15.3925 4.66076 16.3295 5.42979 16.9888 6.41649C17.6481 7.40318 18 8.56322 18 9.74991C17.9983 11.3407 17.3656 12.8658 16.2407 13.9906C15.1159 15.1155 13.5908 15.7482 12 15.7499Z" fill="white"/>
</svg>
