<svg width="24" height="24" viewBox="0 0 24 24" fill="none" xmlns="http://www.w3.org/2000/svg">
<path d="M12.7498 17.2506C14.2332 17.2506 15.6833 16.8107 16.9166 15.9866C18.15 15.1625 19.1113 13.9912 19.6789 12.6207C20.2466 11.2503 20.3951 9.74229 20.1057 8.28743C19.8163 6.83257 19.102 5.4962 18.0531 4.44731C17.0043 3.39841 15.6679 2.68411 14.213 2.39472C12.7582 2.10533 11.2502 2.25385 9.87972 2.82151C8.50928 3.38917 7.33794 4.35046 6.51383 5.58383C5.68972 6.8172 5.24985 8.26725 5.24985 9.75061C5.25208 11.739 6.04298 13.6454 7.44901 15.0514C8.85505 16.4575 10.7614 17.2484 12.7498 17.2506ZM12.7498 3.75061C13.9365 3.75061 15.0966 4.1025 16.0833 4.76179C17.07 5.42108 17.839 6.35815 18.2931 7.45451C18.7473 8.55086 18.8661 9.75726 18.6346 10.9211C18.403 12.085 17.8316 13.1541 16.9925 13.9932C16.1534 14.8324 15.0843 15.4038 13.9204 15.6353C12.7565 15.8668 11.5501 15.748 10.4537 15.2939C9.35739 14.8398 8.42032 14.0707 7.76103 13.084C7.10174 12.0973 6.74985 10.9373 6.74985 9.75061C6.75159 8.15984 7.38428 6.63473 8.50913 5.50988C9.63397 4.38504 11.1591 3.75234 12.7498 3.75061ZM20.0408 16.2662C20.1091 16.3373 20.1628 16.4211 20.1987 16.5129C20.2346 16.6048 20.252 16.7028 20.25 16.8013C20.248 16.8999 20.2266 16.9971 20.187 17.0874C20.1474 17.1777 20.0904 17.2593 20.0192 17.3275C18.2542 19.0295 15.946 20.0552 13.4998 20.2244V21.7506H15.7498C15.9488 21.7506 16.1395 21.8296 16.2802 21.9703C16.4208 22.1109 16.4998 22.3017 16.4998 22.5006C16.4998 22.6995 16.4208 22.8903 16.2802 23.0309C16.1395 23.1716 15.9488 23.2506 15.7498 23.2506H9.74985C9.55094 23.2506 9.36017 23.1716 9.21952 23.0309C9.07887 22.8903 8.99985 22.6995 8.99985 22.5006C8.99985 22.3017 9.07887 22.1109 9.21952 21.9703C9.36017 21.8296 9.55094 21.7506 9.74985 21.7506H11.9998V20.2234C10.0107 20.0809 8.10319 19.3749 6.5006 18.188C4.89802 17.001 3.6666 15.3822 2.95042 13.521C2.23425 11.6597 2.06294 9.63299 2.45653 7.67794C2.85013 5.72288 3.79236 3.92035 5.17297 2.48123C5.24074 2.40841 5.32232 2.34981 5.41296 2.30882C5.50359 2.26783 5.60148 2.24528 5.70091 2.24248C5.80035 2.23969 5.89934 2.2567 5.99214 2.29253C6.08494 2.32836 6.16968 2.38229 6.24143 2.45118C6.31319 2.52008 6.37052 2.60256 6.41009 2.69382C6.44967 2.78508 6.47069 2.88331 6.47194 2.98277C6.47319 3.08224 6.45463 3.18096 6.41736 3.27319C6.3801 3.36542 6.32485 3.44931 6.25485 3.51998C4.61993 5.21824 3.71658 7.49016 3.73897 9.84739C3.76136 12.2046 4.70771 14.459 6.3746 16.1259C8.04149 17.7927 10.2958 18.7391 12.6531 18.7615C15.0103 18.7839 17.2822 17.8805 18.9805 16.2456C19.1238 16.1078 19.3161 16.0325 19.5149 16.0364C19.7137 16.0402 19.9029 16.1229 20.0408 16.2662Z" fill="white"/>
</svg>
