<svg width="168" height="48" viewBox="0 0 168 48" fill="none" xmlns="http://www.w3.org/2000/svg">
<rect x="0.704102" width="167" height="48" rx="12" fill="black"/>
<g clip-path="url(#clip0_2034_10389)">
<path d="M97.0647 18.3328C98.7575 18.3328 100.066 18.7963 101.066 19.7233C102.066 20.6502 102.528 21.8861 102.528 23.4311V30.8467H100.373V29.1473H100.296C99.373 30.5377 98.065 31.2329 96.5261 31.2329C95.218 31.2329 94.0639 30.8467 93.1405 30.0742C92.2941 29.3018 91.7555 28.2203 91.7555 27.0616C91.7555 25.8257 92.2172 24.8215 93.1405 24.049C94.0639 23.2766 95.3719 22.9676 96.9108 22.9676C98.2958 22.9676 99.373 23.1993 100.219 23.7401V23.1993C100.219 22.4784 99.9513 21.7574 99.4151 21.2877L99.2961 21.1909C98.6805 20.6502 97.9111 20.3412 97.0647 20.3412C95.7566 20.3412 94.7564 20.8819 94.0639 21.9634L92.0633 20.7275C93.2944 19.1053 94.9103 18.3328 97.0647 18.3328ZM86.2155 13.0801C87.5963 13.0801 88.9084 13.5624 89.9574 14.4619L90.1397 14.625C91.2169 15.552 91.7555 16.9424 91.7555 18.4101C91.7555 19.8777 91.2169 21.1909 90.1397 22.1951C89.0625 23.1993 87.7544 23.7401 86.2155 23.7401L82.5222 23.6628V30.8467H80.2139V13.0801H86.2155ZM97.3725 24.8215C96.4491 24.8215 95.6797 25.0532 95.0641 25.5167C94.4486 25.9029 94.1408 26.4437 94.1408 27.1389C94.1408 27.7569 94.4486 28.2976 94.9103 28.6066C95.4489 28.9928 96.0644 29.2245 96.68 29.2245C97.5418 29.2245 98.4035 28.8881 99.0776 28.278L99.2191 28.1431C99.9886 27.4479 100.373 26.5982 100.373 25.6712C99.6808 25.1305 98.6805 24.8215 97.3725 24.8215ZM86.3694 15.243H82.5222V21.4227H86.3694C87.2158 21.4227 88.0622 21.1137 88.6008 20.4957C89.8319 19.337 89.8319 17.4059 88.6778 16.2472L88.6008 16.1699C87.9853 15.552 87.2158 15.1657 86.3694 15.243ZM114.993 18.7191L107.375 36.2539H105.067L107.914 30.1515L102.912 18.7963H105.375L108.991 27.5251H109.068L112.607 18.7963H114.993V18.7191Z" fill="white"/>
<path d="M73.3647 22.1169C73.3647 21.4217 73.2878 20.7265 73.2108 20.0312H63.5928V23.9708H69.0558C68.825 25.2067 68.1325 26.3654 67.0553 27.0607V29.6098H70.3639C72.2875 27.8331 73.3647 25.2067 73.3647 22.1169Z" fill="#4285F4"/>
<path d="M63.5931 32.0817C66.3631 32.0817 68.6715 31.1548 70.3642 29.6099L67.0556 27.0607C66.1323 27.6787 64.9781 28.0649 63.5931 28.0649C60.977 28.0649 58.6687 26.2883 57.8992 23.8164H54.5137V26.4428C56.2834 29.9189 59.7459 32.0817 63.5931 32.0817Z" fill="#34A853"/>
<path d="M57.899 23.8169C57.4373 22.581 57.4373 21.1905 57.899 19.8773V17.251H54.5135C53.0515 20.1091 53.0515 23.5079 54.5135 26.4433L57.899 23.8169Z" fill="#FBBC04"/>
<path d="M63.5933 15.7055C65.0553 15.7055 66.4403 16.2463 67.5175 17.2505L70.4414 14.3151C68.5947 12.6157 66.1325 11.6115 63.6703 11.6887C59.823 11.6887 56.2836 13.8516 54.5908 17.3277L57.9764 19.9541C58.6689 17.4822 60.9772 15.7055 63.5933 15.7055Z" fill="#EA4335"/>
</g>
<defs>
<clipPath id="clip0_2034_10389">
<rect width="61.5748" height="24.6299" fill="white" transform="translate(53.417 11.6846)"/>
</clipPath>
</defs>
</svg>

