<svg width="16" height="16" viewBox="0 0 16 16" fill="none" xmlns="http://www.w3.org/2000/svg">
<path d="M14.5326 5.0313L6.53255 13.0313C6.46287 13.1012 6.38008 13.1567 6.28891 13.1946C6.19775 13.2324 6.10001 13.2519 6.0013 13.2519C5.90259 13.2519 5.80485 13.2324 5.71369 13.1946C5.62252 13.1567 5.53973 13.1012 5.47005 13.0313L1.97005 9.5313C1.90029 9.46154 1.84495 9.37871 1.80719 9.28756C1.76943 9.19641 1.75 9.09871 1.75 9.00005C1.75 8.90139 1.76943 8.80369 1.80719 8.71254C1.84495 8.62139 1.90029 8.53857 1.97005 8.4688C2.03982 8.39904 2.12264 8.3437 2.21379 8.30594C2.30494 8.26818 2.40264 8.24875 2.5013 8.24875C2.59996 8.24875 2.69766 8.26818 2.78881 8.30594C2.87996 8.3437 2.96279 8.39904 3.03255 8.4688L6.00193 11.4382L13.4713 3.97005C13.6122 3.82915 13.8033 3.75 14.0026 3.75C14.2018 3.75 14.3929 3.82915 14.5338 3.97005C14.6747 4.11095 14.7539 4.30204 14.7539 4.5013C14.7539 4.70056 14.6747 4.89165 14.5338 5.03255L14.5326 5.0313Z" fill="#40C4AA"/>
</svg>
