<svg width="64" height="64" viewBox="0 0 64 64" fill="none" xmlns="http://www.w3.org/2000/svg">
<g clip-path="url(#clip0_1605_1104)">
<path d="M59.3747 21.975L54.7497 20.5C54.2122 20.325 53.8872 19.775 54.0122 19.2125L55.0497 14.475C56.1872 9.23748 50.9872 4.87498 46.0372 6.91248L41.5497 8.74998C41.0247 8.96248 40.4247 8.74998 40.1622 8.24998L37.8997 3.94998C35.4122 -0.787525 28.6247 -0.787525 26.1247 3.94998L23.8622 8.24998C23.5997 8.74998 22.9997 8.96248 22.4747 8.74998L17.9872 6.91248C13.0247 4.87498 7.81222 9.23748 8.96222 14.475L9.99972 19.2125C10.1247 19.7625 9.79972 20.325 9.26222 20.5L4.63722 21.975C-0.462777 23.6 -1.63778 30.2875 2.58722 33.575L6.42472 36.55C6.87472 36.9 6.98722 37.525 6.68722 38.0125L4.09972 42.1125C1.22472 46.625 4.62472 52.5 9.97472 52.2875L14.8247 52.1C15.3872 52.075 15.8872 52.4875 15.9622 53.05L16.6122 57.8625C17.3372 63.175 23.7122 65.4875 27.6747 61.8875L31.2622 58.625C31.6872 58.2375 32.3247 58.2375 32.7372 58.625L36.3247 61.9C40.2872 65.5 46.6622 63.1875 47.3872 57.875L48.0372 53.0625C48.1122 52.5 48.5997 52.0875 49.1747 52.1125L54.0247 52.3C59.3747 52.5125 62.7747 46.6375 59.9122 42.1L57.3247 38C57.0247 37.525 57.1372 36.8875 57.5872 36.5375L61.4247 33.5625C65.6497 30.2875 64.4747 23.6 59.3747 21.975ZM45.6122 26.4L29.5372 42.4875C28.1872 43.8375 25.9997 43.8375 24.6497 42.4875L16.6372 34.475C15.2872 33.125 15.2872 30.9375 16.6372 29.5875C17.9872 28.2375 20.1747 28.2375 21.5247 29.5875L27.0872 35.15L40.7247 21.525C42.0747 20.175 44.2622 20.175 45.6122 21.525C46.9622 22.875 46.9622 25.0625 45.6122 26.4Z" fill="url(#paint0_linear_1605_1104)"/>
</g>
<defs>
<linearGradient id="paint0_linear_1605_1104" x1="-0.367651" y1="-0.14265" x2="61.6886" y2="61.9124" gradientUnits="userSpaceOnUse">
<stop stop-color="#62E8A2"/>
<stop offset="1" stop-color="#13CE63"/>
</linearGradient>
<clipPath id="clip0_1605_1104">
<rect width="64" height="64" fill="white"/>
</clipPath>
</defs>
</svg>
