<svg width="16" height="16" viewBox="0 0 16 16" fill="none" xmlns="http://www.w3.org/2000/svg">
<path d="M11.125 2.5C9.83438 2.5 8.70438 3.055 8 3.99312C7.29562 3.055 6.16563 2.5 4.875 2.5C3.84764 2.50116 2.86269 2.90979 2.13624 3.63624C1.40979 4.36269 1.00116 5.34764 1 6.375C1 10.75 7.48688 14.2913 7.76312 14.4375C7.83594 14.4767 7.91732 14.4972 8 14.4972C8.08268 14.4972 8.16406 14.4767 8.23687 14.4375C8.51312 14.2913 15 10.75 15 6.375C14.9988 5.34764 14.5902 4.36269 13.8638 3.63624C13.1373 2.90979 12.1524 2.50116 11.125 2.5ZM8 13.425C6.85875 12.76 2 9.73063 2 6.375C2.00099 5.61281 2.30421 4.88212 2.84316 4.34316C3.38212 3.80421 4.11281 3.50099 4.875 3.5C6.09062 3.5 7.11125 4.1475 7.5375 5.1875C7.57517 5.27921 7.63925 5.35764 7.7216 5.41284C7.80396 5.46804 7.90086 5.49752 8 5.49752C8.09914 5.49752 8.19604 5.46804 8.2784 5.41284C8.36075 5.35764 8.42483 5.27921 8.4625 5.1875C8.88875 4.14562 9.90938 3.5 11.125 3.5C11.8872 3.50099 12.6179 3.80421 13.1568 4.34316C13.6958 4.88212 13.999 5.61281 14 6.375C14 9.72563 9.14 12.7594 8 13.425Z" fill="white"/>
</svg>
