<svg width="186" height="152" viewBox="0 0 186 152" fill="none" xmlns="http://www.w3.org/2000/svg">
<path fill-rule="evenodd" clip-rule="evenodd" d="M98.8565 -63.9277C116.993 -77.3918 148.263 -34.0421 148.414 -33.8322C148.414 -33.8322 167.599 -42.3161 178.697 -37.9307C197.67 -30.4321 189.318 13.2225 189.318 13.2225C189.436 13.2452 208.409 16.8923 215.065 25.8569C228.528 43.9922 185.184 75.2598 184.969 75.4144C184.969 75.4144 193.453 94.5993 189.068 105.698C181.569 124.671 137.914 116.318 137.914 116.318C137.892 116.437 134.245 135.409 125.28 142.065C107.146 155.527 75.882 112.191 75.7225 111.969C75.7225 111.969 56.5376 120.453 45.4394 116.068C26.4661 108.569 34.8186 64.9148 34.8186 64.9148C34.7076 64.8936 15.7289 61.2468 9.07187 52.2804C-4.39133 34.1454 38.9512 2.87877 39.1675 2.72292C39.1675 2.72292 30.6835 -16.462 35.0689 -27.5602C42.5675 -46.5335 86.2221 -38.181 86.2221 -38.181C86.2435 -38.293 89.8903 -57.2709 98.8565 -63.9277ZM117.562 -39.4895C117.553 -39.4495 109.286 -0.251243 91.4022 15.2951C73.519 30.8407 33.5544 33.5723 33.5101 33.5753C33.5592 33.5857 72.7502 41.8528 88.2947 59.7347C103.849 77.6279 106.575 117.627 106.575 117.627C106.575 117.627 114.841 78.3965 132.734 62.8422C150.627 47.2879 190.626 44.562 190.626 44.562C190.626 44.562 151.396 36.2957 135.842 18.4026C120.297 0.52017 117.565 -39.4417 117.562 -39.4895Z" fill="white" fill-opacity="0.5"/>
<path fill-rule="evenodd" clip-rule="evenodd" d="M99.1513 -59.3597C116.424 -72.1827 146.205 -30.8972 146.349 -30.6973C146.349 -30.6973 164.62 -38.7773 175.19 -34.6007C193.26 -27.4591 185.305 14.1166 185.305 14.1166C185.418 14.1383 203.487 17.6117 209.826 26.1494C222.648 43.4212 181.368 73.1998 181.163 73.347C181.163 73.347 189.243 91.6184 185.067 102.188C177.925 120.258 136.349 112.303 136.349 112.303C136.328 112.416 132.854 130.485 124.317 136.824C107.046 149.645 77.2708 108.372 77.1189 108.161C77.1189 108.161 58.8476 116.241 48.2778 112.065C30.208 104.923 38.1628 63.3475 38.1628 63.3475C38.0571 63.3272 19.9821 59.8541 13.6421 51.3147C0.820016 34.0433 42.0986 4.2655 42.3046 4.11708C42.3046 4.11708 34.2246 -14.1543 38.4012 -24.724C45.5427 -42.7938 87.1185 -34.8391 87.1185 -34.8391C87.1389 -34.9457 90.6121 -53.0199 99.1513 -59.3597ZM116.966 -36.0853C116.958 -36.0472 109.084 1.28453 92.052 16.0906C75.0203 30.8959 36.9588 33.4974 36.9166 33.5003C36.9634 33.5102 74.2881 41.3836 89.0924 58.414C103.906 75.4551 106.502 113.549 106.502 113.549C106.502 113.549 114.375 76.1871 131.416 61.3735C148.457 46.5599 186.551 43.9638 186.551 43.9638C186.551 43.9638 149.189 36.0912 134.375 19.0501C119.571 2.01921 116.969 -36.0397 116.966 -36.0853Z" fill="url(#paint0_radial_322_27721)"/>
<path fill-rule="evenodd" clip-rule="evenodd" d="M99.1513 -59.3597C116.424 -72.1827 146.205 -30.8972 146.349 -30.6973C146.349 -30.6973 164.62 -38.7773 175.19 -34.6007C193.26 -27.4591 185.305 14.1166 185.305 14.1166C185.418 14.1383 203.487 17.6117 209.826 26.1494C222.648 43.4212 181.368 73.1998 181.163 73.347C181.163 73.347 189.243 91.6184 185.067 102.188C177.925 120.258 136.349 112.303 136.349 112.303C136.328 112.416 132.854 130.485 124.317 136.824C107.046 149.645 77.2708 108.372 77.1189 108.161C77.1189 108.161 58.8476 116.241 48.2778 112.065C30.208 104.923 38.1628 63.3475 38.1628 63.3475C38.0571 63.3272 19.9821 59.8541 13.6421 51.3147C0.820016 34.0433 42.0986 4.2655 42.3046 4.11708C42.3046 4.11708 34.2246 -14.1543 38.4012 -24.724C45.5427 -42.7938 87.1185 -34.8391 87.1185 -34.8391C87.1389 -34.9457 90.6121 -53.0199 99.1513 -59.3597ZM116.966 -36.0853C116.958 -36.0472 109.084 1.28453 92.052 16.0906C75.0203 30.8959 36.9588 33.4974 36.9166 33.5003C36.9634 33.5102 74.2881 41.3836 89.0924 58.414C103.906 75.4551 106.502 113.549 106.502 113.549C106.502 113.549 114.375 76.1871 131.416 61.3735C148.457 46.5599 186.551 43.9638 186.551 43.9638C186.551 43.9638 149.189 36.0912 134.375 19.0501C119.571 2.01921 116.969 -36.0397 116.966 -36.0853Z" fill="white" fill-opacity="0.25"/>
<defs>
<radialGradient id="paint0_radial_322_27721" cx="0" cy="0" r="1" gradientUnits="userSpaceOnUse" gradientTransform="translate(111.734 38.732) rotate(94) scale(100 100)">
<stop offset="0.4375" stop-color="#0FE3EF"/>
<stop offset="1" stop-color="#438BFF"/>
</radialGradient>
</defs>
</svg>
