<svg width="28" height="28" viewBox="0 0 28 28" fill="none" xmlns="http://www.w3.org/2000/svg">
<path d="M19.2501 25.3778C19.2501 25.6099 19.158 25.8324 18.9939 25.9965C18.8298 26.1606 18.6072 26.2528 18.3751 26.2528H9.62514C9.39308 26.2528 9.17052 26.1606 9.00642 25.9965C8.84233 25.8324 8.75014 25.6099 8.75014 25.3778C8.75014 25.1457 8.84233 24.9232 9.00642 24.7591C9.17052 24.595 9.39308 24.5028 9.62514 24.5028H18.3751C18.6072 24.5028 18.8298 24.595 18.9939 24.7591C19.158 24.9232 19.2501 25.1457 19.2501 25.3778ZM23.6251 11.3778C23.6289 12.8365 23.2994 14.2767 22.6617 15.5886C22.0241 16.9005 21.0951 18.0494 19.9458 18.9476C19.7309 19.1124 19.5565 19.324 19.4359 19.5665C19.3153 19.809 19.2518 20.0758 19.2501 20.3465V21.0028C19.2501 21.4669 19.0658 21.912 18.7376 22.2402C18.4094 22.5684 17.9643 22.7528 17.5001 22.7528H10.5001C10.036 22.7528 9.5909 22.5684 9.26271 22.2402C8.93452 21.912 8.75014 21.4669 8.75014 21.0028V20.3465C8.74996 20.079 8.68845 19.8151 8.57032 19.575C8.45219 19.335 8.2806 19.1252 8.06874 18.9619C6.92227 18.069 5.99394 16.927 5.35403 15.6223C4.71411 14.3177 4.37937 12.8845 4.37514 11.4314C4.34671 6.21858 8.55983 1.87748 13.7683 1.75279C15.0516 1.72187 16.3282 1.94798 17.5228 2.41781C18.7175 2.88765 19.8061 3.59172 20.7246 4.48858C21.643 5.38544 22.3728 6.45698 22.871 7.64011C23.3691 8.82324 23.6255 10.0941 23.6251 11.3778ZM21.8751 11.3778C21.8755 10.3274 21.6656 9.28761 21.258 8.31955C20.8504 7.35149 20.2533 6.47475 19.5017 5.74095C18.7502 5.00714 17.8595 4.4311 16.8819 4.04672C15.9044 3.66235 14.8599 3.47741 13.8098 3.50279C9.54421 3.60342 6.10217 7.15483 6.12514 11.4205C6.12914 12.6089 6.40339 13.7809 6.92714 14.8477C7.45089 15.9145 8.21042 16.8483 9.14827 17.5783C9.56985 17.906 9.91085 18.3258 10.1452 18.8057C10.3795 19.2855 10.5009 19.8126 10.5001 20.3465V21.0028H17.5001V20.3465C17.5014 19.811 17.6249 19.2829 17.8612 18.8024C18.0976 18.3219 18.4406 17.9017 18.864 17.5739C19.8048 16.8387 20.5651 15.8983 21.0869 14.8245C21.6088 13.7506 21.8784 12.5717 21.8751 11.3778ZM20.1131 10.3562C19.8862 9.0889 19.2765 7.9215 18.366 7.01121C17.4555 6.10092 16.288 5.49144 15.0206 5.26483C14.9073 5.24572 14.7913 5.24913 14.6793 5.27485C14.5673 5.30057 14.4614 5.3481 14.3678 5.41472C14.2742 5.48135 14.1946 5.56577 14.1335 5.66315C14.0725 5.76054 14.0313 5.869 14.0122 5.98233C13.9931 6.09565 13.9965 6.21163 14.0222 6.32364C14.0479 6.43565 14.0954 6.5415 14.1621 6.63514C14.2287 6.72879 14.3131 6.80839 14.4105 6.8694C14.5079 6.93042 14.6163 6.97166 14.7297 6.99076C16.542 7.29592 18.0798 8.83373 18.3872 10.6494C18.4218 10.8531 18.5275 11.0381 18.6854 11.1714C18.8434 11.3048 19.0434 11.3779 19.2501 11.3778C19.2996 11.3775 19.349 11.3735 19.3978 11.3658C19.6265 11.3267 19.8304 11.1984 19.9645 11.0091C20.0986 10.8198 20.1521 10.585 20.1131 10.3562Z" fill="white"/>
</svg>
