<svg width="64" height="64" viewBox="0 0 64 64" fill="none" xmlns="http://www.w3.org/2000/svg">
<rect x="0.5" y="0.5" width="63" height="63" rx="11.5" fill="#6912C5"/>
<rect x="0.5" y="0.5" width="63" height="63" rx="11.5" stroke="#EDEDED"/>
<path d="M38.0002 45.0032C38.0002 45.2684 37.8948 45.5228 37.7073 45.7103C37.5197 45.8978 37.2654 46.0032 37.0002 46.0032H27.0002C26.7349 46.0032 26.4806 45.8978 26.2931 45.7103C26.1055 45.5228 26.0002 45.2684 26.0002 45.0032C26.0002 44.738 26.1055 44.4836 26.2931 44.2961C26.4806 44.1086 26.7349 44.0032 27.0002 44.0032H37.0002C37.2654 44.0032 37.5197 44.1086 37.7073 44.2961C37.8948 44.4836 38.0002 44.738 38.0002 45.0032ZM43.0002 29.0032C43.0045 30.6702 42.6279 32.3163 41.8991 33.8156C41.1704 35.3149 40.1087 36.6279 38.7952 37.6544C38.5496 37.8427 38.3502 38.0846 38.2125 38.3617C38.0747 38.6388 38.0021 38.9437 38.0002 39.2532V40.0032C38.0002 40.5336 37.7894 41.0423 37.4144 41.4174C37.0393 41.7925 36.5306 42.0032 36.0002 42.0032H28.0002C27.4697 42.0032 26.961 41.7925 26.586 41.4174C26.2109 41.0423 26.0002 40.5336 26.0002 40.0032V39.2532C26 38.9474 25.9297 38.6458 25.7947 38.3715C25.6597 38.0971 25.4635 37.8574 25.2214 37.6707C23.9112 36.6503 22.8502 35.3451 22.1189 33.8541C21.3876 32.363 21.005 30.7252 21.0002 29.0644C20.9677 23.1069 25.7827 18.1457 31.7352 18.0032C33.2018 17.9678 34.6608 18.2263 36.0261 18.7632C37.3914 19.3002 38.6355 20.1048 39.6852 21.1298C40.7349 22.1548 41.5689 23.3794 42.1382 24.7316C42.7075 26.0837 43.0006 27.5361 43.0002 29.0032ZM41.0002 29.0032C41.0005 27.8028 40.7607 26.6144 40.2949 25.5081C39.8291 24.4017 39.1466 23.3997 38.2877 22.5611C37.4288 21.7224 36.4108 21.0641 35.2936 20.6248C34.1765 20.1855 32.9827 19.9742 31.7827 20.0032C26.9077 20.1182 22.9739 24.1769 23.0002 29.0519C23.0047 30.4102 23.3182 31.7496 23.9167 32.9688C24.5153 34.188 25.3833 35.2552 26.4552 36.0894C26.937 36.464 27.3267 36.9438 27.5945 37.4922C27.8623 38.0406 28.001 38.6429 28.0002 39.2532V40.0032H36.0002V39.2532C36.0016 38.6412 36.1427 38.0376 36.4128 37.4884C36.683 36.9393 37.075 36.4591 37.5589 36.0844C38.634 35.2442 39.503 34.1695 40.0994 32.9422C40.6958 31.715 41.0039 30.3677 41.0002 29.0032ZM38.9864 27.8357C38.7271 26.3873 38.0303 25.0531 36.9897 24.0128C35.9492 22.9725 34.6149 22.2759 33.1664 22.0169C33.0369 21.9951 32.9043 21.999 32.7763 22.0284C32.6483 22.0578 32.5274 22.1121 32.4203 22.1883C32.3133 22.2644 32.2223 22.3609 32.1526 22.4722C32.0829 22.5835 32.0357 22.7074 32.0139 22.8369C31.9921 22.9665 31.996 23.099 32.0254 23.227C32.0548 23.355 32.1091 23.476 32.1852 23.583C32.2614 23.69 32.3578 23.781 32.4691 23.8507C32.5804 23.9205 32.7044 23.9676 32.8339 23.9894C34.9052 24.3382 36.6627 26.0957 37.0139 28.1707C37.0535 28.4036 37.1742 28.615 37.3548 28.7674C37.5353 28.9197 37.7639 29.0033 38.0002 29.0032C38.0567 29.0029 38.1131 28.9983 38.1689 28.9894C38.4303 28.9448 38.6633 28.7982 38.8166 28.5818C38.9699 28.3655 39.031 28.0971 38.9864 27.8357Z" fill="white"/>
</svg>
