<svg width="40" height="40" viewBox="0 0 40 40" fill="none" xmlns="http://www.w3.org/2000/svg">
<path d="M29.3495 9.63348C29.3495 12.2809 28.4001 14.5724 26.5273 16.4456C24.6544 18.3185 22.3625 19.2679 19.7151 19.2679H19.7106C17.0665 19.267 14.7762 18.3176 12.9033 16.4456C11.0302 14.5724 10.0811 12.2809 10.0811 9.63348C10.0811 6.987 11.0302 4.69513 12.9033 2.82227C14.7753 0.950012 17.0656 0.000915531 19.7106 0H19.7151C22.3616 0 24.6535 0.949402 26.5273 2.82227C28.4001 4.69513 29.3495 6.987 29.3495 9.63348Z" fill="#FFBB85"/>
<path d="M36.6537 33.1206C36.6537 35.2092 35.9894 36.9002 34.6808 38.1456C33.3875 39.3764 31.6769 39.9999 29.5972 39.9999H10.3369C8.25714 39.9999 6.54663 39.3764 5.25421 38.1456C3.9447 36.8993 3.28125 35.2086 3.28125 33.1206C3.28125 32.3174 3.3078 31.5227 3.3609 30.7585C3.41492 29.9773 3.52417 29.1271 3.6853 28.2302C3.84766 27.3259 4.0564 26.4711 4.30634 25.6899C4.56573 24.8812 4.91669 24.0834 5.35095 23.3193C5.802 22.5261 6.33179 21.8352 6.92566 21.2664C7.54822 20.671 8.30933 20.1927 9.18915 19.8442C10.0659 19.4976 11.0379 19.3218 12.0779 19.3218C12.486 19.3218 12.8812 19.4887 13.6429 19.9849C14.1196 20.2959 14.6689 20.6499 15.2753 21.0375C15.799 21.3713 16.5082 21.6844 17.3849 21.9673C18.1555 22.2167 18.9377 22.3558 19.7104 22.3799C19.7955 22.383 19.8807 22.3845 19.9658 22.3845C20.824 22.3845 21.6919 22.2438 22.5476 21.9673C23.4244 21.6844 24.1345 21.3713 24.6579 21.0375C25.2707 20.6459 25.82 20.2922 26.2897 19.9858C27.052 19.4887 27.4466 19.3218 27.8555 19.3218C28.8947 19.3218 29.8666 19.4976 30.744 19.8442C31.6238 20.1927 32.3849 20.6719 33.0069 21.2664C33.6017 21.8352 34.1315 22.5261 34.5822 23.3193C35.0168 24.084 35.3683 24.8812 35.6268 25.689C35.8771 26.4711 36.0864 27.3259 36.2488 28.2308C36.409 29.1286 36.5186 29.9788 36.5723 30.7579C36.6263 31.5197 36.6528 32.3143 36.6537 33.1206Z" fill="#438BFF"/>
<path d="M19.7145 19.2679H19.71V0H19.7145C22.361 0 24.6529 0.949402 26.5267 2.82227C28.3995 4.69513 29.3489 6.987 29.3489 9.63348C29.3489 12.2809 28.3995 14.5724 26.5267 16.4456C24.6538 18.3185 22.3619 19.2679 19.7145 19.2679Z" fill="#F5A86C"/>
<path d="M36.6533 33.1206C36.6533 35.2092 35.989 36.9002 34.6804 38.1456C33.387 39.3764 31.6765 39.9999 29.5967 39.9999H19.71V22.3799C19.7951 22.383 19.8802 22.3845 19.9654 22.3845C20.8235 22.3845 21.6915 22.2438 22.5472 21.9673C23.424 21.6844 24.1341 21.3713 24.6575 21.0375C25.2703 20.6459 25.8196 20.2922 26.2892 19.9858C27.0516 19.4887 27.4462 19.3218 27.8551 19.3218C28.8942 19.3218 29.8662 19.4976 30.7436 19.8442C31.6234 20.1927 32.3845 20.6719 33.0065 21.2664C33.6013 21.8352 34.131 22.5261 34.5818 23.3193C35.0164 24.084 35.3679 24.8812 35.6264 25.689C35.8766 26.4711 36.086 27.3259 36.2484 28.2308C36.4086 29.1286 36.5181 29.9788 36.5718 30.7579C36.6259 31.5197 36.6524 32.3143 36.6533 33.1206Z" fill="#1B60F5"/>
</svg>
