<svg width="32" height="33" viewBox="0 0 32 33" fill="none" xmlns="http://www.w3.org/2000/svg">
<path d="M16 3.5C13.4288 3.5 10.9154 4.26244 8.77759 5.6909C6.63975 7.11935 4.97351 9.14968 3.98957 11.5251C3.00563 13.9006 2.74819 16.5144 3.2498 19.0362C3.75141 21.5579 4.98953 23.8743 6.80762 25.6924C8.6257 27.5105 10.9421 28.7486 13.4638 29.2502C15.9856 29.7518 18.5995 29.4944 20.9749 28.5104C23.3503 27.5265 25.3807 25.8603 26.8091 23.7224C28.2376 21.5846 29 19.0712 29 16.5C28.9964 13.0533 27.6256 9.74882 25.1884 7.31163C22.7512 4.87445 19.4467 3.50364 16 3.5ZM15.5 9.5C15.7967 9.5 16.0867 9.58797 16.3334 9.7528C16.58 9.91762 16.7723 10.1519 16.8858 10.426C16.9994 10.7001 17.0291 11.0017 16.9712 11.2926C16.9133 11.5836 16.7704 11.8509 16.5607 12.0607C16.3509 12.2704 16.0836 12.4133 15.7926 12.4712C15.5017 12.5291 15.2001 12.4994 14.926 12.3858C14.6519 12.2723 14.4176 12.08 14.2528 11.8334C14.088 11.5867 14 11.2967 14 11C14 10.6022 14.158 10.2206 14.4393 9.93934C14.7206 9.65804 15.1022 9.5 15.5 9.5ZM17 23.5C16.4696 23.5 15.9609 23.2893 15.5858 22.9142C15.2107 22.5391 15 22.0304 15 21.5V16.5C14.7348 16.5 14.4804 16.3946 14.2929 16.2071C14.1054 16.0196 14 15.7652 14 15.5C14 15.2348 14.1054 14.9804 14.2929 14.7929C14.4804 14.6054 14.7348 14.5 15 14.5C15.5304 14.5 16.0391 14.7107 16.4142 15.0858C16.7893 15.4609 17 15.9696 17 16.5V21.5C17.2652 21.5 17.5196 21.6054 17.7071 21.7929C17.8946 21.9804 18 22.2348 18 22.5C18 22.7652 17.8946 23.0196 17.7071 23.2071C17.5196 23.3946 17.2652 23.5 17 23.5Z" fill="#141414"/>
</svg>
