<svg width="25" height="25" viewBox="0 0 25 25" fill="none" xmlns="http://www.w3.org/2000/svg">
<path fill-rule="evenodd" clip-rule="evenodd" d="M16.0703 3.61182H8.07031C5.30889 3.61182 3.07031 5.8504 3.07031 8.61182V16.6118C3.07031 19.3732 5.30889 21.6118 8.07031 21.6118H16.0703C18.8317 21.6118 21.0703 19.3732 21.0703 16.6118V8.61182C21.0703 5.8504 18.8317 3.61182 16.0703 3.61182ZM19.3203 16.6118C19.3148 18.4044 17.8629 19.8563 16.0703 19.8618H8.07031C6.27766 19.8563 4.8258 18.4044 4.82031 16.6118V8.61182C4.8258 6.81917 6.27766 5.36731 8.07031 5.36182H16.0703C17.8629 5.36731 19.3148 6.81917 19.3203 8.61182V16.6118ZM16.8203 8.86182C17.3726 8.86182 17.8203 8.4141 17.8203 7.86182C17.8203 7.30954 17.3726 6.86182 16.8203 6.86182C16.268 6.86182 15.8203 7.30954 15.8203 7.86182C15.8203 8.4141 16.268 8.86182 16.8203 8.86182ZM12.0703 8.11182C9.58503 8.11182 7.57031 10.1265 7.57031 12.6118C7.57031 15.0971 9.58503 17.1118 12.0703 17.1118C14.5556 17.1118 16.5703 15.0971 16.5703 12.6118C16.573 11.4175 16.0997 10.2714 15.2552 9.4269C14.4107 8.58241 13.2646 8.10916 12.0703 8.11182ZM9.32031 12.6118C9.32031 14.1306 10.5515 15.3618 12.0703 15.3618C13.5891 15.3618 14.8203 14.1306 14.8203 12.6118C14.8203 11.093 13.5891 9.86182 12.0703 9.86182C10.5515 9.86182 9.32031 11.093 9.32031 12.6118Z" fill="#438BFF"/>
</svg>
