<svg width="20" height="20" viewBox="0 0 20 20" fill="none" xmlns="http://www.w3.org/2000/svg">
<path d="M15.7727 4.27031C15.025 3.51514 14.1357 2.91486 13.1558 2.50383C12.1758 2.09281 11.1244 1.87912 10.0617 1.875H10C7.84512 1.875 5.77849 2.73102 4.25476 4.25476C2.73102 5.77849 1.875 7.84512 1.875 10V14.375C1.875 14.8723 2.07254 15.3492 2.42417 15.7008C2.77581 16.0525 3.25272 16.25 3.75 16.25H5C5.49728 16.25 5.9742 16.0525 6.32583 15.7008C6.67746 15.3492 6.875 14.8723 6.875 14.375V11.25C6.875 10.7527 6.67746 10.2758 6.32583 9.92417C5.9742 9.57254 5.49728 9.375 5 9.375H3.15313C3.30905 7.66688 4.09785 6.07873 5.36466 4.92236C6.63147 3.76599 8.28478 3.12491 10 3.125H10.0523C11.7604 3.13222 13.4042 3.77711 14.6616 4.93327C15.9189 6.08944 16.6991 7.67351 16.8492 9.375H15C14.5027 9.375 14.0258 9.57254 13.6742 9.92417C13.3225 10.2758 13.125 10.7527 13.125 11.25V14.375C13.125 14.8723 13.3225 15.3492 13.6742 15.7008C14.0258 16.0525 14.5027 16.25 15 16.25H16.25C16.7473 16.25 17.2242 16.0525 17.5758 15.7008C17.9275 15.3492 18.125 14.8723 18.125 14.375V10C18.1291 8.93717 17.9234 7.88398 17.5197 6.90077C17.1161 5.91757 16.5224 5.02368 15.7727 4.27031ZM5 10.625C5.16576 10.625 5.32473 10.6908 5.44194 10.8081C5.55915 10.9253 5.625 11.0842 5.625 11.25V14.375C5.625 14.5408 5.55915 14.6997 5.44194 14.8169C5.32473 14.9342 5.16576 15 5 15H3.75C3.58424 15 3.42527 14.9342 3.30806 14.8169C3.19085 14.6997 3.125 14.5408 3.125 14.375V10.625H5ZM16.875 14.375C16.875 14.5408 16.8092 14.6997 16.6919 14.8169C16.5747 14.9342 16.4158 15 16.25 15H15C14.8342 15 14.6753 14.9342 14.5581 14.8169C14.4408 14.6997 14.375 14.5408 14.375 14.375V11.25C14.375 11.0842 14.4408 10.9253 14.5581 10.8081C14.6753 10.6908 14.8342 10.625 15 10.625H16.875V14.375Z" fill="black"/>
</svg>
