<svg width="20" height="20" viewBox="0 0 20 20" fill="none" xmlns="http://www.w3.org/2000/svg">
<path d="M17.3334 6.49963C18.2006 8.31354 18.3653 10.3844 17.7955 12.3126C17.2257 14.2407 15.9619 15.8895 14.248 16.9406C12.5341 17.9918 10.4915 18.3708 8.51459 18.0045C6.53765 17.6383 4.76645 16.5527 3.54283 14.9573C2.31921 13.362 1.72992 11.3699 1.88869 9.36559C2.04746 7.36128 2.94304 5.48683 4.40257 4.104C5.8621 2.72118 7.78213 1.928 9.79208 1.87756C11.802 1.82712 13.7594 2.523 15.2865 3.83088L17.0576 2.059C17.1749 1.94173 17.3339 1.87584 17.4998 1.87584C17.6656 1.87584 17.8247 1.94173 17.942 2.059C18.0592 2.17628 18.1251 2.33534 18.1251 2.50119C18.1251 2.66704 18.0592 2.8261 17.942 2.94338L10.442 10.4434C10.3247 10.5607 10.1656 10.6265 9.99976 10.6265C9.83391 10.6265 9.67485 10.5607 9.55758 10.4434C9.4403 10.3261 9.37442 10.167 9.37442 10.0012C9.37442 9.83534 9.4403 9.67628 9.55758 9.559L11.7232 7.39338C11.1363 7.00522 10.4356 6.8265 9.73443 6.88615C9.0333 6.9458 8.37283 7.24033 7.85993 7.72207C7.34703 8.2038 7.01172 8.84454 6.90829 9.54055C6.80486 10.2366 6.93936 10.9471 7.29001 11.5572C7.64066 12.1672 8.18695 12.6411 8.84043 12.9021C9.49391 13.163 10.2163 13.1958 10.8908 12.9951C11.5652 12.7943 12.1521 12.3719 12.5566 11.7961C12.961 11.2203 13.1593 10.5248 13.1193 9.82228C13.1147 9.74021 13.1263 9.65803 13.1534 9.58043C13.1806 9.50284 13.2227 9.43135 13.2775 9.37005C13.3323 9.30874 13.3986 9.25883 13.4726 9.22316C13.5467 9.18748 13.6271 9.16674 13.7091 9.16213C13.8749 9.1528 14.0376 9.20971 14.1614 9.32033C14.2227 9.3751 14.2726 9.44141 14.3083 9.51547C14.3439 9.58953 14.3647 9.6699 14.3693 9.75197C14.4263 10.7463 14.1423 11.7304 13.5642 12.5414C12.9862 13.3525 12.1487 13.9421 11.1901 14.2127C10.2316 14.4833 9.20944 14.4187 8.29257 14.0297C7.3757 13.6407 6.61902 12.9504 6.14759 12.0731C5.67616 11.1957 5.5182 10.1838 5.69981 9.20449C5.88143 8.2252 6.39175 7.33719 7.14643 6.68723C7.90112 6.03727 8.85498 5.66426 9.85038 5.62987C10.8458 5.59547 11.8231 5.90175 12.6209 6.49806L14.3982 4.72072C13.0957 3.63931 11.4396 3.07725 9.74793 3.1425C8.05628 3.20774 6.44837 3.89569 5.23304 5.07421C4.0177 6.25273 3.28063 7.83872 3.16339 9.52757C3.04615 11.2164 3.55702 12.889 4.59786 14.2242C5.6387 15.5593 7.13613 16.4628 8.80254 16.7612C10.469 17.0595 12.1868 16.7317 13.6263 15.8406C15.0657 14.9496 16.1252 13.5581 16.6012 11.9335C17.0772 10.3089 16.9362 8.56567 16.2052 7.03869C16.1337 6.88909 16.1246 6.71722 16.1799 6.56089C16.2351 6.40456 16.3502 6.27658 16.4998 6.2051C16.6494 6.13361 16.8212 6.12448 16.9776 6.17972C17.1339 6.23495 17.2619 6.35003 17.3334 6.49963Z" fill="black"/>
</svg>
