<svg width="20" height="20" viewBox="0 0 20 20" fill="none" xmlns="http://www.w3.org/2000/svg">
<path d="M18.5312 11.8676C18.4791 11.7219 18.4177 11.5797 18.3477 11.4418L15.0984 4.04962C15.0677 3.97843 15.0237 3.91373 14.9688 3.859C14.7366 3.62679 14.461 3.44259 14.1576 3.31692C13.8543 3.19125 13.5291 3.12656 13.2008 3.12656C12.8724 3.12656 12.5473 3.19125 12.2439 3.31692C11.9406 3.44259 11.665 3.62679 11.4328 3.859C11.316 3.97593 11.2503 4.13435 11.25 4.29962V6.25275H8.75V4.29962C8.75007 4.21752 8.73395 4.13621 8.70259 4.06034C8.67122 3.98447 8.62521 3.91552 8.56719 3.85743C8.33503 3.62523 8.05941 3.44103 7.75606 3.31536C7.45271 3.18968 7.12757 3.125 6.79922 3.125C6.47087 3.125 6.14573 3.18968 5.84238 3.31536C5.53903 3.44103 5.2634 3.62523 5.03125 3.85743C4.97631 3.91217 4.9323 3.97686 4.90156 4.04806L1.65234 11.4402C1.58226 11.5782 1.52094 11.7204 1.46875 11.866C1.28477 12.3808 1.21556 12.9296 1.26599 13.474C1.31641 14.0183 1.48524 14.5451 1.76066 15.0173C2.03608 15.4895 2.41141 15.8959 2.86038 16.2078C3.30934 16.5197 3.82107 16.7297 4.35973 16.823C4.89839 16.9164 5.45094 16.8908 5.97867 16.7481C6.50641 16.6054 6.99657 16.3491 7.41482 15.9971C7.83307 15.645 8.16929 15.2058 8.39993 14.7102C8.63057 14.2145 8.75005 13.6744 8.75 13.1277V7.50275H11.25V13.1277C11.2497 13.6745 11.369 14.2147 11.5995 14.7105C11.83 15.2063 12.1661 15.6457 12.5843 15.9979C13.0025 16.3501 13.4926 16.6066 14.0204 16.7494C14.5481 16.8923 15.1008 16.918 15.6395 16.8247C16.1782 16.7315 16.6901 16.5216 17.1391 16.2097C17.5882 15.8978 17.9636 15.4915 18.2391 15.0192C18.5146 14.5469 18.6835 14.0201 18.734 13.4757C18.7845 12.9313 18.7153 12.3824 18.5312 11.8676ZM5.99297 4.67072C6.20134 4.49527 6.46133 4.39268 6.73337 4.37858C7.0054 4.36448 7.2746 4.43963 7.5 4.59259V10.3356C7.01203 9.8974 6.41748 9.59516 5.77592 9.45915C5.13436 9.32313 4.46832 9.3581 3.84453 9.56056L5.99297 4.67072ZM5 15.6277C4.50555 15.6277 4.0222 15.4811 3.61107 15.2064C3.19995 14.9317 2.87952 14.5413 2.6903 14.0845C2.50108 13.6276 2.45157 13.125 2.54804 12.64C2.6445 12.1551 2.8826 11.7096 3.23223 11.36C3.58186 11.0104 4.02732 10.7722 4.51227 10.6758C4.99723 10.5793 5.49989 10.6288 5.95671 10.818C6.41352 11.0073 6.80397 11.3277 7.07867 11.7388C7.35338 12.1499 7.5 12.6333 7.5 13.1277C7.5 13.7908 7.23661 14.4267 6.76777 14.8955C6.29893 15.3644 5.66304 15.6277 5 15.6277ZM12.5 4.59181C12.7254 4.43885 12.9946 4.3637 13.2666 4.3778C13.5387 4.3919 13.7987 4.49448 14.007 4.66994L16.1555 9.559C15.5316 9.35664 14.8655 9.32179 14.224 9.45795C13.5824 9.59411 12.9879 9.89648 12.5 10.3348V4.59181ZM15 15.6277C14.5055 15.6277 14.0222 15.4811 13.6111 15.2064C13.2 14.9317 12.8795 14.5413 12.6903 14.0845C12.5011 13.6276 12.4516 13.125 12.548 12.64C12.6445 12.1551 12.8826 11.7096 13.2322 11.36C13.5819 11.0104 14.0273 10.7722 14.5123 10.6758C14.9972 10.5793 15.4999 10.6288 15.9567 10.818C16.4135 11.0073 16.804 11.3277 17.0787 11.7388C17.3534 12.1499 17.5 12.6333 17.5 13.1277C17.5 13.7908 17.2366 14.4267 16.7678 14.8955C16.2989 15.3644 15.663 15.6277 15 15.6277Z" fill="black"/>
</svg>
