<svg width="20" height="20" viewBox="0 0 20 20" fill="none" xmlns="http://www.w3.org/2000/svg">
<path d="M10 1.875C8.39303 1.875 6.82214 2.35152 5.486 3.24431C4.14985 4.1371 3.10844 5.40605 2.49348 6.8907C1.87852 8.37535 1.71762 10.009 2.03112 11.5851C2.34463 13.1612 3.11846 14.6089 4.25476 15.7452C5.39106 16.8815 6.8388 17.6554 8.4149 17.9689C9.99099 18.2824 11.6247 18.1215 13.1093 17.5065C14.594 16.8916 15.8629 15.8502 16.7557 14.514C17.6485 13.1779 18.125 11.607 18.125 10C18.1227 7.84581 17.266 5.78051 15.7427 4.25727C14.2195 2.73403 12.1542 1.87727 10 1.875ZM10 16.875C8.64026 16.875 7.31105 16.4718 6.18046 15.7164C5.04987 14.9609 4.16868 13.8872 3.64833 12.6309C3.12798 11.3747 2.99183 9.99237 3.2571 8.65875C3.52238 7.32513 4.17716 6.10013 5.13864 5.13864C6.10013 4.17716 7.32514 3.52237 8.65876 3.2571C9.99238 2.99183 11.3747 3.12798 12.631 3.64833C13.8872 4.16868 14.9609 5.04987 15.7164 6.18045C16.4718 7.31104 16.875 8.64025 16.875 10C16.8729 11.8227 16.1479 13.5702 14.8591 14.8591C13.5702 16.1479 11.8227 16.8729 10 16.875ZM13.7688 9.47031L8.76875 6.34531C8.67417 6.2862 8.56549 6.25347 8.45399 6.25053C8.34249 6.24759 8.23223 6.27454 8.13466 6.32858C8.03709 6.38263 7.95576 6.4618 7.89911 6.55789C7.84246 6.65397 7.81256 6.76346 7.8125 6.875V13.125C7.81256 13.2365 7.84246 13.346 7.89911 13.4421C7.95576 13.5382 8.03709 13.6174 8.13466 13.6714C8.23223 13.7255 8.34249 13.7524 8.45399 13.7495C8.56549 13.7465 8.67417 13.7138 8.76875 13.6547L13.7688 10.5297C13.8585 10.4735 13.9325 10.3954 13.9838 10.3027C14.0351 10.2101 14.062 10.1059 14.062 10C14.062 9.8941 14.0351 9.78993 13.9838 9.69728C13.9325 9.60462 13.8585 9.52653 13.7688 9.47031ZM9.0625 11.9977V8.00234L12.2586 10L9.0625 11.9977Z" fill="black"/>
</svg>
