<svg width="169" height="166" viewBox="0 0 169 166" fill="none" xmlns="http://www.w3.org/2000/svg">
<path fill-rule="evenodd" clip-rule="evenodd" d="M98.8565 9.07226C116.993 -4.39182 148.263 38.9579 148.414 39.1678C148.414 39.1678 167.599 30.6839 178.697 35.0693C197.67 42.5679 189.318 86.2225 189.318 86.2225C189.436 86.2452 208.409 89.8923 215.065 98.8569C228.528 116.992 185.184 148.26 184.969 148.414C184.969 148.414 193.453 167.599 189.068 178.698C181.569 197.671 137.914 189.318 137.914 189.318C137.892 189.437 134.245 208.409 125.28 215.065C107.146 228.527 75.882 185.191 75.7225 184.969C75.7225 184.969 56.5376 193.453 45.4394 189.068C26.4661 181.569 34.8186 137.915 34.8186 137.915C34.7076 137.894 15.7289 134.247 9.07187 125.28C-4.39133 107.145 38.9512 75.8788 39.1675 75.7229C39.1675 75.7229 30.6835 56.538 35.0689 45.4398C42.5675 26.4665 86.2221 34.819 86.2221 34.819C86.2435 34.707 89.8903 15.7291 98.8565 9.07226ZM117.562 33.5105C117.553 33.5505 109.286 72.7488 91.4022 88.2951C73.519 103.841 33.5544 106.572 33.5101 106.575C33.5592 106.586 72.7502 114.853 88.2947 132.735C103.849 150.628 106.575 190.627 106.575 190.627C106.575 190.627 114.841 151.396 132.734 135.842C150.627 120.288 190.626 117.562 190.626 117.562C190.626 117.562 151.396 109.296 135.842 91.4026C120.297 73.5202 117.565 33.5583 117.562 33.5105Z" fill="#438BFF" fill-opacity="0.5"/>
<path fill-rule="evenodd" clip-rule="evenodd" d="M99.1513 13.6403C116.424 0.817313 146.205 42.1028 146.349 42.3027C146.349 42.3027 164.62 34.2227 175.19 38.3993C193.26 45.5409 185.305 87.1166 185.305 87.1166C185.418 87.1383 203.487 90.6117 209.826 99.1494C222.648 116.421 181.368 146.2 181.163 146.347C181.163 146.347 189.243 164.618 185.067 175.188C177.925 193.258 136.349 185.303 136.349 185.303C136.328 185.416 132.854 203.485 124.317 209.824C107.046 222.645 77.2708 181.372 77.1189 181.161C77.1189 181.161 58.8476 189.241 48.2778 185.065C30.208 177.923 38.1628 136.347 38.1628 136.347C38.0571 136.327 19.9821 132.854 13.6421 124.315C0.820016 107.043 42.0986 77.2655 42.3046 77.1171C42.3046 77.1171 34.2246 58.8457 38.4012 48.276C45.5427 30.2062 87.1185 38.1609 87.1185 38.1609C87.1389 38.0543 90.6121 19.9801 99.1513 13.6403ZM116.966 36.9147C116.958 36.9528 109.084 74.2845 92.052 89.0906C75.0203 103.896 36.9588 106.497 36.9166 106.5C36.9634 106.51 74.2881 114.384 89.0924 131.414C103.906 148.455 106.502 186.549 106.502 186.549C106.502 186.549 114.375 149.187 131.416 134.374C148.457 119.56 186.551 116.964 186.551 116.964C186.551 116.964 149.189 109.091 134.375 92.0501C119.571 75.0192 116.969 36.9603 116.966 36.9147Z" fill="url(#paint0_radial_322_27689)"/>
<path fill-rule="evenodd" clip-rule="evenodd" d="M99.1513 13.6403C116.424 0.817313 146.205 42.1028 146.349 42.3027C146.349 42.3027 164.62 34.2227 175.19 38.3993C193.26 45.5409 185.305 87.1166 185.305 87.1166C185.418 87.1383 203.487 90.6117 209.826 99.1494C222.648 116.421 181.368 146.2 181.163 146.347C181.163 146.347 189.243 164.618 185.067 175.188C177.925 193.258 136.349 185.303 136.349 185.303C136.328 185.416 132.854 203.485 124.317 209.824C107.046 222.645 77.2708 181.372 77.1189 181.161C77.1189 181.161 58.8476 189.241 48.2778 185.065C30.208 177.923 38.1628 136.347 38.1628 136.347C38.0571 136.327 19.9821 132.854 13.6421 124.315C0.820016 107.043 42.0986 77.2655 42.3046 77.1171C42.3046 77.1171 34.2246 58.8457 38.4012 48.276C45.5427 30.2062 87.1185 38.1609 87.1185 38.1609C87.1389 38.0543 90.6121 19.9801 99.1513 13.6403ZM116.966 36.9147C116.958 36.9528 109.084 74.2845 92.052 89.0906C75.0203 103.896 36.9588 106.497 36.9166 106.5C36.9634 106.51 74.2881 114.384 89.0924 131.414C103.906 148.455 106.502 186.549 106.502 186.549C106.502 186.549 114.375 149.187 131.416 134.374C148.457 119.56 186.551 116.964 186.551 116.964C186.551 116.964 149.189 109.091 134.375 92.0501C119.571 75.0192 116.969 36.9603 116.966 36.9147Z" fill="#E7FEFF"/>
<defs>
<radialGradient id="paint0_radial_322_27689" cx="0" cy="0" r="1" gradientUnits="userSpaceOnUse" gradientTransform="translate(111.734 111.732) rotate(94) scale(100 100)">
<stop offset="0.4375" stop-color="#0FE3EF"/>
<stop offset="1" stop-color="#438BFF"/>
</radialGradient>
</defs>
</svg>
