<svg width="25" height="25" viewBox="0 0 25 25" fill="none" xmlns="http://www.w3.org/2000/svg">
<path d="M23.2505 9.14048C23.2129 10.4461 22.6761 11.6876 21.7505 12.6092L18.4927 15.8689C18.0182 16.346 17.4538 16.7242 16.8322 16.9817C16.2106 17.2392 15.544 17.3708 14.8712 17.3689H14.8665C14.1821 17.3684 13.5048 17.2308 12.8746 16.9642C12.2443 16.6975 11.6739 16.3073 11.197 15.8165C10.7201 15.3257 10.3464 14.7443 10.0979 14.1066C9.84949 13.469 9.73137 12.788 9.75053 12.1039C9.75613 11.905 9.84051 11.7165 9.98512 11.5798C10.1297 11.4431 10.3227 11.3694 10.5216 11.375C10.7205 11.3806 10.9091 11.465 11.0458 11.6096C11.1825 11.7542 11.2561 11.9472 11.2505 12.1461C11.2369 12.6298 11.3203 13.1113 11.4959 13.5622C11.6715 14.0131 11.9357 14.4242 12.2729 14.7712C12.61 15.1183 13.0134 15.3942 13.459 15.5828C13.9046 15.7713 14.3835 15.8686 14.8674 15.8689C15.3431 15.8701 15.8142 15.7771 16.2537 15.5951C16.6932 15.4131 17.0922 15.1458 17.4277 14.8086L20.6855 11.5508C21.3577 10.8702 21.7333 9.95127 21.7303 8.9947C21.7273 8.03814 21.346 7.1216 20.6696 6.44521C19.9932 5.76881 19.0766 5.38749 18.1201 5.38449C17.1635 5.3815 16.2446 5.75708 15.564 6.42923L14.5327 7.46048C14.3909 7.59519 14.2021 7.66919 14.0065 7.66668C13.811 7.66418 13.6241 7.58538 13.4858 7.44708C13.3475 7.30877 13.2687 7.12192 13.2662 6.92635C13.2637 6.73078 13.3377 6.54196 13.4724 6.40017L14.5037 5.36892C14.9794 4.89298 15.5443 4.51543 16.166 4.25784C16.7878 4.00026 17.4541 3.86768 18.1271 3.86768C18.8001 3.86768 19.4664 4.00026 20.0882 4.25784C20.7099 4.51543 21.2748 4.89298 21.7505 5.36892C22.2433 5.86294 22.6305 6.45207 22.8883 7.10047C23.1462 7.74886 23.2694 8.44295 23.2505 9.14048ZM10.9693 18.2745L9.93803 19.3058C9.60168 19.6444 9.20138 19.9127 8.76039 20.0952C8.31941 20.2778 7.84654 20.3708 7.36928 20.3689C6.65332 20.3683 5.95359 20.1556 5.3585 19.7575C4.76342 19.3594 4.29968 18.7938 4.02589 18.1323C3.7521 17.4707 3.68054 16.7429 3.82026 16.0406C3.95997 15.3384 4.30468 14.6934 4.81085 14.187L8.06303 10.9292C8.57527 10.4143 9.23051 10.0653 9.94365 9.9275C10.6568 9.78973 11.3949 9.86957 12.0621 10.1567C12.7292 10.4438 13.2947 10.9248 13.685 11.5374C14.0752 12.15 14.2723 12.8657 14.2505 13.5917C14.2449 13.7906 14.3186 13.9836 14.4553 14.1282C14.592 14.2728 14.7805 14.3572 14.9794 14.3628C15.1784 14.3684 15.3713 14.2948 15.5159 14.1581C15.6606 14.0214 15.7449 13.8328 15.7505 13.6339C15.7685 12.9375 15.6449 12.2446 15.387 11.5974C15.1292 10.9502 14.7425 10.3622 14.2505 9.86892C13.2898 8.90857 11.9869 8.36908 10.6285 8.36908C9.27007 8.36908 7.96724 8.90857 7.00647 9.86892L3.75054 13.1267C3.0345 13.8425 2.54671 14.7544 2.34879 15.7473C2.15088 16.7402 2.25174 17.7695 2.63861 18.705C3.02549 19.6406 3.68102 20.4405 4.52237 21.0037C5.36372 21.5668 6.35312 21.8679 7.36553 21.8689C8.03854 21.8709 8.70524 21.7393 9.32705 21.4818C9.94885 21.2243 10.5134 20.8461 10.988 20.3689L12.0193 19.3377C12.1407 19.1947 12.2041 19.0115 12.197 18.824C12.19 18.6366 12.1129 18.4587 11.9812 18.3252C11.8494 18.1918 11.6724 18.1126 11.4851 18.1032C11.2978 18.0938 11.1137 18.155 10.9693 18.2745Z" fill="white"/>
</svg>
