<svg width="25" height="25" viewBox="0 0 25 25" fill="none" xmlns="http://www.w3.org/2000/svg">
<path fill-rule="evenodd" clip-rule="evenodd" d="M5.42578 3.61182C4.59735 3.61182 3.92578 4.28339 3.92578 5.11182V20.1118C3.92578 20.9402 4.59735 21.6118 5.42578 21.6118H20.4258C21.2542 21.6118 21.9258 20.9402 21.9258 20.1118V5.11182C21.9258 4.28339 21.2542 3.61182 20.4258 3.61182H5.42578ZM9.44654 7.61454C9.45217 8.57079 8.73639 9.16001 7.88701 9.15579C7.08685 9.15157 6.38935 8.51454 6.39357 7.61595C6.39779 6.77079 7.06576 6.09157 7.93342 6.11126C8.81373 6.13095 9.45217 6.77642 9.44654 7.61454ZM13.2055 10.3736H10.6855H10.6841V18.9334H13.3475V18.7337C13.3475 18.3538 13.3472 17.9738 13.3469 17.5937C13.3461 16.5799 13.3452 15.565 13.3504 14.5515C13.3518 14.3054 13.363 14.0495 13.4263 13.8146C13.6639 12.9371 14.4529 12.3704 15.3332 12.5097C15.8985 12.5982 16.2725 12.9259 16.43 13.4589C16.5271 13.7921 16.5707 14.1507 16.5749 14.4981C16.5863 15.5457 16.5847 16.5933 16.5831 17.641C16.5825 18.0108 16.5819 18.3808 16.5819 18.7506V18.932H19.2538V18.7267C19.2538 18.2747 19.2536 17.8228 19.2533 17.3709C19.2528 16.2414 19.2522 15.1119 19.2552 13.982C19.2566 13.4715 19.2018 12.9681 19.0766 12.4745C18.8896 11.7404 18.5029 11.1329 17.8743 10.6942C17.4285 10.382 16.9391 10.1809 16.3921 10.1584C16.3298 10.1558 16.267 10.1524 16.2039 10.149C15.9242 10.1339 15.6399 10.1185 15.3725 10.1725C14.6075 10.3258 13.9354 10.6759 13.4277 11.2932C13.3687 11.364 13.311 11.4359 13.2249 11.5432L13.2055 11.5675V10.3736ZM6.60742 18.9362H9.2582V10.3791H6.60742V18.9362Z" fill="#438BFF"/>
</svg>
