<svg width="24" height="25" viewBox="0 0 24 25" fill="none" xmlns="http://www.w3.org/2000/svg">
<path d="M21 12.5C21 12.6989 20.921 12.8897 20.7803 13.0303C20.6397 13.171 20.4489 13.25 20.25 13.25H3.75C3.55109 13.25 3.36032 13.171 3.21967 13.0303C3.07902 12.8897 3 12.6989 3 12.5C3 12.3011 3.07902 12.1103 3.21967 11.9697C3.36032 11.829 3.55109 11.75 3.75 11.75H20.25C20.4489 11.75 20.6397 11.829 20.7803 11.9697C20.921 12.1103 21 12.3011 21 12.5ZM3.75 7.25H20.25C20.4489 7.25 20.6397 7.17098 20.7803 7.03033C20.921 6.88968 21 6.69891 21 6.5C21 6.30109 20.921 6.11032 20.7803 5.96967C20.6397 5.82902 20.4489 5.75 20.25 5.75H3.75C3.55109 5.75 3.36032 5.82902 3.21967 5.96967C3.07902 6.11032 3 6.30109 3 6.5C3 6.69891 3.07902 6.88968 3.21967 7.03033C3.36032 7.17098 3.55109 7.25 3.75 7.25ZM20.25 17.75H3.75C3.55109 17.75 3.36032 17.829 3.21967 17.9697C3.07902 18.1103 3 18.3011 3 18.5C3 18.6989 3.07902 18.8897 3.21967 19.0303C3.36032 19.171 3.55109 19.25 3.75 19.25H20.25C20.4489 19.25 20.6397 19.171 20.7803 19.0303C20.921 18.8897 21 18.6989 21 18.5C21 18.3011 20.921 18.1103 20.7803 17.9697C20.6397 17.829 20.4489 17.75 20.25 17.75Z" fill="#121212"/>
</svg>
