<svg width="20" height="21" viewBox="0 0 20 21" fill="none" xmlns="http://www.w3.org/2000/svg">
<path d="M10 9.25C9.47469 9.25018 8.96698 9.43939 8.56967 9.78305C8.17237 10.1267 7.912 10.6019 7.83616 11.1217C7.76031 11.6415 7.87406 12.1712 8.15661 12.6141C8.43916 13.0569 8.87164 13.3833 9.375 13.5336V14.875C9.375 15.0408 9.44085 15.1997 9.55806 15.3169C9.67527 15.4342 9.83424 15.5 10 15.5C10.1658 15.5 10.3247 15.4342 10.4419 15.3169C10.5592 15.1997 10.625 15.0408 10.625 14.875V13.5336C11.1284 13.3833 11.5608 13.0569 11.8434 12.6141C12.1259 12.1712 12.2397 11.6415 12.1638 11.1217C12.088 10.6019 11.8276 10.1267 11.4303 9.78305C11.033 9.43939 10.5253 9.25018 10 9.25ZM10 12.375C9.81458 12.375 9.63332 12.32 9.47915 12.217C9.32498 12.114 9.20482 11.9676 9.13386 11.7963C9.06291 11.625 9.04434 11.4365 9.08051 11.2546C9.11669 11.0727 9.20598 10.9057 9.33709 10.7746C9.4682 10.6435 9.63525 10.5542 9.8171 10.518C9.99896 10.4818 10.1875 10.5004 10.3588 10.5714C10.5301 10.6423 10.6765 10.7625 10.7795 10.9167C10.8825 11.0708 10.9375 11.2521 10.9375 11.4375C10.9375 11.6861 10.8387 11.9246 10.6629 12.1004C10.4871 12.2762 10.2486 12.375 10 12.375ZM16.25 6.75H13.75V4.875C13.75 3.88044 13.3549 2.92661 12.6517 2.22335C11.9484 1.52009 10.9946 1.125 10 1.125C9.00544 1.125 8.05161 1.52009 7.34835 2.22335C6.64509 2.92661 6.25 3.88044 6.25 4.875V6.75H3.75C3.41848 6.75 3.10054 6.8817 2.86612 7.11612C2.6317 7.35054 2.5 7.66848 2.5 8V16.75C2.5 17.0815 2.6317 17.3995 2.86612 17.6339C3.10054 17.8683 3.41848 18 3.75 18H16.25C16.5815 18 16.8995 17.8683 17.1339 17.6339C17.3683 17.3995 17.5 17.0815 17.5 16.75V8C17.5 7.66848 17.3683 7.35054 17.1339 7.11612C16.8995 6.8817 16.5815 6.75 16.25 6.75ZM7.5 4.875C7.5 4.21196 7.76339 3.57607 8.23223 3.10723C8.70107 2.63839 9.33696 2.375 10 2.375C10.663 2.375 11.2989 2.63839 11.7678 3.10723C12.2366 3.57607 12.5 4.21196 12.5 4.875V6.75H7.5V4.875ZM16.25 16.75H3.75V8H16.25V16.75Z" fill="red"/>
</svg>
