<svg width="40" height="40" viewBox="0 0 40 40" fill="none" xmlns="http://www.w3.org/2000/svg">
<g clip-path="url(#clip0_1648_2009)">
<path d="M19.9999 22.3442H15.3125V29.3754L17.2564 31.7191H19.9999H22.7434L24.6873 29.3754V22.3442H19.9999Z" fill="#1B60F5"/>
<path d="M24.6874 29.3754V22.3442H20V31.7191H22.7435L24.6874 29.3754Z" fill="#BCDBFF"/>
<path d="M19.9999 29.375H15.3125V32.8906C16.3091 34.243 18.0099 35.2343 19.9999 35.2343C21.897 35.2343 23.6196 34.2906 24.6873 32.8671V29.375H19.9999Z" fill="#BCDBFF"/>
<path d="M24.6874 32.8671V29.375H20V35.2343C21.8972 35.2343 23.6197 34.2905 24.6874 32.8671Z" fill="#438BFF"/>
<path d="M38.6511 12.4631L39.9397 8.57214C40.0745 8.16527 39.9779 7.69856 39.6755 7.39482C38.0576 5.76993 36.2402 5.01689 34.4211 5.18814C30.7511 5.51313 28.0286 9.42126 26.5661 11.5211C26.3819 11.7843 26.2239 12.0132 26.0912 12.1918C25.8268 12.5465 25.7844 13.0192 25.9824 13.4151C26.4599 14.3702 26.364 14.2564 26.8647 15.2579C27.2069 15.9686 27.1451 16.7867 26.6954 17.502C26.1804 18.3203 25.2763 18.8284 24.3356 18.8284H23.5151V12.6416C24.7774 11.5052 25.6094 9.79203 25.8108 7.91988C28.6328 6.90483 30.5462 4.22582 30.5462 1.17259C30.5462 0.698853 30.2613 0.270814 29.823 0.0900366C29.3835 -0.0930848 28.88 0.00878827 28.5458 0.344094C27.4014 1.48845 25.9205 2.17742 24.3276 2.31702C23.2175 0.836194 21.6085 0.0957396 19.9996 0.0957396C18.3906 0.0957396 16.7816 0.836194 15.6715 2.31702C14.0785 2.17742 12.5977 1.48852 11.4533 0.344094C11.1192 0.00996011 10.6179 -0.0919129 10.1762 0.0900366C9.73788 0.270814 9.45288 0.698853 9.45288 1.17259C9.45288 4.18808 11.3194 6.83842 14.1872 7.90848C14.3864 9.78524 15.2195 11.503 16.484 12.6417V18.8285H15.6635C14.7228 18.8285 13.8187 18.3204 13.3037 17.5021C12.854 16.7869 12.7922 15.9686 13.1344 15.2579C13.233 15.0529 13.9237 13.5995 14.0169 13.4145C14.2144 13.0188 14.1722 12.5464 13.908 12.1918C13.7753 12.0133 13.6173 11.7844 13.4331 11.5212C11.9706 9.42126 9.24812 5.51321 5.57804 5.18822C3.76807 5.01932 1.93991 5.77016 0.322907 7.39575C0.0209601 7.69926 -0.0750537 8.16582 0.0595531 8.57221L1.35156 12.4735C1.81077 13.8168 1.49429 15.3818 0.601417 16.4849L2.34373 17.6567L0.635714 18.8286L2.01467 20.426C3.50238 22.1491 3.36019 24.4761 2.44326 26.5596C2.24615 27.0072 2.34787 27.5321 2.70075 27.8738C3.06582 28.2263 3.61284 28.3075 4.05916 28.0695C4.29392 27.9779 7.34816 26.173 11.7967 25.8963V34.5262C10.3391 35.444 9.45085 37.1075 9.45296 38.8347C9.45382 39.4758 9.98366 40.0001 10.6248 40.0001H15.3122C15.9594 40.0001 16.4841 39.4754 16.4841 38.8283V27.0316C16.4841 25.09 18.058 23.5161 19.9996 23.5161C21.9412 23.5161 23.5152 25.09 23.5152 27.0316V38.8283C23.5152 39.4754 24.0399 40.0001 24.687 40.0001H29.3744C30.0149 40.0001 30.5451 39.4772 30.5463 38.8365C30.5492 37.126 29.6779 35.4765 28.2026 34.5319V25.8962C32.6508 26.173 35.7057 27.978 35.9401 28.0694C36.3887 28.3075 36.9357 28.2262 37.2985 27.8737C37.6514 27.532 37.753 27.0072 37.5562 26.5598C36.6395 24.4759 36.4976 22.1489 37.9851 20.4257L39.3637 18.8285L37.6555 17.6566L39.3978 16.4848C38.505 15.3818 38.1885 13.8168 38.6477 12.4734C38.6489 12.47 38.65 12.4665 38.6511 12.4631Z" fill="#144BE1"/>
<path d="M23.5156 27.0315V38.8281C23.5156 39.4753 24.0403 40 24.6875 40H29.3749C30.0154 40 30.5456 39.477 30.5467 38.8364C30.5496 37.1258 29.6783 35.4763 28.203 34.5318V25.8962C32.6512 26.173 35.7061 27.978 35.9405 28.0694C36.3891 28.3075 36.9362 28.2262 37.299 27.8737C37.6518 27.532 37.7534 27.0072 37.5566 26.5598C36.64 24.4759 36.498 22.1489 37.9856 20.4257L39.3642 18.8285L37.656 17.6566L39.3983 16.4848C38.5054 15.3818 38.1889 13.8168 38.6481 12.4734C38.6493 12.47 38.6504 12.4665 38.6516 12.4631L39.9402 8.57214C40.0749 8.16527 39.9784 7.69856 39.6759 7.39482C38.0581 5.76993 36.2406 5.01689 34.4216 5.18814C30.7515 5.51313 28.0291 9.42126 26.5665 11.5211C26.3823 11.7843 26.2243 12.0132 26.0916 12.1918C25.8272 12.5465 25.7849 13.0192 25.9829 13.4151C26.4603 14.3702 26.3645 14.2564 26.8652 15.2579C27.2074 15.9686 27.1456 16.7867 26.6958 17.502C26.1808 18.3203 25.2768 18.8284 24.3361 18.8284H23.5156V12.6416C24.7778 11.5052 25.6098 9.79203 25.8112 7.91988C28.6333 6.90483 30.5467 4.22582 30.5467 1.17259C30.5467 0.698853 30.2618 0.270814 29.8234 0.0900366C29.384 -0.0930848 28.8805 0.00878827 28.5462 0.344094C27.4019 1.48845 25.921 2.17742 24.328 2.31702C23.218 0.836194 21.609 0.0957396 20 0.0957396V23.5159C21.9417 23.5159 23.5156 25.0899 23.5156 27.0315Z" fill="#438BFF"/>
<path d="M14.0168 13.4147C14.0166 13.415 14.0168 13.4151 14.0166 13.4154C14.0314 13.386 14.0302 13.3881 14.0168 13.4147Z" fill="#144BE1"/>
<path d="M39.6555 16.8282C39.5526 16.7252 39.488 16.5967 39.3975 16.4849H34.0615C33.4138 16.4849 32.8896 17.009 32.8896 17.6567C32.8896 18.3044 33.4138 18.8286 34.0615 18.8286H39.3633L39.714 18.4223C40.1155 17.9577 40.0892 17.262 39.6555 16.8282Z" fill="#173DB6"/>
<path d="M7.10916 17.6567C7.10916 17.009 6.58503 16.4849 5.93731 16.4849H0.60132C0.510775 16.5967 0.446245 16.7252 0.343278 16.8282C-0.0904633 17.262 -0.116791 17.9577 0.28492 18.4223L0.635694 18.8286H5.93739C6.58503 18.8286 7.10916 18.3044 7.10916 17.6567Z" fill="#438BFF"/>
</g>
<defs>
<clipPath id="clip0_1648_2009">
<rect width="40" height="40" fill="white"/>
</clipPath>
</defs>
</svg>
