<svg width="16" height="16" viewBox="0 0 16 16" fill="none" xmlns="http://www.w3.org/2000/svg">
<path d="M14.2074 1.79267C14.0817 1.667 13.9247 1.57713 13.7527 1.5323C13.5807 1.48748 13.3998 1.48933 13.2287 1.53767H13.2193L1.22307 5.17767C1.02832 5.23379 0.85522 5.34777 0.726711 5.5045C0.598201 5.66123 0.52035 5.85331 0.503473 6.05529C0.486597 6.25727 0.531492 6.4596 0.632209 6.63549C0.732927 6.81137 0.884711 6.9525 1.06745 7.04017L6.37495 9.62517L8.9562 14.9295C9.03648 15.1009 9.16413 15.2456 9.32405 15.3468C9.48397 15.4479 9.66949 15.5011 9.8587 15.5002C9.88745 15.5002 9.9162 15.4989 9.94495 15.4964C10.1468 15.4801 10.3388 15.4024 10.4952 15.2738C10.6516 15.1452 10.7649 14.9719 10.8199 14.777L14.4574 2.78079C14.4574 2.77767 14.4574 2.77454 14.4574 2.77142C14.5064 2.60077 14.5091 2.42016 14.4651 2.24815C14.4212 2.07614 14.3322 1.91893 14.2074 1.79267ZM9.86432 14.4908L9.8612 14.4995V14.4952L7.35745 9.35142L10.3574 6.35142C10.4473 6.25689 10.4966 6.13101 10.4949 6.00063C10.4932 5.87025 10.4407 5.74568 10.3485 5.65348C10.2563 5.56128 10.1317 5.50874 10.0014 5.50707C9.87098 5.5054 9.7451 5.55473 9.65057 5.64454L6.65057 8.64454L1.50495 6.14079H1.50057H1.50932L13.4999 2.50017L9.86432 14.4908Z" fill="white"/>
</svg>
