<svg width="168" height="48" viewBox="0 0 168 48" fill="none" xmlns="http://www.w3.org/2000/svg">
<rect x="0.5" width="167" height="48" rx="12" fill="#FFC439"/>
<path d="M57.2904 14.2889C56.2781 13.5936 54.9572 13.2451 53.3277 13.2451H47.0189C46.5193 13.2451 46.2433 13.4947 46.1909 13.9935L43.6282 30.0661C43.6015 30.224 43.6411 30.3684 43.7464 30.4996C43.8511 30.6311 43.9829 30.6965 44.1406 30.6965H47.1372C47.6628 30.6965 47.9517 30.4475 48.0047 29.9481L48.7144 25.615C48.7403 25.405 48.8327 25.2342 48.9905 25.1027C49.1481 24.9715 49.3453 24.8856 49.5819 24.8464C49.8185 24.8074 50.0415 24.7876 50.2522 24.7876C50.4623 24.7876 50.7119 24.801 51.0015 24.8271C51.2904 24.8532 51.4745 24.8661 51.5535 24.8661C53.814 24.8661 55.5883 24.2297 56.8765 22.9555C58.1642 21.682 58.8087 19.9161 58.8087 17.6569C58.8087 16.1074 58.3022 14.9848 57.2904 14.2885V14.2889ZM54.0377 19.115C53.9058 20.0343 53.5645 20.6381 53.0125 20.9271C52.4604 21.2164 51.6718 21.3604 50.6468 21.3604L49.3455 21.3997L50.016 17.1844C50.0683 16.8958 50.2391 16.7513 50.5285 16.7513H51.2778C52.3288 16.7513 53.0916 16.9026 53.5647 17.2042C54.0377 17.5064 54.1954 18.1435 54.0377 19.115Z" fill="#003087"/>
<path d="M123.868 13.2441H120.95C120.66 13.2441 120.49 13.3886 120.437 13.6777L117.874 30.0659L117.835 30.1446C117.835 30.2766 117.888 30.4007 117.993 30.519C118.097 30.637 118.23 30.6961 118.387 30.6961H120.99C121.488 30.6961 121.765 30.4471 121.818 29.9477L124.381 13.8354V13.7962C124.381 13.4284 124.209 13.2446 123.868 13.2446V13.2441Z" fill="#009CDE"/>
<path d="M88.6173 19.5886C88.6173 19.4576 88.5645 19.3326 88.46 19.2147C88.3545 19.0966 88.2362 19.0371 88.1051 19.0371H85.069C84.7793 19.0371 84.5427 19.1691 84.359 19.431L80.1796 25.5767L78.4447 19.6676C78.3126 19.2477 78.0239 19.0371 77.5773 19.0371H74.6196C74.4879 19.0371 74.3697 19.0964 74.2652 19.2147C74.1597 19.3326 74.1074 19.4578 74.1074 19.5886C74.1074 19.6415 74.3638 20.416 74.8762 21.9129C75.3887 23.4104 75.9407 25.0256 76.5322 26.759C77.1237 28.4921 77.4323 29.4118 77.4587 29.516C75.3031 32.4579 74.2258 34.0336 74.2258 34.2434C74.2258 34.5851 74.3963 34.7556 74.7383 34.7556H77.7744C78.0634 34.7556 78.2999 34.6246 78.4843 34.3619L88.5389 19.8642C88.5911 19.8122 88.6173 19.7207 88.6173 19.5885V19.5886Z" fill="#003087"/>
<path d="M116.889 19.0365H113.893C113.524 19.0365 113.302 19.47 113.223 20.3368C112.538 19.2866 111.291 18.7607 109.476 18.7607C107.584 18.7607 105.974 19.47 104.646 20.8882C103.319 22.3064 102.655 23.9746 102.655 25.8916C102.655 27.4414 103.109 28.6756 104.015 29.5945C104.922 30.5143 106.138 30.9733 107.663 30.9733C108.425 30.9733 109.201 30.8155 109.989 30.5006C110.778 30.1855 111.395 29.7655 111.843 29.24C111.843 29.2664 111.816 29.3841 111.764 29.5941C111.711 29.8046 111.685 29.9627 111.685 30.0669C111.685 30.4876 111.855 30.6971 112.198 30.6971H114.918C115.417 30.6971 115.707 30.4481 115.785 29.9487L117.402 19.6667C117.428 19.509 117.389 19.3648 117.284 19.2334C117.178 19.1024 117.047 19.0365 116.889 19.0365ZM111.744 26.7975C111.074 27.4542 110.265 27.7823 109.319 27.7823C108.556 27.7823 107.939 27.5725 107.466 27.152C106.992 26.7328 106.756 26.1549 106.756 25.4187C106.756 24.4477 107.084 23.6262 107.742 22.9566C108.398 22.2869 109.214 21.9522 110.186 21.9522C110.922 21.9522 111.533 22.1688 112.02 22.6019C112.506 23.0354 112.749 23.6329 112.749 24.3947C112.749 25.3401 112.414 26.1413 111.744 26.7975Z" fill="#009CDE"/>
<path d="M72.0968 19.0365H69.1C68.7315 19.0365 68.5085 19.47 68.4296 20.3368C67.7198 19.2866 66.4711 18.7607 64.6837 18.7607C62.791 18.7607 61.1807 19.47 59.8534 20.8882C58.5258 22.3064 57.8623 23.9746 57.8623 25.8916C57.8623 27.4414 58.3158 28.6756 59.2227 29.5945C60.1297 30.5143 61.3451 30.9733 62.8699 30.9733C63.6056 30.9733 64.3684 30.8155 65.1568 30.5006C65.9454 30.1855 66.5763 29.7655 67.0495 29.24C66.944 29.5549 66.8917 29.8307 66.8917 30.0669C66.8917 30.4876 67.0625 30.6971 67.4043 30.6971H70.1249C70.624 30.6971 70.9135 30.4481 70.9924 29.9487L72.609 19.6667C72.6349 19.509 72.5956 19.3648 72.4907 19.2334C72.3855 19.1024 72.2543 19.0365 72.0968 19.0365ZM66.9511 26.817C66.2807 27.4613 65.4588 27.7823 64.4868 27.7823C63.7241 27.7823 63.1129 27.5725 62.6532 27.152C62.193 26.7328 61.9631 26.1549 61.9631 25.4187C61.9631 24.4477 62.2916 23.6262 62.949 22.9566C63.6057 22.2869 64.4207 21.952 65.3936 21.952C66.1293 21.952 66.7405 22.1688 67.2272 22.6019C67.7132 23.0354 67.9566 23.6329 67.9566 24.3947C67.9565 25.3664 67.6215 26.1743 66.9511 26.817Z" fill="#003087"/>
<path d="M102.084 14.2889C101.071 13.5936 99.7509 13.2451 98.121 13.2451H91.8515C91.3257 13.2451 91.0363 13.4947 90.9841 13.9935L88.4211 30.0661C88.3945 30.224 88.434 30.3684 88.5395 30.4996C88.6437 30.6311 88.7758 30.6965 88.9336 30.6965H92.1667C92.4821 30.6965 92.6923 30.526 92.7977 30.1845L93.5075 25.615C93.5336 25.405 93.6256 25.2342 93.7836 25.1027C93.9413 24.9715 94.1383 24.8856 94.3751 24.8464C94.6114 24.8074 94.8345 24.7876 95.0453 24.7876C95.2555 24.7876 95.505 24.801 95.7943 24.8271C96.0833 24.8532 96.268 24.8661 96.3463 24.8661C98.6073 24.8661 100.381 24.2297 101.669 22.9555C102.958 21.682 103.602 19.9161 103.602 17.6569C103.602 16.1074 103.095 14.9847 102.084 14.2885V14.2889ZM98.0422 20.7693C97.4638 21.1632 96.5962 21.3601 95.4399 21.3601L94.1779 21.3996L94.8483 17.1842C94.9003 16.8957 95.0712 16.7509 95.3607 16.7509H96.0702C96.6486 16.7509 97.1085 16.7773 97.4508 16.8297C97.7919 16.8824 98.121 17.0463 98.4364 17.3219C98.752 17.5978 98.9096 17.9985 98.9096 18.5235C98.9096 19.627 98.6201 20.3751 98.0422 20.7693Z" fill="#009CDE"/>
</svg>

