<svg width="24" height="24" viewBox="0 0 24 24" fill="none" xmlns="http://www.w3.org/2000/svg">
<g clip-path="url(#clip0_1645_709)">
<path fill-rule="evenodd" clip-rule="evenodd" d="M21 21L11.8101 19.2079L11.8095 19.2083L3 10.3988L10.3988 3L19.2083 11.8095L19.2079 11.8101L21 21Z" fill="#FFCC80"/>
<path fill-rule="evenodd" clip-rule="evenodd" d="M21.0002 21.0002L16.7422 14.276L14.4838 12.0176L12.0176 14.4838L14.276 16.7423L21.0002 21.0002Z" fill="#FFD9A0"/>
<path fill-rule="evenodd" clip-rule="evenodd" d="M5.46627 7.93262L3 10.3989L11.8095 19.2084L12.0837 17.0163L14.2758 16.7422L5.46627 7.93262Z" fill="#FFA726"/>
<path fill-rule="evenodd" clip-rule="evenodd" d="M5.46582 7.93259L7.9321 5.46631L16.7416 14.2758L14.5496 14.5501L14.2753 16.7422L5.46582 7.93259Z" fill="#FB8C00"/>
<path fill-rule="evenodd" clip-rule="evenodd" d="M10.3989 3L7.93262 5.46627L16.7421 14.2758L17.0163 12.0837L19.2084 11.8095L10.3989 3Z" fill="#FFA726"/>
<path fill-rule="evenodd" clip-rule="evenodd" d="M21.0001 21.0001L17.7969 20.3755L20.3755 17.7969L21.0001 21.0001Z" fill="#212121"/>
</g>
<defs>
<clipPath id="clip0_1645_709">
<rect width="24" height="24" fill="white"/>
</clipPath>
</defs>
</svg>
