<svg width="20" height="20" viewBox="0 0 20 20" fill="none" xmlns="http://www.w3.org/2000/svg">
<path d="M10.0004 6.25C10.4949 6.25 10.9782 6.10338 11.3893 5.82868C11.8005 5.55397 12.1209 5.16352 12.3101 4.70671C12.4993 4.24989 12.5488 3.74723 12.4524 3.26228C12.3559 2.77732 12.1178 2.33187 11.7682 1.98223C11.4185 1.6326 10.9731 1.3945 10.4881 1.29804C10.0032 1.20157 9.50051 1.25108 9.04369 1.4403C8.58688 1.62952 8.19643 1.94995 7.92173 2.36108C7.64702 2.7722 7.5004 3.25555 7.5004 3.75C7.5004 4.41304 7.76379 5.04893 8.23263 5.51777C8.70148 5.98661 9.33736 6.25 10.0004 6.25ZM10.0004 2.5C10.2476 2.5 10.4893 2.57331 10.6949 2.71066C10.9004 2.84802 11.0606 3.04324 11.1553 3.27165C11.2499 3.50005 11.2746 3.75139 11.2264 3.99386C11.1782 4.23634 11.0591 4.45907 10.8843 4.63388C10.7095 4.8087 10.4867 4.92775 10.2443 4.97598C10.0018 5.02421 9.75046 4.99946 9.52205 4.90485C9.29364 4.81024 9.09842 4.65003 8.96106 4.44446C8.82371 4.2389 8.7504 3.99723 8.7504 3.75C8.7504 3.41848 8.8821 3.10054 9.11652 2.86612C9.35094 2.6317 9.66888 2.5 10.0004 2.5ZM18.0363 10.3219C17.9941 10.3925 17.9383 10.4541 17.8722 10.503C17.8061 10.552 17.731 10.5875 17.6511 10.6074C17.5713 10.6273 17.4883 10.6312 17.4069 10.6189C17.3255 10.6067 17.2474 10.5785 17.177 10.5359C17.1496 10.5195 14.434 8.92735 10.6238 8.76484V11.6406L15.4676 17.0883C15.5221 17.1498 15.5639 17.2215 15.5907 17.2992C15.6174 17.377 15.6286 17.4592 15.6236 17.5412C15.6186 17.6233 15.5975 17.7036 15.5615 17.7774C15.5255 17.8513 15.4752 17.9174 15.4137 17.9719C15.3521 18.0264 15.2804 18.0682 15.2027 18.0949C15.125 18.1217 15.0428 18.1329 14.9607 18.1279C14.8787 18.1229 14.7984 18.1018 14.7245 18.0658C14.6506 18.0298 14.5846 17.9795 14.5301 17.918L10.0004 12.8125L5.46915 17.9148C5.41467 17.9764 5.3486 18.0266 5.27472 18.0627C5.20083 18.0987 5.12057 18.1198 5.03852 18.1248C4.95647 18.1298 4.87424 18.1186 4.79652 18.0918C4.7188 18.0651 4.64711 18.0232 4.58556 17.9688C4.524 17.9143 4.47378 17.8482 4.43775 17.7743C4.40173 17.7004 4.38061 17.6202 4.37561 17.5381C4.3706 17.4561 4.3818 17.3738 4.40858 17.2961C4.43535 17.2184 4.47717 17.1467 4.53165 17.0852L9.3754 11.6406V8.76406C5.54728 8.92656 2.8504 10.5188 2.82228 10.5359C2.75187 10.5792 2.67358 10.6081 2.59195 10.6209C2.51031 10.6337 2.42695 10.6301 2.34668 10.6105C2.26641 10.5909 2.19083 10.5555 2.12431 10.5065C2.05779 10.4575 2.00166 10.3958 1.95915 10.3249C1.91664 10.254 1.88861 10.1755 1.87667 10.0937C1.86474 10.0119 1.86913 9.9286 1.88961 9.84855C1.91008 9.76849 1.94623 9.69329 1.99595 9.62729C2.04568 9.5613 2.108 9.50582 2.17931 9.46406C2.3129 9.38359 5.50431 7.5 10.0004 7.5C14.4965 7.5 17.6879 9.38359 17.8223 9.46406C17.8927 9.50632 17.9541 9.56203 18.0029 9.62801C18.0518 9.69399 18.0872 9.76896 18.107 9.84862C18.1269 9.92828 18.1309 10.0111 18.1188 10.0923C18.1066 10.1735 18.0786 10.2515 18.0363 10.3219Z" fill="white"/>
</svg>
