<svg width="40" height="40" viewBox="0 0 40 40" fill="none" xmlns="http://www.w3.org/2000/svg">
<path d="M29.3505 9.63348C29.3505 12.2809 28.4011 14.5724 26.5283 16.4456C24.6554 18.3185 22.3635 19.2679 19.7161 19.2679H19.7115C17.0675 19.267 14.7772 18.3176 12.9043 16.4456C11.0311 14.5724 10.082 12.2809 10.082 9.63348C10.082 6.987 11.0311 4.69513 12.9043 2.82227C14.7762 0.950012 17.0666 0.000915531 19.7115 0H19.7161C22.3626 0 24.6545 0.949402 26.5283 2.82227C28.4011 4.69513 29.3505 6.987 29.3505 9.63348Z" fill="#FFBB85"/>
<path d="M36.6537 33.1191C36.6537 35.2078 35.9894 36.8987 34.6808 38.1442C33.3875 39.3749 31.6769 39.9984 29.5972 39.9984H10.3369C8.25714 39.9984 6.54663 39.3749 5.25421 38.1442C3.9447 36.8978 3.28125 35.2072 3.28125 33.1191C3.28125 32.3159 3.3078 31.5212 3.3609 30.7571C3.41492 29.9758 3.52417 29.1256 3.6853 28.2287C3.84766 27.3245 4.0564 26.4697 4.30634 25.6884C4.56573 24.8797 4.91669 24.082 5.35095 23.3178C5.802 22.5247 6.33179 21.8337 6.92566 21.2649C7.54822 20.6695 8.30933 20.1913 9.18915 19.8428C10.0659 19.4961 11.0379 19.3203 12.0779 19.3203C12.486 19.3203 12.8812 19.4872 13.6429 19.9835C14.1196 20.2944 14.6689 20.6484 15.2753 21.036C15.799 21.3699 16.5082 21.683 17.3849 21.9659C18.1555 22.2152 18.9377 22.3544 19.7104 22.3785C19.7955 22.3815 19.8807 22.3831 19.9658 22.3831C20.824 22.3831 21.6919 22.2424 22.5476 21.9659C23.4244 21.683 24.1345 21.3699 24.6579 21.036C25.2707 20.6445 25.82 20.2908 26.2897 19.9844C27.052 19.4872 27.4466 19.3203 27.8555 19.3203C28.8947 19.3203 29.8666 19.4961 30.744 19.8428C31.6238 20.1913 32.3849 20.6704 33.0069 21.2649C33.6017 21.8337 34.1315 22.5247 34.5822 23.3178C35.0168 24.0826 35.3683 24.8797 35.6268 25.6875C35.8771 26.4697 36.0864 27.3245 36.2488 28.2293C36.409 29.1271 36.5186 29.9774 36.5723 30.7565C36.6263 31.5182 36.6528 32.3129 36.6537 33.1191Z" fill="#438BFF"/>
<path d="M19.7155 19.2679H19.7109V0H19.7155C22.362 0 24.6539 0.949402 26.5276 2.82227C28.4005 4.69513 29.3499 6.987 29.3499 9.63348C29.3499 12.2809 28.4005 14.5724 26.5276 16.4456C24.6548 18.3185 22.3629 19.2679 19.7155 19.2679Z" fill="#F5A86C"/>
<path d="M36.6543 33.1191C36.6543 35.2078 35.9899 36.8987 34.6813 38.1442C33.388 39.3749 31.6775 39.9984 29.5977 39.9984H19.7109V22.3785C19.7961 22.3815 19.8812 22.3831 19.9664 22.3831C20.8245 22.3831 21.6924 22.2424 22.5482 21.9659C23.4249 21.683 24.1351 21.3699 24.6584 21.036C25.2712 20.6445 25.8206 20.2908 26.2902 19.9844C27.0526 19.4872 27.4471 19.3203 27.8561 19.3203C28.8952 19.3203 29.8672 19.4961 30.7446 19.8428C31.6244 20.1913 32.3855 20.6704 33.0074 21.2649C33.6022 21.8337 34.132 22.5247 34.5828 23.3178C35.0173 24.0826 35.3689 24.8797 35.6274 25.6875C35.8776 26.4697 36.087 27.3245 36.2493 28.2293C36.4095 29.1271 36.5191 29.9774 36.5728 30.7565C36.6268 31.5182 36.6534 32.3129 36.6543 33.1191Z" fill="#1B60F5"/>
</svg>
