<svg width="24" height="24" viewBox="0 0 24 24" fill="none" xmlns="http://www.w3.org/2000/svg">
<g clip-path="url(#clip0_1645_755)">
<path d="M20.6484 5.4375H3.35156C3.1574 5.4375 3 5.5949 3 5.78906V18.2109C3 18.4051 3.1574 18.5625 3.35156 18.5625H20.6484C20.8426 18.5625 21 18.4051 21 18.2109V5.78906C21 5.5949 20.8426 5.4375 20.6484 5.4375Z" fill="#424242"/>
<path fill-rule="evenodd" clip-rule="evenodd" d="M3.75 7.125H20.25V18H3.75V7.125Z" fill="#B3E5FC"/>
<path d="M3.75 6.21436H16.5V6.47012H3.75V6.21436Z" fill="#757575"/>
<path d="M17.8461 5.96729H17.4039C17.3189 5.96729 17.25 6.03619 17.25 6.12119V6.56338C17.25 6.64838 17.3189 6.71729 17.4039 6.71729H17.8461C17.9311 6.71729 18 6.64838 18 6.56338V6.12119C18 6.03619 17.9311 5.96729 17.8461 5.96729Z" fill="#E85F3B"/>
<path d="M18.9711 5.96729H18.5289C18.4439 5.96729 18.375 6.03619 18.375 6.12119V6.56338C18.375 6.64838 18.4439 6.71729 18.5289 6.71729H18.9711C19.0561 6.71729 19.125 6.64838 19.125 6.56338V6.12119C19.125 6.03619 19.0561 5.96729 18.9711 5.96729Z" fill="#00A99E"/>
<path d="M20.0961 5.96729H19.6539C19.5689 5.96729 19.5 6.03619 19.5 6.12119V6.56338C19.5 6.64838 19.5689 6.71729 19.6539 6.71729H20.0961C20.1811 6.71729 20.25 6.64838 20.25 6.56338V6.12119C20.25 6.03619 20.1811 5.96729 20.0961 5.96729Z" fill="#FAD3A8"/>
<path fill-rule="evenodd" clip-rule="evenodd" d="M19.8752 17.3629V17.377C19.8752 17.4739 19.8356 17.564 19.7671 17.6319C19.6971 17.7011 19.6045 17.7408 19.5058 17.7408H8.85742C8.85907 17.7074 8.86766 17.6735 8.88437 17.6408L10.5536 14.376C10.6332 14.2204 10.8451 14.1951 10.9591 14.3277L12.3533 15.95L15.5539 10.7604C15.6511 10.6029 15.8808 10.605 15.9749 10.7643L19.8752 17.3629Z" fill="#689F38"/>
</g>
<defs>
<clipPath id="clip0_1645_755">
<rect width="24" height="24" fill="white"/>
</clipPath>
</defs>
</svg>
