<svg width="25" height="25" viewBox="0 0 25 25" fill="none" xmlns="http://www.w3.org/2000/svg">
<path d="M23.0006 12.4347C22.9649 17.7307 18.6449 22.0657 13.3499 22.1182C12.5307 22.1268 11.7137 22.0323 10.9181 21.8369C10.8702 21.825 10.8252 21.8037 10.7855 21.7743C10.7459 21.745 10.7125 21.708 10.6871 21.6657C10.6618 21.6234 10.645 21.5765 10.6379 21.5277C10.6307 21.4789 10.6332 21.4291 10.6453 21.3813L11.4553 18.1422C12.2453 18.5382 13.1169 18.7443 14.0006 18.7441C17.4693 18.7441 20.2537 15.6082 19.9828 11.8666C19.9093 10.8955 19.6265 9.95174 19.1539 9.10021C18.6812 8.24867 18.0299 7.50949 17.2447 6.93342C16.4594 6.35735 15.5588 5.95802 14.6046 5.76286C13.6505 5.5677 12.6654 5.58133 11.717 5.80281C10.7686 6.02428 9.87937 6.44836 9.11034 7.04593C8.34131 7.64351 7.7107 8.40042 7.2618 9.2647C6.8129 10.129 6.55634 11.0802 6.50974 12.053C6.46314 13.0258 6.6276 13.9971 6.99182 14.9004C7.02966 14.9946 7.08624 15.0801 7.15813 15.1519C7.23002 15.2236 7.31572 15.2799 7.41004 15.3175C7.50436 15.3551 7.60534 15.3732 7.70685 15.3706C7.80836 15.3681 7.90828 15.3449 8.00057 15.3025C8.17659 15.2172 8.3134 15.0679 8.38309 14.8852C8.45278 14.7024 8.45009 14.5 8.37557 14.3191C8.09526 13.6162 7.97023 12.8609 8.00906 12.1051C8.04789 11.3493 8.24966 10.6109 8.60054 9.94035C8.95141 9.26983 9.44311 8.68309 10.0419 8.22034C10.6407 7.75759 11.3325 7.42977 12.0699 7.25934C12.8072 7.08892 13.5727 7.07992 14.3138 7.23296C15.055 7.386 15.7543 7.69746 16.3638 8.146C16.9733 8.59455 17.4787 9.16957 17.8452 9.83166C18.2118 10.4937 18.4309 11.2273 18.4874 11.9819C18.6881 14.8441 16.6003 17.2441 14.0006 17.2441C13.236 17.2437 12.486 17.035 11.8312 16.6404L13.2281 11.051C13.2725 10.8594 13.2399 10.658 13.1372 10.4902C13.0346 10.3224 12.8702 10.2017 12.6794 10.154C12.4885 10.1063 12.2866 10.1354 12.1171 10.2352C11.9476 10.3349 11.824 10.4973 11.7731 10.6872L9.25495 20.7607C9.24128 20.8155 9.21538 20.8666 9.17919 20.91C9.14301 20.9534 9.09747 20.9881 9.04599 21.0115C8.99451 21.0348 8.93841 21.0462 8.8819 21.0449C8.82538 21.0435 8.76991 21.0293 8.71964 21.0035C7.1291 20.1689 5.80004 18.9111 4.87908 17.3689C3.95813 15.8268 3.48108 14.0602 3.50057 12.2641C3.55682 6.98035 7.87589 2.66786 13.1568 2.61911C14.4506 2.60663 15.734 2.8518 16.932 3.34031C18.1301 3.82883 19.219 4.55092 20.1352 5.46451C21.0514 6.37809 21.7766 7.4649 22.2686 8.66158C22.7605 9.85827 23.0093 11.1409 23.0006 12.4347Z" fill="#438BFF"/>
</svg>
