<svg width="24" height="24" viewBox="0 0 24 24" fill="none" xmlns="http://www.w3.org/2000/svg">
<path d="M22.5 12.0005C22.5006 12.2551 22.4353 12.5056 22.3105 12.7275C22.1856 12.9495 22.0055 13.1353 21.7875 13.267L8.28 21.5302C8.05227 21.6696 7.79144 21.7457 7.52445 21.7507C7.25746 21.7556 6.99399 21.6892 6.76125 21.5583C6.53073 21.4294 6.3387 21.2414 6.2049 21.0137C6.07111 20.786 6.00039 20.5268 6 20.2627V3.73828C6.00039 3.47417 6.07111 3.21493 6.2049 2.98722C6.3387 2.75951 6.53073 2.57155 6.76125 2.44266C6.99399 2.31173 7.25746 2.24531 7.52445 2.25026C7.79144 2.2552 8.05227 2.33133 8.28 2.47078L21.7875 10.7339C22.0055 10.8656 22.1856 11.0515 22.3105 11.2734C22.4353 11.4953 22.5006 11.7458 22.5 12.0005Z" fill="black"/>
</svg>
