<svg width="18" height="18" viewBox="0 0 18 18" fill="none" xmlns="http://www.w3.org/2000/svg">
<path d="M16.3406 8.05043L6.21 1.85309C6.0392 1.7485 5.84358 1.6914 5.64334 1.68769C5.44309 1.68398 5.24549 1.7338 5.07094 1.83199C4.89805 1.92866 4.75402 2.06963 4.65368 2.24042C4.55333 2.4112 4.50029 2.60563 4.5 2.80371V15.197C4.5013 15.4941 4.62054 15.7786 4.8315 15.9878C5.04246 16.1971 5.32787 16.314 5.625 16.3128C5.83239 16.3128 6.03575 16.2556 6.21281 16.1476L16.3406 9.95027C16.5034 9.85105 16.638 9.71162 16.7313 9.54539C16.8247 9.37915 16.8737 9.19171 16.8737 9.00105C16.8737 8.8104 16.8247 8.62295 16.7313 8.45672C16.638 8.29049 16.5034 8.15106 16.3406 8.05183V8.05043ZM5.625 15.1836V2.81285L15.738 9.00035L5.625 15.1836Z" fill="black"/>
</svg>
