<svg width="25" height="24" viewBox="0 0 25 24" fill="none" xmlns="http://www.w3.org/2000/svg">
<path d="M23 12.0005C23.0006 12.2551 22.9353 12.5056 22.8105 12.7275C22.6856 12.9495 22.5055 13.1353 22.2875 13.267L8.78 21.5302C8.55227 21.6696 8.29144 21.7457 8.02445 21.7507C7.75746 21.7556 7.49399 21.6892 7.26125 21.5583C7.03073 21.4294 6.8387 21.2414 6.7049 21.0137C6.57111 20.786 6.50039 20.5268 6.5 20.2627V3.73828C6.50039 3.47417 6.57111 3.21493 6.7049 2.98722C6.8387 2.75951 7.03073 2.57155 7.26125 2.44266C7.49399 2.31173 7.75746 2.24531 8.02445 2.25026C8.29144 2.2552 8.55227 2.33133 8.78 2.47078L22.2875 10.7339C22.5055 10.8656 22.6856 11.0515 22.8105 11.2734C22.9353 11.4953 23.0006 11.7458 23 12.0005Z" fill="black"/>
</svg>
