<svg width="109" height="36" viewBox="0 0 109 36" fill="none" xmlns="http://www.w3.org/2000/svg">
<rect x="0.5" y="0.5" width="108" height="35" rx="11.5" fill="#FFF6E0"/>
<rect x="0.5" y="0.5" width="108" height="35" rx="11.5" stroke="#FFBE4C"/>
<path d="M26.6431 17.1781L23.8306 19.605L24.6875 23.2344C24.7347 23.4314 24.7226 23.638 24.6525 23.8281C24.5824 24.0182 24.4575 24.1833 24.2937 24.3025C24.1298 24.4217 23.9343 24.4896 23.7319 24.4977C23.5294 24.5059 23.3291 24.4538 23.1562 24.3481L20 22.4056L16.8418 24.3481C16.669 24.4532 16.4689 24.5048 16.2668 24.4963C16.0647 24.4879 15.8696 24.4199 15.7061 24.3008C15.5426 24.1817 15.4179 24.0169 15.3479 23.8272C15.2779 23.6374 15.2655 23.4312 15.3125 23.2344L16.1725 19.605L13.36 17.1781C13.207 17.046 13.0964 16.8717 13.042 16.677C12.9875 16.4823 12.9916 16.2759 13.0537 16.0836C13.1159 15.8912 13.2333 15.7214 13.3914 15.5954C13.5494 15.4694 13.7411 15.3927 13.9425 15.375L17.63 15.0775L19.0525 11.635C19.1295 11.4474 19.2605 11.2869 19.4289 11.174C19.5974 11.061 19.7956 11.0007 19.9984 11.0007C20.2012 11.0007 20.3994 11.061 20.5679 11.174C20.7363 11.2869 20.8673 11.4474 20.9443 11.635L22.3662 15.0775L26.0537 15.375C26.2555 15.3921 26.4477 15.4683 26.6064 15.5941C26.765 15.72 26.883 15.8898 26.9455 16.0824C27.008 16.275 27.0123 16.4818 26.9579 16.6768C26.9034 16.8718 26.7926 17.0464 26.6393 17.1788L26.6431 17.1781Z" fill="#FFBE4C"/>
<path d="M41.824 12.8C42.3787 12.8 42.896 12.96 43.376 13.28C43.8667 13.6 44.2613 14.032 44.56 14.576C44.8587 15.12 45.008 15.728 45.008 16.4C45.008 17.0613 44.8587 17.664 44.56 18.208C44.2613 18.752 43.8667 19.1893 43.376 19.52C42.896 19.84 42.3787 20 41.824 20H38.88L39.04 19.712V23.024C39.04 23.3013 38.9547 23.536 38.784 23.728C38.6133 23.9093 38.3893 24 38.112 24C37.8453 24 37.6267 23.9093 37.456 23.728C37.2853 23.536 37.2 23.3013 37.2 23.024V13.776C37.2 13.4987 37.2907 13.2693 37.472 13.088C37.664 12.896 37.8987 12.8 38.176 12.8H41.824ZM41.824 18.176C42.0267 18.176 42.224 18.0907 42.416 17.92C42.608 17.7493 42.768 17.5307 42.896 17.264C43.024 16.9867 43.088 16.6987 43.088 16.4C43.088 16.0907 43.024 15.8027 42.896 15.536C42.768 15.2693 42.608 15.056 42.416 14.896C42.224 14.7253 42.0267 14.64 41.824 14.64H38.848L39.04 14.352V18.432L38.864 18.176H41.824ZM54.8284 19.728C54.8284 20.6027 54.631 21.376 54.2364 22.048C53.8524 22.7093 53.3297 23.2267 52.6684 23.6C52.0177 23.9733 51.287 24.16 50.4764 24.16C49.6657 24.16 48.9297 23.9733 48.2684 23.6C47.6177 23.2267 47.095 22.7093 46.7004 22.048C46.3164 21.376 46.1244 20.6027 46.1244 19.728C46.1244 18.8533 46.3164 18.0853 46.7004 17.424C47.095 16.752 47.6177 16.2293 48.2684 15.856C48.9297 15.472 49.6657 15.28 50.4764 15.28C51.287 15.28 52.0177 15.472 52.6684 15.856C53.3297 16.2293 53.8524 16.752 54.2364 17.424C54.631 18.0853 54.8284 18.8533 54.8284 19.728ZM52.9084 19.728C52.9084 19.184 52.7964 18.7147 52.5724 18.32C52.359 17.9147 52.0657 17.6 51.6924 17.376C51.3297 17.152 50.9244 17.04 50.4764 17.04C50.0284 17.04 49.6177 17.152 49.2444 17.376C48.8817 17.6 48.5884 17.9147 48.3644 18.32C48.151 18.7147 48.0444 19.184 48.0444 19.728C48.0444 20.2613 48.151 20.7307 48.3644 21.136C48.5884 21.5307 48.8817 21.84 49.2444 22.064C49.6177 22.288 50.0284 22.4 50.4764 22.4C50.9244 22.4 51.3297 22.288 51.6924 22.064C52.0657 21.84 52.359 21.5307 52.5724 21.136C52.7964 20.7307 52.9084 20.2613 52.9084 19.728ZM60.9408 15.28C61.6874 15.28 62.3541 15.472 62.9408 15.856C63.5381 16.2293 64.0074 16.7467 64.3488 17.408C64.7008 18.0693 64.8767 18.8373 64.8767 19.712C64.8767 20.5867 64.7008 21.36 64.3488 22.032C64.0074 22.6933 63.5434 23.216 62.9568 23.6C62.3808 23.9733 61.7301 24.16 61.0048 24.16C60.5781 24.16 60.1781 24.0907 59.8048 23.952C59.4314 23.8133 59.1008 23.6373 58.8128 23.424C58.5354 23.2107 58.3168 22.9973 58.1568 22.784C58.0074 22.56 57.9328 22.3733 57.9328 22.224L58.4288 22.016V26.224C58.4288 26.5013 58.3381 26.7307 58.1568 26.912C57.9754 27.104 57.7461 27.2 57.4688 27.2C57.1914 27.2 56.9621 27.1093 56.7808 26.928C56.5994 26.7467 56.5088 26.512 56.5088 26.224V16.416C56.5088 16.1387 56.5994 15.9093 56.7808 15.728C56.9621 15.536 57.1914 15.44 57.4688 15.44C57.7461 15.44 57.9754 15.536 58.1568 15.728C58.3381 15.9093 58.4288 16.1387 58.4288 16.416V17.2L58.1568 17.056C58.1568 16.9173 58.2314 16.752 58.3808 16.56C58.5301 16.3573 58.7328 16.16 58.9888 15.968C59.2448 15.7653 59.5381 15.6 59.8688 15.472C60.2101 15.344 60.5674 15.28 60.9408 15.28ZM60.7008 17.04C60.2314 17.04 59.8208 17.1573 59.4688 17.392C59.1168 17.6267 58.8394 17.9467 58.6368 18.352C58.4448 18.7467 58.3488 19.2 58.3488 19.712C58.3488 20.2133 58.4448 20.672 58.6368 21.088C58.8394 21.4933 59.1168 21.8133 59.4688 22.048C59.8208 22.2827 60.2314 22.4 60.7008 22.4C61.1701 22.4 61.5754 22.2827 61.9168 22.048C62.2688 21.8133 62.5408 21.4933 62.7328 21.088C62.9354 20.672 63.0368 20.2133 63.0368 19.712C63.0368 19.2 62.9354 18.7467 62.7328 18.352C62.5408 17.9467 62.2688 17.6267 61.9168 17.392C61.5754 17.1573 61.1701 17.04 60.7008 17.04ZM72.9076 15.44C73.185 15.44 73.4143 15.536 73.5956 15.728C73.777 15.9093 73.8676 16.1387 73.8676 16.416V20.48C73.8676 21.6107 73.553 22.5067 72.9236 23.168C72.2943 23.8293 71.3876 24.16 70.2036 24.16C69.0196 24.16 68.113 23.8293 67.4836 23.168C66.865 22.5067 66.5556 21.6107 66.5556 20.48V16.416C66.5556 16.1387 66.6463 15.9093 66.8276 15.728C67.009 15.536 67.2383 15.44 67.5156 15.44C67.793 15.44 68.0223 15.536 68.2036 15.728C68.385 15.9093 68.4756 16.1387 68.4756 16.416V20.48C68.4756 21.1307 68.6196 21.616 68.9076 21.936C69.1956 22.2453 69.6276 22.4 70.2036 22.4C70.7903 22.4 71.2276 22.2453 71.5156 21.936C71.8036 21.616 71.9476 21.1307 71.9476 20.48V16.416C71.9476 16.1387 72.0383 15.9093 72.2196 15.728C72.401 15.536 72.6303 15.44 72.9076 15.44ZM78.0263 23.024C78.0263 23.3013 77.9303 23.536 77.7383 23.728C77.5569 23.9093 77.3276 24 77.0503 24C76.7836 24 76.5596 23.9093 76.3783 23.728C76.1969 23.536 76.1063 23.3013 76.1063 23.024V13.136C76.1063 12.8587 76.1969 12.6293 76.3783 12.448C76.5703 12.256 76.8049 12.16 77.0823 12.16C77.3596 12.16 77.5836 12.256 77.7543 12.448C77.9356 12.6293 78.0263 12.8587 78.0263 13.136V23.024ZM87.2668 15.28C87.5441 15.28 87.7734 15.3707 87.9548 15.552C88.1361 15.7333 88.2268 15.968 88.2268 16.256V23.024C88.2268 23.3013 88.1361 23.536 87.9548 23.728C87.7734 23.9093 87.5441 24 87.2668 24C86.9894 24 86.7601 23.9093 86.5788 23.728C86.3974 23.536 86.3068 23.3013 86.3068 23.024V22.24L86.6588 22.384C86.6588 22.5227 86.5841 22.6933 86.4348 22.896C86.2854 23.088 86.0828 23.28 85.8268 23.472C85.5708 23.664 85.2668 23.8293 84.9148 23.968C84.5734 24.096 84.2001 24.16 83.7948 24.16C83.0588 24.16 82.3921 23.9733 81.7948 23.6C81.1974 23.216 80.7228 22.6933 80.3708 22.032C80.0294 21.36 79.8588 20.592 79.8588 19.728C79.8588 18.8533 80.0294 18.0853 80.3708 17.424C80.7228 16.752 81.1921 16.2293 81.7788 15.856C82.3654 15.472 83.0161 15.28 83.7308 15.28C84.1894 15.28 84.6108 15.3493 84.9948 15.488C85.3788 15.6267 85.7094 15.8027 85.9868 16.016C86.2748 16.2293 86.4934 16.448 86.6428 16.672C86.8028 16.8853 86.8828 17.0667 86.8828 17.216L86.3068 17.424V16.256C86.3068 15.9787 86.3974 15.7493 86.5788 15.568C86.7601 15.376 86.9894 15.28 87.2668 15.28ZM84.0348 22.4C84.5041 22.4 84.9148 22.2827 85.2668 22.048C85.6188 21.8133 85.8908 21.4933 86.0828 21.088C86.2854 20.6827 86.3868 20.2293 86.3868 19.728C86.3868 19.216 86.2854 18.7573 86.0828 18.352C85.8908 17.9467 85.6188 17.6267 85.2668 17.392C84.9148 17.1573 84.5041 17.04 84.0348 17.04C83.5761 17.04 83.1708 17.1573 82.8188 17.392C82.4668 17.6267 82.1894 17.9467 81.9868 18.352C81.7948 18.7573 81.6988 19.216 81.6988 19.728C81.6988 20.2293 81.7948 20.6827 81.9868 21.088C82.1894 21.4933 82.4668 21.8133 82.8188 22.048C83.1708 22.2827 83.5761 22.4 84.0348 22.4ZM91.2656 24C90.9883 24 90.759 23.9093 90.5776 23.728C90.3963 23.536 90.3056 23.3013 90.3056 23.024V16.416C90.3056 16.1387 90.3963 15.9093 90.5776 15.728C90.759 15.536 90.9883 15.44 91.2656 15.44C91.543 15.44 91.7723 15.536 91.9536 15.728C92.135 15.9093 92.2256 16.1387 92.2256 16.416V17.92L92.1136 16.848C92.231 16.592 92.3803 16.368 92.5616 16.176C92.7536 15.9733 92.967 15.808 93.2016 15.68C93.4363 15.5413 93.687 15.44 93.9536 15.376C94.2203 15.312 94.487 15.28 94.7536 15.28C95.0736 15.28 95.3403 15.3707 95.5536 15.552C95.7776 15.7333 95.8896 15.9467 95.8896 16.192C95.8896 16.544 95.799 16.8 95.6176 16.96C95.4363 17.1093 95.239 17.184 95.0256 17.184C94.823 17.184 94.6363 17.1467 94.4656 17.072C94.3056 16.9973 94.119 16.96 93.9056 16.96C93.7136 16.96 93.5163 17.008 93.3136 17.104C93.1216 17.1893 92.9403 17.328 92.7696 17.52C92.6096 17.712 92.4763 17.952 92.3696 18.24C92.2736 18.5173 92.2256 18.848 92.2256 19.232V23.024C92.2256 23.3013 92.135 23.536 91.9536 23.728C91.7723 23.9093 91.543 24 91.2656 24Z" fill="#FFBE4C"/>
</svg>

