<svg width="33" height="33" viewBox="0 0 33 33" fill="none" xmlns="http://www.w3.org/2000/svg">
<rect width="32" height="32" rx="16" fill="white"/>
<path d="M16.25 0C13.0361 0 9.89429 0.953046 7.22199 2.73862C4.54969 4.52419 2.46689 7.06209 1.23696 10.0314C0.00704087 13.0007 -0.314763 16.268 0.312247 19.4202C0.939256 22.5724 2.48692 25.4679 4.75952 27.7405C7.03213 30.0131 9.9276 31.5607 13.0798 32.1878C16.232 32.8148 19.4993 32.493 22.4686 31.263C25.4379 30.0331 27.9758 27.9503 29.7614 25.278C31.547 22.6057 32.5 19.4639 32.5 16.25C32.4955 11.9416 30.7819 7.81102 27.7355 4.76454C24.689 1.71806 20.5584 0.00454972 16.25 0ZM23.3844 13.3844L14.6344 22.1344C14.5183 22.2506 14.3804 22.3428 14.2287 22.4057C14.0769 22.4686 13.9143 22.501 13.75 22.501C13.5857 22.501 13.4231 22.4686 13.2713 22.4057C13.1196 22.3428 12.9817 22.2506 12.8656 22.1344L9.11563 18.3844C8.88108 18.1498 8.74931 17.8317 8.74931 17.5C8.74931 17.1683 8.88108 16.8502 9.11563 16.6156C9.35018 16.3811 9.6683 16.2493 10 16.2493C10.3317 16.2493 10.6498 16.3811 10.8844 16.6156L13.75 19.4828L21.6156 11.6156C21.7318 11.4995 21.8696 11.4074 22.0214 11.3445C22.1731 11.2817 22.3358 11.2493 22.5 11.2493C22.6643 11.2493 22.8269 11.2817 22.9786 11.3445C23.1304 11.4074 23.2682 11.4995 23.3844 11.6156C23.5005 11.7318 23.5926 11.8696 23.6555 12.0214C23.7184 12.1731 23.7507 12.3358 23.7507 12.5C23.7507 12.6642 23.7184 12.8269 23.6555 12.9786C23.5926 13.1304 23.5005 13.2682 23.3844 13.3844Z" fill="#6912C5"/>
</svg>
