<svg width="64" height="64" viewBox="0 0 64 64" fill="none" xmlns="http://www.w3.org/2000/svg">
<rect width="64" height="64" rx="12" fill="#FF2F6A"/>
<path d="M32 19C29.4288 19 26.9154 19.7624 24.7776 21.1909C22.6398 22.6194 20.9735 24.6497 19.9896 27.0251C19.0056 29.4006 18.7482 32.0144 19.2498 34.5362C19.7514 37.0579 20.9895 39.3743 22.8076 41.1924C24.6257 43.0105 26.9421 44.2486 29.4638 44.7502C31.9856 45.2518 34.5995 44.9944 36.9749 44.0104C39.3503 43.0265 41.3807 41.3603 42.8091 39.2224C44.2376 37.0846 45 34.5712 45 32C44.9964 28.5533 43.6256 25.2488 41.1884 22.8116C38.7512 20.3744 35.4467 19.0036 32 19ZM32 43C29.8244 43 27.6977 42.3549 25.8887 41.1462C24.0798 39.9375 22.6699 38.2195 21.8373 36.2095C21.0048 34.1995 20.7869 31.9878 21.2114 29.854C21.6358 27.7202 22.6835 25.7602 24.2218 24.2218C25.7602 22.6834 27.7202 21.6358 29.854 21.2114C31.9878 20.7869 34.1995 21.0048 36.2095 21.8373C38.2195 22.6699 39.9375 24.0798 41.1462 25.8887C42.3549 27.6977 43 29.8244 43 32C42.9967 34.9164 41.8367 37.7123 39.7745 39.7745C37.7123 41.8367 34.9164 42.9967 32 43ZM40 32C40 32.2652 39.8946 32.5196 39.7071 32.7071C39.5196 32.8946 39.2652 33 39 33H32C31.7348 33 31.4804 32.8946 31.2929 32.7071C31.1054 32.5196 31 32.2652 31 32V25C31 24.7348 31.1054 24.4804 31.2929 24.2929C31.4804 24.1054 31.7348 24 32 24C32.2652 24 32.5196 24.1054 32.7071 24.2929C32.8946 24.4804 33 24.7348 33 25V31H39C39.2652 31 39.5196 31.1054 39.7071 31.2929C39.8946 31.4804 40 31.7348 40 32Z" fill="white"/>
</svg>
