<svg width="16" height="16" viewBox="0 0 16 16" fill="none" xmlns="http://www.w3.org/2000/svg">
<path d="M15.0171 11.6314L9.55145 2.13957C9.39314 1.86882 9.1667 1.64425 8.89466 1.48818C8.62261 1.33212 8.31445 1.25 8.00082 1.25C7.68719 1.25 7.37903 1.33212 7.10699 1.48818C6.83494 1.64425 6.60851 1.86882 6.4502 2.13957L0.984571 11.6314C0.830958 11.8942 0.75 12.193 0.75 12.4974C0.75 12.8017 0.830958 13.1006 0.984571 13.3633C1.14113 13.6354 1.36725 13.8609 1.63975 14.0168C1.91224 14.1727 2.22129 14.2532 2.5352 14.2502H13.4664C13.7801 14.253 14.0889 14.1723 14.3612 14.0165C14.6334 13.8606 14.8594 13.6352 15.0158 13.3633C15.1696 13.1007 15.2508 12.8019 15.251 12.4975C15.2512 12.1932 15.1705 11.8943 15.0171 11.6314ZM13.7171 12.6127C13.6917 12.656 13.655 12.6916 13.611 12.7158C13.567 12.7401 13.5173 12.7519 13.4671 12.7502H2.5352C2.485 12.7519 2.43528 12.7401 2.39127 12.7158C2.34726 12.6916 2.31062 12.656 2.2852 12.6127C2.26364 12.5776 2.25222 12.5373 2.25222 12.4961C2.25222 12.455 2.26364 12.4146 2.2852 12.3796L7.75082 2.88769C7.77789 2.84603 7.81493 2.8118 7.85859 2.7881C7.90225 2.76439 7.95114 2.75198 8.00082 2.75198C8.0505 2.75198 8.09939 2.76439 8.14305 2.7881C8.18671 2.8118 8.22376 2.84603 8.25082 2.88769L13.7158 12.3796C13.7376 12.4145 13.7492 12.4548 13.7494 12.496C13.7496 12.5371 13.7384 12.5775 13.7171 12.6127ZM7.25082 8.50019V6.50019C7.25082 6.30128 7.32984 6.11051 7.47049 5.96986C7.61114 5.82921 7.80191 5.75019 8.00082 5.75019C8.19973 5.75019 8.3905 5.82921 8.53115 5.96986C8.6718 6.11051 8.75082 6.30128 8.75082 6.50019V8.50019C8.75082 8.6991 8.6718 8.88987 8.53115 9.03052C8.3905 9.17117 8.19973 9.25019 8.00082 9.25019C7.80191 9.25019 7.61114 9.17117 7.47049 9.03052C7.32984 8.88987 7.25082 8.6991 7.25082 8.50019ZM9.00082 11.0002C9.00082 11.198 8.94217 11.3913 8.83229 11.5558C8.72241 11.7202 8.56623 11.8484 8.38351 11.9241C8.20078 11.9998 7.99971 12.0196 7.80573 11.981C7.61175 11.9424 7.43357 11.8471 7.29372 11.7073C7.15386 11.5674 7.05862 11.3893 7.02004 11.1953C6.98145 11.0013 7.00125 10.8002 7.07694 10.6175C7.15263 10.4348 7.2808 10.2786 7.44525 10.1687C7.6097 10.0588 7.80304 10.0002 8.00082 10.0002C8.26604 10.0002 8.52039 10.1055 8.70793 10.2931C8.89546 10.4806 9.00082 10.735 9.00082 11.0002Z" fill="#DF1C41"/>
</svg>
