<svg width="20" height="20" viewBox="0 0 20 20" fill="none" xmlns="http://www.w3.org/2000/svg">
<path d="M17.5 3.125V5.9375C17.5 6.10326 17.4342 6.26223 17.3169 6.37944C17.1997 6.49665 17.0408 6.5625 16.875 6.5625C16.7092 6.5625 16.5503 6.49665 16.4331 6.37944C16.3158 6.26223 16.25 6.10326 16.25 5.9375V3.75H14.0625C13.8967 3.75 13.7378 3.68415 13.6206 3.56694C13.5033 3.44973 13.4375 3.29076 13.4375 3.125C13.4375 2.95924 13.5033 2.80027 13.6206 2.68306C13.7378 2.56585 13.8967 2.5 14.0625 2.5H16.875C17.0408 2.5 17.1997 2.56585 17.3169 2.68306C17.4342 2.80027 17.5 2.95924 17.5 3.125ZM16.875 13.4375C16.7092 13.4375 16.5503 13.5033 16.4331 13.6206C16.3158 13.7378 16.25 13.8967 16.25 14.0625V16.25H14.0625C13.8967 16.25 13.7378 16.3158 13.6206 16.4331C13.5033 16.5503 13.4375 16.7092 13.4375 16.875C13.4375 17.0408 13.5033 17.1997 13.6206 17.3169C13.7378 17.4342 13.8967 17.5 14.0625 17.5H16.875C17.0408 17.5 17.1997 17.4342 17.3169 17.3169C17.4342 17.1997 17.5 17.0408 17.5 16.875V14.0625C17.5 13.8967 17.4342 13.7378 17.3169 13.6206C17.1997 13.5033 17.0408 13.4375 16.875 13.4375ZM5.9375 16.25H3.75V14.0625C3.75 13.8967 3.68415 13.7378 3.56694 13.6206C3.44973 13.5033 3.29076 13.4375 3.125 13.4375C2.95924 13.4375 2.80027 13.5033 2.68306 13.6206C2.56585 13.7378 2.5 13.8967 2.5 14.0625V16.875C2.5 17.0408 2.56585 17.1997 2.68306 17.3169C2.80027 17.4342 2.95924 17.5 3.125 17.5H5.9375C6.10326 17.5 6.26223 17.4342 6.37944 17.3169C6.49665 17.1997 6.5625 17.0408 6.5625 16.875C6.5625 16.7092 6.49665 16.5503 6.37944 16.4331C6.26223 16.3158 6.10326 16.25 5.9375 16.25ZM3.125 6.5625C3.29076 6.5625 3.44973 6.49665 3.56694 6.37944C3.68415 6.26223 3.75 6.10326 3.75 5.9375V3.75H5.9375C6.10326 3.75 6.26223 3.68415 6.37944 3.56694C6.49665 3.44973 6.5625 3.29076 6.5625 3.125C6.5625 2.95924 6.49665 2.80027 6.37944 2.68306C6.26223 2.56585 6.10326 2.5 5.9375 2.5H3.125C2.95924 2.5 2.80027 2.56585 2.68306 2.68306C2.56585 2.80027 2.5 2.95924 2.5 3.125V5.9375C2.5 6.10326 2.56585 6.26223 2.68306 6.37944C2.80027 6.49665 2.95924 6.5625 3.125 6.5625ZM10 15.625C8.88748 15.625 7.79994 15.2951 6.87492 14.677C5.94989 14.0589 5.22892 13.1804 4.80318 12.1526C4.37743 11.1248 4.26604 9.99376 4.48308 8.90262C4.70012 7.81147 5.23585 6.80919 6.02252 6.02252C6.80919 5.23585 7.81147 4.70012 8.90262 4.48308C9.99376 4.26604 11.1248 4.37743 12.1526 4.80318C13.1804 5.22892 14.0589 5.94989 14.677 6.87492C15.2951 7.79994 15.625 8.88748 15.625 10C15.6233 11.4913 15.0302 12.9211 13.9756 13.9756C12.9211 15.0302 11.4913 15.6233 10 15.625ZM14.375 10C14.375 9.13471 14.1184 8.28885 13.6377 7.56938C13.1569 6.84992 12.4737 6.28916 11.6742 5.95803C10.8748 5.62689 9.99515 5.54025 9.14648 5.70906C8.29781 5.87787 7.51826 6.29455 6.90641 6.90641C6.29455 7.51826 5.87787 8.29781 5.70906 9.14648C5.54025 9.99515 5.62689 10.8748 5.95803 11.6742C6.28916 12.4737 6.84992 13.1569 7.56938 13.6377C8.28885 14.1184 9.13471 14.375 10 14.375C11.1599 14.3738 12.272 13.9124 13.0922 13.0922C13.9124 12.272 14.3738 11.1599 14.375 10ZM9.0625 9.0625C9.0625 8.87708 9.00752 8.69582 8.9045 8.54165C8.80149 8.38748 8.65507 8.26732 8.48377 8.19636C8.31246 8.12541 8.12396 8.10684 7.9421 8.14301C7.76025 8.17919 7.5932 8.26848 7.46209 8.39959C7.33098 8.5307 7.24169 8.69775 7.20551 8.8796C7.16934 9.06146 7.18791 9.24996 7.25886 9.42127C7.32982 9.59257 7.44998 9.73899 7.60415 9.842C7.75832 9.94502 7.93958 10 8.125 10C8.37364 10 8.6121 9.90123 8.78791 9.72541C8.96373 9.5496 9.0625 9.31114 9.0625 9.0625ZM11.875 8.125C11.6896 8.125 11.5083 8.17998 11.3542 8.283C11.2 8.38601 11.0798 8.53243 11.0089 8.70373C10.9379 8.87504 10.9193 9.06354 10.9555 9.2454C10.9917 9.42725 11.081 9.5943 11.2121 9.72541C11.3432 9.85652 11.5102 9.94581 11.6921 9.98199C11.874 10.0182 12.0625 9.99959 12.2338 9.92864C12.4051 9.85768 12.5515 9.73752 12.6545 9.58335C12.7575 9.42918 12.8125 9.24792 12.8125 9.0625C12.8125 8.81386 12.7137 8.5754 12.5379 8.39959C12.3621 8.22377 12.1236 8.125 11.875 8.125ZM11.4617 11.4062C11.1641 11.6695 10.5242 11.875 10 11.875C9.47578 11.875 8.83594 11.6695 8.53828 11.4062C8.47697 11.3504 8.40516 11.3074 8.32705 11.2796C8.24894 11.2518 8.16608 11.2399 8.0833 11.2444C8.00052 11.249 7.91947 11.27 7.84488 11.3061C7.77028 11.3423 7.70363 11.393 7.6488 11.4552C7.59397 11.5173 7.55207 11.5898 7.52552 11.6684C7.49897 11.7469 7.48832 11.8299 7.49417 11.9126C7.50003 11.9953 7.52228 12.076 7.55963 12.15C7.59697 12.2241 7.64868 12.2899 7.71172 12.3438C8.32344 12.8836 9.30156 13.125 10 13.125C10.6984 13.125 11.6766 12.8836 12.2883 12.3438C12.3513 12.2899 12.403 12.2241 12.4404 12.15C12.4777 12.076 12.5 11.9953 12.5058 11.9126C12.5117 11.8299 12.501 11.7469 12.4745 11.6684C12.4479 11.5898 12.406 11.5173 12.3512 11.4552C12.2964 11.393 12.2297 11.3423 12.1551 11.3061C12.0805 11.27 11.9995 11.249 11.9167 11.2444C11.8339 11.2399 11.7511 11.2518 11.6729 11.2796C11.5948 11.3074 11.523 11.3504 11.4617 11.4062Z" fill="white"/>
</svg>
