<svg width="18" height="18" viewBox="0 0 18 18" fill="none" xmlns="http://www.w3.org/2000/svg">
<path d="M16.7104 7.47747L11.0854 1.85247C11.0068 1.77376 10.9066 1.72013 10.7975 1.69837C10.6884 1.6766 10.5753 1.68768 10.4725 1.73021C10.3697 1.77273 10.2818 1.84479 10.2199 1.93726C10.1581 2.02974 10.125 2.13848 10.125 2.24974V5.08685C8.30105 5.24294 6.2866 6.13591 4.62933 7.54146C2.63386 9.23458 1.39144 11.4164 1.13058 13.6847C1.1102 13.861 1.14595 14.0393 1.23276 14.1941C1.31957 14.349 1.45301 14.4725 1.61409 14.5471C1.77517 14.6218 1.95568 14.6437 2.12993 14.6098C2.30419 14.5758 2.46331 14.4878 2.58464 14.3583C3.35808 13.5349 6.11011 10.9312 10.125 10.702V13.4997C10.125 13.611 10.1581 13.7197 10.2199 13.8122C10.2818 13.9047 10.3697 13.9767 10.4725 14.0193C10.5753 14.0618 10.6884 14.0729 10.7975 14.0511C10.9066 14.0293 11.0068 13.9757 11.0854 13.897L16.7104 8.27201C16.8156 8.16656 16.8747 8.02369 16.8747 7.87474C16.8747 7.72579 16.8156 7.58292 16.7104 7.47747ZM11.25 12.142V10.1247C11.25 9.97556 11.1907 9.83248 11.0852 9.72699C10.9797 9.6215 10.8366 9.56224 10.6875 9.56224C8.71308 9.56224 6.79003 10.0776 4.97175 11.0951C4.0457 11.6155 3.18287 12.2412 2.40043 12.9597C2.80824 11.2835 3.83621 9.68951 5.35707 8.39927C6.98972 7.01482 8.98238 6.18724 10.6875 6.18724C10.8366 6.18724 10.9797 6.12798 11.0852 6.02249C11.1907 5.917 11.25 5.77392 11.25 5.62474V3.60818L15.5172 7.87474L11.25 12.142Z" fill="black"/>
</svg>
