<svg width="64" height="65" viewBox="0 0 64 65" fill="none" xmlns="http://www.w3.org/2000/svg">
<path d="M52 10.1846H12C10.9391 10.1846 9.92172 10.606 9.17157 11.3561C8.42143 12.1063 8 13.1237 8 14.1846V28.1846C8 41.3646 14.38 49.3521 19.7325 53.7321C25.4975 58.4471 31.2325 60.0496 31.4825 60.1146C31.8263 60.2081 32.1887 60.2081 32.5325 60.1146C32.7825 60.0496 38.51 58.4471 44.2825 53.7321C49.62 49.3521 56 41.3646 56 28.1846V14.1846C56 13.1237 55.5786 12.1063 54.8284 11.3561C54.0783 10.606 53.0609 10.1846 52 10.1846ZM30 24.1846C30 23.6541 30.2107 23.1454 30.5858 22.7704C30.9609 22.3953 31.4696 22.1846 32 22.1846C32.5304 22.1846 33.0391 22.3953 33.4142 22.7704C33.7893 23.1454 34 23.6541 34 24.1846V34.1846C34 34.715 33.7893 35.2237 33.4142 35.5988C33.0391 35.9739 32.5304 36.1846 32 36.1846C31.4696 36.1846 30.9609 35.9739 30.5858 35.5988C30.2107 35.2237 30 34.715 30 34.1846V24.1846ZM32 46.1846C31.4067 46.1846 30.8266 46.0086 30.3333 45.679C29.8399 45.3493 29.4554 44.8808 29.2284 44.3326C29.0013 43.7844 28.9419 43.1812 29.0576 42.5993C29.1734 42.0174 29.4591 41.4828 29.8787 41.0633C30.2982 40.6437 30.8328 40.358 31.4147 40.2422C31.9967 40.1265 32.5999 40.1859 33.148 40.4129C33.6962 40.64 34.1648 41.0245 34.4944 41.5179C34.8241 42.0112 35 42.5912 35 43.1846C35 43.9802 34.6839 44.7433 34.1213 45.3059C33.5587 45.8685 32.7956 46.1846 32 46.1846Z" fill="#438BFF"/>
</svg>
