<svg width="40" height="40" viewBox="0 0 40 40" fill="none" xmlns="http://www.w3.org/2000/svg">
<path d="M36.7569 13.1839L32.3726 16.8839L33.7101 22.4136C33.8071 22.8139 33.7833 23.234 33.6418 23.6208C33.5002 24.0077 33.2472 24.3439 32.9148 24.587C32.5783 24.8343 32.1763 24.9764 31.7592 24.9956C31.3421 25.0148 30.9287 24.9101 30.571 24.6949L25.6257 21.7183L20.6804 24.6964C20.3229 24.9123 19.9094 25.0173 19.4921 24.9981C19.0749 24.9789 18.6728 24.8364 18.3366 24.5886C18.0035 24.3459 17.75 24.0098 17.6081 23.6229C17.4663 23.236 17.4425 22.8156 17.5398 22.4152L18.8773 16.8855L14.4944 13.1839C14.177 12.9156 13.9467 12.5589 13.8329 12.1592C13.719 11.7595 13.7268 11.3349 13.8552 10.9397C13.9836 10.5444 14.2268 10.1963 14.5538 9.93985C14.8809 9.68336 15.2768 9.53008 15.6913 9.49954L21.4632 9.04329L23.6835 3.78392C23.8457 3.40305 24.1163 3.07828 24.4616 2.84999C24.8069 2.62171 25.2117 2.5 25.6257 2.5C26.0397 2.5 26.4445 2.62171 26.7898 2.84999C27.1351 3.07828 27.4057 3.40305 27.5679 3.78392L29.7882 9.04329L35.5601 9.49954C35.9745 9.53008 36.3705 9.68336 36.6975 9.93985C37.0246 10.1963 37.2678 10.5444 37.3962 10.9397C37.5246 11.3349 37.5323 11.7595 37.4185 12.1592C37.3047 12.5589 37.0743 12.9156 36.7569 13.1839ZM13.7679 17.4824C13.6518 17.3661 13.5139 17.2739 13.3622 17.211C13.2104 17.1481 13.0478 17.1157 12.8835 17.1157C12.7192 17.1157 12.5566 17.1481 12.4048 17.211C12.2531 17.2739 12.1152 17.3661 11.9991 17.4824L2.86632 26.6152C2.63177 26.8497 2.5 27.1678 2.5 27.4995C2.5 27.8312 2.63177 28.1494 2.86632 28.3839C3.10087 28.6185 3.41899 28.7502 3.7507 28.7502C4.0824 28.7502 4.40052 28.6185 4.63507 28.3839L13.7679 19.2511C13.8841 19.135 13.9763 18.9972 14.0392 18.8454C14.1021 18.6937 14.1345 18.531 14.1345 18.3667C14.1345 18.2025 14.1021 18.0398 14.0392 17.8881C13.9763 17.7363 13.8841 17.5984 13.7679 17.4824ZM13.6898 27.0433L5.36632 35.3652C5.25018 35.4813 5.15806 35.6192 5.0952 35.7709C5.03235 35.9227 5 36.0853 5 36.2495C5 36.4138 5.03235 36.5764 5.0952 36.7282C5.15806 36.8799 5.25018 37.0178 5.36632 37.1339C5.60087 37.3685 5.91899 37.5002 6.25069 37.5002C6.41494 37.5002 6.57757 37.4679 6.72932 37.405C6.88106 37.3422 7.01893 37.2501 7.13507 37.1339L15.4569 28.8105C15.6815 28.5742 15.8048 28.2595 15.8006 27.9335C15.7964 27.6076 15.6651 27.2961 15.4346 27.0656C15.2041 26.8351 14.8927 26.7038 14.5667 26.6996C14.2408 26.6954 13.9261 26.8188 13.6898 27.0433ZM25.096 26.887L16.6132 35.3683C16.4971 35.4844 16.4049 35.6223 16.3421 35.774C16.2792 35.9258 16.2469 36.0884 16.2469 36.2527C16.2469 36.4169 16.2792 36.5795 16.3421 36.7313C16.4049 36.883 16.4971 37.0209 16.6132 37.137C16.8477 37.3716 17.1659 37.5034 17.4976 37.5034C17.6618 37.5034 17.8244 37.471 17.9762 37.4082C18.1279 37.3453 18.2658 37.2532 18.3819 37.137L26.8632 28.6558C27.0977 28.4214 27.2296 28.1035 27.2297 27.772C27.2299 27.4404 27.0983 27.1224 26.864 26.8878C26.6296 26.6533 26.3117 26.5214 25.9802 26.5213C25.6486 26.5211 25.3306 26.6527 25.096 26.887Z" fill="#6912C5"/>
</svg>
