<svg width="168" height="48" viewBox="0 0 168 48" fill="none" xmlns="http://www.w3.org/2000/svg">
<rect x="0.295898" width="167" height="48" rx="12" fill="#592FF4"/>
<g clip-path="url(#clip0_2034_10374)">
<path fill-rule="evenodd" clip-rule="evenodd" d="M100.822 11.8662C98.7559 11.8662 97.0811 13.5176 97.0811 15.5548V32.3303C97.0811 34.3674 98.7559 36.0188 100.822 36.0188H131.308C133.374 36.0188 135.049 34.3674 135.049 32.3303V15.5548C135.049 13.5176 133.374 11.8662 131.308 11.8662H100.822ZM106.087 28.7207V24.4686H108.8C111.279 24.4686 112.597 23.0983 112.597 21.0217C112.597 18.945 111.279 17.7019 108.8 17.7019H104.339V28.7207H106.087ZM106.087 19.3406H108.399C110.003 19.3406 110.792 19.9904 110.792 21.0782C110.792 22.1659 110.032 22.8157 108.47 22.8157H106.087V19.3406ZM115.679 28.9467C117.011 28.9467 117.885 28.3675 118.286 27.3786C118.401 28.4806 119.074 29.0457 120.536 28.6642L120.55 27.4917C119.962 27.5482 119.848 27.3363 119.848 26.7289V23.847C119.848 22.1518 118.716 21.1488 116.624 21.1488C114.561 21.1488 113.372 22.1659 113.372 23.8894H114.976C114.976 23.07 115.564 22.5756 116.595 22.5756C117.684 22.5756 118.186 23.0418 118.172 23.847V24.2143L116.323 24.4121C114.246 24.6381 113.099 25.4151 113.099 26.7712C113.099 27.8872 113.902 28.9467 115.679 28.9467ZM116.037 27.6753C115.134 27.6753 114.776 27.195 114.776 26.7147C114.776 26.0649 115.521 25.7682 116.982 25.5987L118.128 25.4716C118.057 26.7146 117.212 27.6753 116.037 27.6753ZM125.857 29.2716C125.126 31.0234 123.951 31.546 122.118 31.546H121.329V30.1052H122.175C123.178 30.1052 123.665 29.7943 124.195 28.9044L120.943 21.3748H122.748L125.069 26.8702L127.132 21.3748H128.894L125.857 29.2716Z" fill="white"/>
<path d="M41.1585 22.4822C38.7652 21.9703 37.6989 21.77 37.6989 20.8607C37.6989 20.0054 38.4205 19.5793 39.8636 19.5793C41.1328 19.5793 42.0605 20.1262 42.7434 21.1977C42.7949 21.2804 42.9012 21.309 42.9882 21.2645L45.6811 19.9227C45.7778 19.875 45.8132 19.7542 45.7584 19.662C44.6407 17.7511 42.5759 16.7051 39.8572 16.7051C36.2848 16.7051 34.0654 18.4411 34.0654 21.2009C34.0654 24.1324 36.768 24.8732 39.1646 25.3851C41.5612 25.897 42.6306 26.0973 42.6306 27.0066C42.6306 27.916 41.8511 28.3452 40.2953 28.3452C38.8586 28.3452 37.7924 27.6966 37.1481 26.4375C37.0998 26.3453 36.9871 26.3072 36.8937 26.3549L34.2072 27.668C34.1137 27.7157 34.0751 27.827 34.1234 27.9224C35.1896 30.0367 37.3768 31.2258 40.2985 31.2258C44.019 31.2258 46.2674 29.5184 46.2674 26.6728C46.2674 23.8272 43.5519 23.0005 41.1585 22.4886V22.4822Z" fill="white"/>
<path d="M55.5887 16.7054C54.0618 16.7054 52.7122 17.2396 51.7426 18.1902C51.6814 18.2475 51.5815 18.2061 51.5815 18.1235V12.0538C51.5815 11.9489 51.4977 11.8662 51.3915 11.8662H48.022C47.9158 11.8662 47.832 11.9489 47.832 12.0538V30.8924C47.832 30.9973 47.9158 31.0799 48.022 31.0799H51.3915C51.4977 31.0799 51.5815 30.9973 51.5815 30.8924V22.6288C51.5815 21.0327 52.8217 19.8086 54.4934 19.8086C56.1653 19.8086 57.3765 21.0073 57.3765 22.6288V30.8924C57.3765 30.9973 57.4602 31.0799 57.5665 31.0799H60.9359C61.0423 31.0799 61.126 30.9973 61.126 30.8924V22.6288C61.126 19.1568 58.8196 16.7086 55.5887 16.7086V16.7054Z" fill="white"/>
<path d="M67.9615 16.165C66.1319 16.165 64.4182 16.7183 63.1877 17.5163C63.1039 17.5704 63.075 17.6817 63.1264 17.7675L64.6115 20.2698C64.6663 20.3588 64.7821 20.3906 64.8723 20.3365C65.8066 19.7801 66.876 19.4908 67.968 19.4972C70.9089 19.4972 73.0704 21.5447 73.0704 24.2505C73.0704 26.5556 71.3406 28.263 69.1469 28.263C67.3591 28.263 66.119 27.2361 66.119 25.7862C66.119 24.9564 66.4765 24.2759 67.4074 23.7958C67.5041 23.745 67.5395 23.6273 67.4816 23.5351L66.0803 21.195C66.0353 21.1187 65.9386 21.0837 65.8516 21.1155C63.9736 21.8023 62.6562 23.4556 62.6562 25.6749C62.6562 29.0325 65.3652 31.538 69.1437 31.538C73.5568 31.538 76.7296 28.5206 76.7296 24.1933C76.7296 19.5544 73.0381 16.165 67.9615 16.165Z" fill="white"/>
<path d="M86.5832 16.6799C84.879 16.6799 83.3587 17.2999 82.2474 18.3937C82.1862 18.4541 82.0864 18.4096 82.0864 18.3269V17.0106C82.0864 16.9057 82.0026 16.823 81.8962 16.823H78.6138C78.5076 16.823 78.4238 16.9057 78.4238 17.0106V35.8205C78.4238 35.9254 78.5076 36.0081 78.6138 36.0081H81.9833C82.0895 36.0081 82.1733 35.9254 82.1733 35.8205V29.6524C82.1733 29.5696 82.2732 29.5283 82.3343 29.5824C83.4425 30.5998 84.9081 31.1944 86.5863 31.1944C90.5388 31.1944 93.6214 28.0371 93.6214 23.9356C93.6214 19.834 90.5355 16.6768 86.5863 16.6768L86.5832 16.6799ZM85.9485 28.0085C83.7002 28.0085 81.9962 26.2439 81.9962 23.9101C81.9962 21.5764 83.6969 19.8117 85.9485 19.8117C88.2001 19.8117 89.8978 21.5477 89.8978 23.9101C89.8978 26.2725 88.2228 28.0085 85.9453 28.0085H85.9485Z" fill="white"/>
</g>
<defs>
<clipPath id="clip0_2034_10374">
<rect width="102.504" height="24.2677" fill="white" transform="translate(32.5439 11.8662)"/>
</clipPath>
</defs>
</svg>

