<svg width="20" height="20" viewBox="0 0 20 20" fill="none" xmlns="http://www.w3.org/2000/svg">
<path d="M12.7742 1.93815C12.6691 1.88694 12.5518 1.86623 12.4355 1.87839C12.3192 1.89054 12.2086 1.93507 12.1164 2.0069L6.66016 6.24987H3.125C2.79348 6.24987 2.47554 6.38157 2.24112 6.61599C2.0067 6.85041 1.875 7.16835 1.875 7.49987V12.4999C1.875 12.8314 2.0067 13.1493 2.24112 13.3838C2.47554 13.6182 2.79348 13.7499 3.125 13.7499H6.66016L12.1164 17.9928C12.2087 18.0646 12.3194 18.1091 12.4357 18.1211C12.552 18.1331 12.6694 18.1123 12.7745 18.0609C12.8795 18.0096 12.9681 17.9298 13.03 17.8306C13.092 17.7314 13.1249 17.6168 13.125 17.4999V2.49987C13.125 2.38279 13.0921 2.26805 13.0301 2.16874C12.9681 2.06942 12.8794 1.98953 12.7742 1.93815ZM11.875 16.2217L7.25859 12.6319C7.14914 12.5461 7.01405 12.4996 6.875 12.4999H3.125V7.49987H6.875C7.01405 7.5001 7.14914 7.4536 7.25859 7.36784L11.875 3.778V16.2217ZM16.25 8.12487V11.8749C16.25 12.0406 16.1842 12.1996 16.0669 12.3168C15.9497 12.434 15.7908 12.4999 15.625 12.4999C15.4592 12.4999 15.3003 12.434 15.1831 12.3168C15.0658 12.1996 15 12.0406 15 11.8749V8.12487C15 7.95911 15.0658 7.80014 15.1831 7.68293C15.3003 7.56572 15.4592 7.49987 15.625 7.49987C15.7908 7.49987 15.9497 7.56572 16.0669 7.68293C16.1842 7.80014 16.25 7.95911 16.25 8.12487ZM18.75 6.87487V13.1249C18.75 13.2906 18.6842 13.4496 18.5669 13.5668C18.4497 13.684 18.2908 13.7499 18.125 13.7499C17.9592 13.7499 17.8003 13.684 17.6831 13.5668C17.5658 13.4496 17.5 13.2906 17.5 13.1249V6.87487C17.5 6.70911 17.5658 6.55014 17.6831 6.43293C17.8003 6.31572 17.9592 6.24987 18.125 6.24987C18.2908 6.24987 18.4497 6.31572 18.5669 6.43293C18.6842 6.55014 18.75 6.70911 18.75 6.87487Z" fill="black"/>
</svg>
