<svg width="88" height="88" viewBox="0 0 88 88" fill="none" xmlns="http://www.w3.org/2000/svg">
<path d="M35.7529 1.66504C37.3956 0.257754 39.4668 0.156763 41.7471 0.884766C44.0349 1.61525 46.46 3.16196 48.6934 4.92676C50.9212 6.6872 52.9301 8.64265 54.3838 10.1602C55.11 10.9183 55.6963 11.566 56.1006 12.0234C56.3027 12.2521 56.4597 12.4331 56.5654 12.5566C56.618 12.6181 56.6578 12.6655 56.6846 12.6973C56.698 12.7131 56.7082 12.7255 56.7148 12.7334C56.7182 12.7374 56.7211 12.7403 56.7227 12.7422L56.7246 12.7441L56.9531 13.0195L57.2686 12.8525L57.2695 12.8516C57.2702 12.8512 57.2711 12.8503 57.2725 12.8496C57.2758 12.8479 57.2812 12.8454 57.2881 12.8418C57.302 12.8345 57.3236 12.8239 57.3516 12.8096C57.4078 12.7808 57.4918 12.7382 57.6006 12.6846C57.8183 12.5772 58.1359 12.4245 58.5322 12.2461C59.3254 11.8891 60.4315 11.4287 61.6826 11.0156C64.2139 10.1799 67.2294 9.57548 69.4688 10.2842C71.3423 10.8771 72.6555 12.3931 73.5654 14.4258C74.4758 16.4595 74.9571 18.9585 75.1875 21.4092C75.4175 23.8551 75.3962 26.2258 75.3164 27.9873C75.2766 28.867 75.2219 29.5932 75.1777 30.0986C75.1557 30.3511 75.1361 30.5489 75.1221 30.6826C75.1151 30.7495 75.1093 30.801 75.1055 30.835C75.1036 30.8518 75.1025 30.8647 75.1016 30.873C75.1011 30.8769 75.1008 30.8799 75.1006 30.8818L75.0996 30.8838V30.8848L75.0479 31.3213L75.4844 31.374H75.4893C75.4927 31.3744 75.4978 31.3761 75.5049 31.377C75.5193 31.3788 75.5414 31.3809 75.5703 31.3848C75.6283 31.3924 75.7149 31.4045 75.8262 31.4209C76.0487 31.4536 76.3716 31.5041 76.7686 31.5762C77.5634 31.7205 78.6539 31.9497 79.8369 32.2881C82.2301 32.9726 84.8994 34.0776 86.335 35.7529C87.7422 37.3956 87.8432 39.4668 87.1152 41.7471C86.3847 44.0349 84.838 46.46 83.0732 48.6934C81.3128 50.9212 79.3573 52.9301 77.8398 54.3838C77.0817 55.11 76.434 55.6963 75.9766 56.1006C75.7479 56.3027 75.5669 56.4597 75.4434 56.5654C75.3819 56.618 75.3345 56.6578 75.3027 56.6846C75.2869 56.698 75.2745 56.7082 75.2666 56.7148C75.2626 56.7182 75.2597 56.7211 75.2578 56.7227L75.2559 56.7246L74.9805 56.9531L75.1475 57.2686L75.1484 57.2695C75.1488 57.2702 75.1497 57.2711 75.1504 57.2725C75.1521 57.2758 75.1546 57.2812 75.1582 57.2881C75.1655 57.302 75.1761 57.3236 75.1904 57.3516C75.2192 57.4078 75.2618 57.4918 75.3154 57.6006C75.4228 57.8183 75.5755 58.1359 75.7539 58.5322C76.1109 59.3254 76.5713 60.4315 76.9844 61.6826C77.8201 64.2139 78.4245 67.2294 77.7158 69.4688C77.1229 71.3423 75.6069 72.6555 73.5742 73.5654C71.5405 74.4758 69.0415 74.9571 66.5908 75.1875C64.1449 75.4175 61.7742 75.3962 60.0127 75.3164C59.133 75.2766 58.4068 75.2219 57.9014 75.1777C57.6489 75.1557 57.4511 75.1361 57.3174 75.1221C57.2505 75.1151 57.199 75.1093 57.165 75.1055C57.1482 75.1036 57.1353 75.1025 57.127 75.1016C57.1231 75.1011 57.1201 75.1008 57.1182 75.1006L57.1162 75.0996H57.1152L56.6787 75.0479L56.626 75.4844V75.4893C56.6256 75.4927 56.6239 75.4978 56.623 75.5049C56.6212 75.5193 56.6191 75.5414 56.6152 75.5703C56.6076 75.6283 56.5955 75.7149 56.5791 75.8262C56.5464 76.0487 56.4959 76.3716 56.4238 76.7686C56.2795 77.5634 56.0503 78.6539 55.7119 79.8369C55.0274 82.2301 53.9224 84.8994 52.2471 86.335C50.6044 87.7422 48.5332 87.8432 46.2529 87.1152C43.9651 86.3847 41.54 84.838 39.3066 83.0732C37.0788 81.3128 35.0699 79.3573 33.6162 77.8398C32.89 77.0817 32.3037 76.434 31.8994 75.9766C31.6973 75.7479 31.5403 75.5669 31.4346 75.4434C31.382 75.3819 31.3422 75.3345 31.3154 75.3027C31.3021 75.2869 31.2918 75.2745 31.2852 75.2666C31.2818 75.2626 31.2789 75.2597 31.2773 75.2578L31.2754 75.2559L31.0469 74.9805L30.7314 75.1475L30.7305 75.1484C30.7297 75.1488 30.728 75.1496 30.7266 75.1504C30.7233 75.1521 30.7184 75.1548 30.7119 75.1582C30.698 75.1655 30.6764 75.1761 30.6484 75.1904C30.5922 75.2192 30.5082 75.2618 30.3994 75.3154C30.1817 75.4228 29.8641 75.5755 29.4678 75.7539C28.6746 76.1109 27.5685 76.5713 26.3174 76.9844C23.7861 77.8201 20.7706 78.4245 18.5312 77.7158C16.6577 77.1229 15.3445 75.6069 14.4346 73.5742C13.5242 71.5405 13.0429 69.0415 12.8125 66.5908C12.5825 64.1449 12.6038 61.7742 12.6836 60.0127C12.7234 59.133 12.7781 58.4068 12.8223 57.9014C12.8443 57.6489 12.8639 57.4511 12.8779 57.3174C12.8849 57.2505 12.8907 57.199 12.8945 57.165C12.8964 57.1482 12.8975 57.1353 12.8984 57.127C12.8989 57.1231 12.8992 57.1201 12.8994 57.1182L12.9004 57.1162V57.1152L12.9521 56.6787L12.5156 56.626H12.5107C12.5073 56.6256 12.5022 56.6239 12.4951 56.623C12.4807 56.6212 12.4586 56.6191 12.4297 56.6152C12.3717 56.6076 12.2851 56.5955 12.1738 56.5791C11.9513 56.5464 11.6284 56.4959 11.2314 56.4238C10.4366 56.2795 9.34608 56.0503 8.16309 55.7119C5.76987 55.0274 3.10058 53.9224 1.66504 52.2471C0.257752 50.6044 0.156763 48.5332 0.884766 46.2529C1.61525 43.9651 3.16196 41.54 4.92676 39.3066C6.6872 37.0788 8.64265 35.0699 10.1602 33.6162C10.9183 32.89 11.566 32.3037 12.0234 31.8994C12.2521 31.6973 12.4331 31.5403 12.5566 31.4346C12.6183 31.3818 12.6655 31.3412 12.6973 31.3145C12.7131 31.3011 12.7255 31.2918 12.7334 31.2852C12.7374 31.2818 12.7403 31.2789 12.7422 31.2773L12.7441 31.2754L13.0195 31.0469L12.8525 30.7314L12.8516 30.7305C12.8512 30.7297 12.8504 30.728 12.8496 30.7266C12.8479 30.7233 12.8452 30.7184 12.8418 30.7119C12.8345 30.698 12.8239 30.6764 12.8096 30.6484C12.7808 30.5922 12.7382 30.5082 12.6846 30.3994C12.5772 30.1817 12.4245 29.8641 12.2461 29.4678C11.8891 28.6746 11.4287 27.5685 11.0156 26.3174C10.1799 23.7861 9.57548 20.7706 10.2842 18.5312C10.8771 16.6577 12.3931 15.3445 14.4258 14.4346C16.4595 13.5242 18.9585 13.0429 21.4092 12.8125C23.8551 12.5825 26.2258 12.6038 27.9873 12.6836C28.867 12.7234 29.5932 12.7781 30.0986 12.8223C30.3511 12.8443 30.5489 12.8639 30.6826 12.8779C30.7495 12.8849 30.801 12.8907 30.835 12.8945C30.8518 12.8964 30.8647 12.8975 30.873 12.8984C30.8769 12.8989 30.8799 12.8992 30.8818 12.8994L30.8838 12.9004H30.8848L31.3213 12.9521L31.374 12.5156V12.5107C31.3744 12.5073 31.3761 12.5022 31.377 12.4951C31.3788 12.4807 31.3809 12.4586 31.3848 12.4297C31.3924 12.3717 31.4045 12.2851 31.4209 12.1738C31.4536 11.9513 31.5041 11.6284 31.5762 11.2314C31.7205 10.4366 31.9497 9.34608 32.2881 8.16309C32.9726 5.76987 34.0776 3.10058 35.7529 1.66504Z" fill="#0F0072" stroke="#0F0072" stroke-width="0.88"/>
</svg>
