<svg width="66" height="66" viewBox="0 0 66 66" fill="none" xmlns="http://www.w3.org/2000/svg">
<path d="M26.9373 1.13444C32.2745 -3.4388 42.9349 9.38048 42.9349 9.38048C42.9349 9.38048 48.6911 6.33813 52.2226 7.45575C58.2603 9.36654 56.6192 23.0648 56.6192 23.0648C56.6192 23.0648 62.6031 23.7797 64.8652 26.4197C69.4384 31.757 56.6192 42.4173 56.6192 42.4173C56.6192 42.4173 59.6615 48.1735 58.5439 51.705C56.6331 57.7427 42.9349 56.1016 42.9349 56.1016C42.9349 56.1016 42.2199 62.0855 39.5799 64.3476C34.2427 68.9209 23.5824 56.1016 23.5824 56.1016C23.5824 56.1016 17.8262 59.1439 14.2947 58.0263C8.2569 56.1155 9.89806 42.4173 9.89806 42.4173C9.89806 42.4173 3.91412 41.7024 1.65202 39.0623C-2.92123 33.7251 9.89806 23.0648 9.89806 23.0648C9.89806 23.0648 6.85571 17.3086 7.97333 13.7771C9.88412 7.73932 23.5824 9.38048 23.5824 9.38048C23.5824 9.38048 24.2973 3.39654 26.9373 1.13444Z" fill="#438BFF"/>
</svg>
