<svg width="82" height="82" viewBox="0 0 82 82" fill="none" xmlns="http://www.w3.org/2000/svg">
<path d="M33.623 1.54199C35.144 0.238804 37.0614 0.145242 39.1729 0.819336C41.2914 1.49572 43.5373 2.92821 45.6055 4.5625C47.6681 6.19245 49.5281 8.00219 50.874 9.40723C51.5465 10.1092 52.0895 10.7093 52.4639 11.1328C52.6507 11.3442 52.7957 11.5116 52.8936 11.626C52.9425 11.6832 52.9801 11.7274 53.0049 11.7568C53.0172 11.7714 53.0261 11.7827 53.0322 11.79C53.0351 11.7935 53.0376 11.7961 53.0391 11.7979C53.0397 11.7986 53.0407 11.7994 53.041 11.7998V11.8008L53.2529 12.0547L53.5459 11.8994C53.5465 11.8991 53.5477 11.899 53.5488 11.8984C53.5519 11.8968 53.557 11.894 53.5635 11.8906C53.5764 11.8839 53.5961 11.8737 53.6221 11.8604C53.6741 11.8337 53.7518 11.7948 53.8525 11.7451C54.0541 11.6457 54.348 11.504 54.7148 11.3389C55.4493 11.0083 56.4734 10.5827 57.6318 10.2002C59.9757 9.42632 62.7682 8.86622 64.8418 9.52246C66.5762 10.0715 67.7923 11.4747 68.6348 13.3564C69.4778 15.2395 69.9234 17.5541 70.1367 19.8232C70.3496 22.0879 70.3297 24.2831 70.2559 25.9141C70.219 26.7286 70.1689 27.4011 70.1279 27.8691C70.1075 28.1031 70.0891 28.2863 70.0762 28.4102L70.0557 28.5947V28.5967L70.0068 29.002L70.4121 29.0498L70.416 29.0508C70.4192 29.0512 70.4241 29.0519 70.4307 29.0527C70.444 29.0544 70.4644 29.057 70.4912 29.0605C70.5449 29.0677 70.6246 29.0786 70.7275 29.0938C70.9336 29.124 71.2329 29.1705 71.6006 29.2373C72.3365 29.3709 73.3461 29.5832 74.4414 29.8965C76.6574 30.5303 79.1288 31.5532 80.458 33.1045C81.7612 34.6255 81.8548 36.5429 81.1807 38.6543C80.5043 40.7729 79.0718 43.0187 77.4375 45.0869C75.8075 47.1496 73.9978 49.0095 72.5928 50.3555C71.8908 51.0279 71.2907 51.571 70.8672 51.9453C70.6558 52.1322 70.4884 52.2771 70.374 52.375C70.3168 52.424 70.2726 52.4615 70.2432 52.4863C70.2286 52.4986 70.2173 52.5075 70.21 52.5137C70.2065 52.5166 70.2039 52.519 70.2021 52.5205C70.2013 52.5212 70.2006 52.5221 70.2002 52.5225H70.1992L69.9453 52.7344L70.1006 53.0273C70.1009 53.028 70.101 53.0291 70.1016 53.0303C70.1032 53.0334 70.106 53.0384 70.1094 53.0449C70.1161 53.0579 70.1263 53.0775 70.1396 53.1035C70.1663 53.1556 70.2052 53.2333 70.2549 53.334C70.3543 53.5356 70.496 53.8294 70.6611 54.1963C70.9917 54.9307 71.4173 55.9548 71.7998 57.1133C72.5737 59.4571 73.1338 62.2496 72.4775 64.3232C71.9285 66.0577 70.5253 67.2737 68.6436 68.1162C66.7605 68.9592 64.4459 69.4048 62.1768 69.6182C59.9121 69.8311 57.7169 69.8112 56.0859 69.7373C55.2713 69.7004 54.5989 69.6503 54.1309 69.6094C53.8969 69.5889 53.7137 69.5706 53.5898 69.5576L53.4053 69.5371H53.4033L52.998 69.4883L52.9502 69.8936L52.9492 69.8975C52.9488 69.9007 52.9481 69.9056 52.9473 69.9121C52.9456 69.9255 52.943 69.9459 52.9395 69.9727C52.9323 70.0263 52.9214 70.1061 52.9062 70.209C52.876 70.415 52.8295 70.7143 52.7627 71.082C52.6291 71.818 52.4168 72.8275 52.1035 73.9229C51.4697 76.1388 50.4468 78.6102 48.8955 79.9395C47.3745 81.2426 45.4571 81.3362 43.3457 80.6621C41.2271 79.9857 38.9813 78.5532 36.9131 76.9189C34.8504 75.289 32.9905 73.4793 31.6445 72.0742C30.9721 71.3723 30.429 70.7722 30.0547 70.3486C29.8678 70.1372 29.7229 69.9698 29.625 69.8555C29.576 69.7983 29.5385 69.754 29.5137 69.7246C29.5014 69.71 29.4924 69.6987 29.4863 69.6914C29.4834 69.6879 29.481 69.6854 29.4795 69.6836C29.4788 69.6828 29.4779 69.682 29.4775 69.6816V69.6807L29.2656 69.4268L28.9736 69.5811L28.9727 69.582C28.972 69.5824 28.9709 69.5824 28.9697 69.583C28.9666 69.5846 28.9616 69.5875 28.9551 69.5908C28.9421 69.5976 28.9225 69.6078 28.8965 69.6211C28.8444 69.6477 28.7667 69.6867 28.666 69.7363C28.4644 69.8357 28.1706 69.9774 27.8037 70.1426C27.0693 70.4732 26.0452 70.8988 24.8867 71.2812C22.543 72.0551 19.7513 72.615 17.6777 71.959C15.9431 71.41 14.7264 70.0069 13.8838 68.125C13.0408 66.2419 12.5952 63.9274 12.3818 61.6582C12.1689 59.3935 12.1888 57.1984 12.2627 55.5674C12.2996 54.7528 12.3497 54.0803 12.3906 53.6123C12.4111 53.3783 12.4294 53.1951 12.4424 53.0713L12.4629 52.8867V52.8848L12.5117 52.4795L12.1064 52.4316L12.1025 52.4307C12.0993 52.4303 12.0944 52.4295 12.0879 52.4287C12.0745 52.427 12.0541 52.4244 12.0273 52.4209C11.9737 52.4138 11.8939 52.4028 11.791 52.3877C11.585 52.3574 11.2864 52.3109 10.9189 52.2441C10.1829 52.1105 9.1727 51.8983 8.07715 51.585C5.86117 50.9512 3.38978 49.9282 2.06055 48.377C0.757371 46.856 0.66379 44.9386 1.33789 42.8271C2.01428 40.7086 3.44677 38.4627 5.08105 36.3945C6.71101 34.3319 8.52075 32.4719 9.92578 31.126C10.6277 30.4535 11.2278 29.9105 11.6514 29.5361C11.8628 29.3493 12.0302 29.2043 12.1445 29.1064C12.2017 29.0575 12.246 29.0199 12.2754 28.9951C12.29 28.9828 12.3013 28.9739 12.3086 28.9678C12.312 28.9649 12.3146 28.9624 12.3164 28.9609C12.3172 28.9603 12.318 28.9593 12.3184 28.959H12.3193L12.5732 28.7471L12.4189 28.4551L12.418 28.4541C12.4176 28.4535 12.4176 28.4523 12.417 28.4512C12.4154 28.4481 12.4125 28.443 12.4092 28.4365C12.4024 28.4236 12.3922 28.4039 12.3789 28.3779C12.3523 28.3259 12.3133 28.2481 12.2637 28.1475C12.1643 27.9459 12.0226 27.6521 11.8574 27.2852C11.5268 26.5507 11.1012 25.5266 10.7188 24.3682C9.94494 22.0245 9.385 19.2327 10.041 17.1592C10.59 15.4245 11.9931 14.2078 13.875 13.3652C15.7581 12.5222 18.0726 12.0766 20.3418 11.8633C22.6065 11.6504 24.8016 11.6703 26.4326 11.7441C27.2472 11.781 27.9197 11.8311 28.3877 11.8721C28.6217 11.8925 28.8049 11.9109 28.9287 11.9238L29.1133 11.9443H29.1152L29.5205 11.9932L29.5684 11.5879L29.5693 11.584C29.5697 11.5808 29.5705 11.5758 29.5713 11.5693C29.573 11.556 29.5756 11.5356 29.5791 11.5088C29.5862 11.4551 29.5972 11.3754 29.6123 11.2725C29.6426 11.0665 29.6891 10.7679 29.7559 10.4004C29.8895 9.66439 30.1017 8.65414 30.415 7.55859C31.0488 5.34261 32.0718 2.87122 33.623 1.54199Z" fill="white" stroke="#0F0072" stroke-width="0.814815"/>
</svg>
