<svg width="19" height="19" viewBox="0 0 19 19" fill="none" xmlns="http://www.w3.org/2000/svg">
<path d="M16.807 8.57557L13.6429 11.3058L14.6069 15.3888C14.6601 15.6105 14.6464 15.8429 14.5675 16.0568C14.4887 16.2707 14.3482 16.4564 14.1639 16.5905C13.9795 16.7245 13.7596 16.801 13.5318 16.8101C13.3041 16.8193 13.0787 16.7607 12.8842 16.6418L9.33345 14.4565L5.78056 16.6418C5.5861 16.76 5.36101 16.818 5.13364 16.8085C4.90628 16.7991 4.6868 16.7225 4.50284 16.5886C4.31889 16.4546 4.17869 16.2692 4.09988 16.0557C4.02108 15.8422 4.00721 15.6102 4.06001 15.3888L5.02751 11.3058L1.86345 8.57557C1.6914 8.42686 1.56696 8.23077 1.50569 8.01176C1.44442 7.79276 1.44902 7.56056 1.51893 7.34416C1.58884 7.12776 1.72095 6.93675 1.89877 6.79499C2.07659 6.65323 2.29223 6.56699 2.51876 6.54705L6.6672 6.21236L8.26751 2.33955C8.35414 2.12848 8.50156 1.94794 8.69106 1.82088C8.88055 1.69382 9.10354 1.62598 9.33169 1.62598C9.55984 1.62598 9.78284 1.69382 9.97233 1.82088C10.1618 1.94794 10.3093 2.12848 10.3959 2.33955L11.9955 6.21236L16.1439 6.54705C16.3709 6.56625 16.5872 6.652 16.7656 6.79357C16.9441 6.93514 17.0768 7.12622 17.1472 7.34289C17.2175 7.55955 17.2224 7.79215 17.1611 8.01155C17.0998 8.23096 16.9752 8.4274 16.8027 8.57627L16.807 8.57557Z" fill="#438BFF"/>
</svg>
