<svg width="19" height="20" viewBox="0 0 19 20" fill="none" xmlns="http://www.w3.org/2000/svg">
<path d="M9.68739 4.37531C11.44 4.37531 12.6222 5.13234 13.2963 5.76494L15.9304 3.19309C14.3126 1.68938 12.2074 0.766418 9.68739 0.766418C6.03702 0.766418 2.88442 2.86123 1.34961 5.91012L4.36739 8.25383C5.12442 6.00346 7.21924 4.37531 9.68739 4.37531Z" fill="#EA4335"/>
<path d="M18.6465 10.3071C18.6465 9.53973 18.5843 8.97973 18.4495 8.39899H9.68652V11.8627H14.8302C14.7265 12.7234 14.1665 14.0197 12.9221 14.8908L15.8673 17.1723C17.6302 15.5442 18.6465 13.1486 18.6465 10.3071Z" fill="#4285F4"/>
<path d="M4.37722 11.9457C4.18018 11.3649 4.06611 10.7427 4.06611 10.0997C4.06611 9.45676 4.18018 8.83454 4.36685 8.2538L1.34907 5.9101C0.716479 7.17528 0.353516 8.59602 0.353516 10.0997C0.353516 11.6034 0.716479 13.0242 1.34907 14.2894L4.37722 11.9457Z" fill="#FBBC05"/>
<path d="M9.68678 19.4331C12.2068 19.4331 14.3223 18.6035 15.8675 17.1723L12.9223 14.8909C12.1342 15.4405 11.0764 15.8242 9.68678 15.8242C7.21863 15.8242 5.12382 14.196 4.37715 11.9457L1.35938 14.2894C2.89419 17.3383 6.03641 19.4331 9.68678 19.4331Z" fill="#34A853"/>
</svg>
