<svg width="25" height="25" viewBox="0 0 25 25" fill="none" xmlns="http://www.w3.org/2000/svg">
<path d="M21.9609 7.86914V11.6191C21.9609 11.8181 21.8819 12.0088 21.7413 12.1495C21.6006 12.2901 21.4098 12.3691 21.2109 12.3691C19.6442 12.3728 18.1 11.9961 16.7109 11.2713V14.9941C16.7109 16.8838 15.9603 18.6961 14.6241 20.0323C13.2879 21.3685 11.4756 22.1191 9.58594 22.1191C7.69627 22.1191 5.884 21.3685 4.5478 20.0323C3.2116 18.6961 2.46094 16.8838 2.46094 14.9941C2.46094 11.5348 4.98375 8.47664 8.32969 7.88039C8.43763 7.86121 8.54846 7.86592 8.65438 7.89419C8.76031 7.92247 8.85874 7.97363 8.94276 8.04406C9.02677 8.11449 9.09433 8.20248 9.14066 8.30184C9.187 8.4012 9.21098 8.50951 9.21094 8.61914V12.6213C9.21098 12.7633 9.17075 12.9023 9.09491 13.0223C9.01907 13.1423 8.91074 13.2383 8.7825 13.2991C8.47935 13.4429 8.22032 13.6654 8.03245 13.9434C7.84458 14.2214 7.73474 14.5447 7.71439 14.8796C7.69404 15.2145 7.76393 15.5487 7.91676 15.8474C8.06959 16.1461 8.29977 16.3983 8.58328 16.5777C8.8668 16.7571 9.19326 16.8571 9.52862 16.8674C9.86398 16.8777 10.1959 16.7977 10.4899 16.636C10.7838 16.4742 11.029 16.2366 11.1998 15.9478C11.3706 15.659 11.4608 15.3297 11.4609 14.9941V2.61914C11.4609 2.42023 11.54 2.22946 11.6806 2.08881C11.8213 1.94816 12.012 1.86914 12.2109 1.86914H15.9609C16.1599 1.86914 16.3506 1.94816 16.4913 2.08881C16.6319 2.22946 16.7109 2.42023 16.7109 2.61914C16.7122 3.81223 17.1867 4.95611 18.0303 5.79975C18.874 6.6434 20.0178 7.1179 21.2109 7.11914C21.4098 7.11914 21.6006 7.19816 21.7413 7.33881C21.8819 7.47946 21.9609 7.67023 21.9609 7.86914Z" fill="#438BFF"/>
</svg>
