<svg width="20" height="21" viewBox="0 0 20 21" fill="none" xmlns="http://www.w3.org/2000/svg">
<path d="M16.875 4.11914H13.75V3.49414C13.75 2.99686 13.5525 2.51995 13.2008 2.16832C12.8492 1.81668 12.3723 1.61914 11.875 1.61914H8.125C7.62772 1.61914 7.15081 1.81668 6.79917 2.16832C6.44754 2.51995 6.25 2.99686 6.25 3.49414V4.11914H3.125C2.95924 4.11914 2.80027 4.18499 2.68306 4.3022C2.56585 4.41941 2.5 4.57838 2.5 4.74414C2.5 4.9099 2.56585 5.06887 2.68306 5.18608C2.80027 5.30329 2.95924 5.36914 3.125 5.36914H3.75V16.6191C3.75 16.9507 3.8817 17.2686 4.11612 17.503C4.35054 17.7374 4.66848 17.8691 5 17.8691H15C15.3315 17.8691 15.6495 17.7374 15.8839 17.503C16.1183 17.2686 16.25 16.9507 16.25 16.6191V5.36914H16.875C17.0408 5.36914 17.1997 5.30329 17.3169 5.18608C17.4342 5.06887 17.5 4.9099 17.5 4.74414C17.5 4.57838 17.4342 4.41941 17.3169 4.3022C17.1997 4.18499 17.0408 4.11914 16.875 4.11914ZM7.5 3.49414C7.5 3.32838 7.56585 3.16941 7.68306 3.0522C7.80027 2.93499 7.95924 2.86914 8.125 2.86914H11.875C12.0408 2.86914 12.1997 2.93499 12.3169 3.0522C12.4342 3.16941 12.5 3.32838 12.5 3.49414V4.11914H7.5V3.49414ZM15 16.6191H5V5.36914H15V16.6191ZM8.75 8.49414V13.4941C8.75 13.6599 8.68415 13.8189 8.56694 13.9361C8.44973 14.0533 8.29076 14.1191 8.125 14.1191C7.95924 14.1191 7.80027 14.0533 7.68306 13.9361C7.56585 13.8189 7.5 13.6599 7.5 13.4941V8.49414C7.5 8.32838 7.56585 8.16941 7.68306 8.0522C7.80027 7.93499 7.95924 7.86914 8.125 7.86914C8.29076 7.86914 8.44973 7.93499 8.56694 8.0522C8.68415 8.16941 8.75 8.32838 8.75 8.49414ZM12.5 8.49414V13.4941C12.5 13.6599 12.4342 13.8189 12.3169 13.9361C12.1997 14.0533 12.0408 14.1191 11.875 14.1191C11.7092 14.1191 11.5503 14.0533 11.4331 13.9361C11.3158 13.8189 11.25 13.6599 11.25 13.4941V8.49414C11.25 8.32838 11.3158 8.16941 11.4331 8.0522C11.5503 7.93499 11.7092 7.86914 11.875 7.86914C12.0408 7.86914 12.1997 7.93499 12.3169 8.0522C12.4342 8.16941 12.5 8.32838 12.5 8.49414Z" fill="white"/>
</svg>
