<svg width="41" height="40" viewBox="0 0 41 40" fill="none" xmlns="http://www.w3.org/2000/svg">
<path d="M38 19.375V30C38 30.663 37.7366 31.2989 37.2678 31.7678C36.7989 32.2366 36.163 32.5 35.5 32.5H5.5C4.83696 32.5 4.20107 32.2366 3.73223 31.7678C3.26339 31.2989 3 30.663 3 30V19.375C3 19.2092 3.06585 19.0503 3.18306 18.9331C3.30027 18.8158 3.45924 18.75 3.625 18.75H9.25V28.75C9.24962 28.9214 9.28448 29.091 9.35242 29.2483C9.42035 29.4056 9.5199 29.5473 9.64489 29.6645C9.76988 29.7817 9.91764 29.872 10.079 29.9297C10.2403 29.9874 10.4118 30.0114 10.5828 30C10.9048 29.9724 11.2043 29.8236 11.4209 29.5838C11.6375 29.344 11.7551 29.0309 11.75 28.7078V18.75H18V21.875C18 22.0408 18.0658 22.1997 18.1831 22.3169C18.3003 22.4342 18.4592 22.5 18.625 22.5H22.375C22.5408 22.5 22.6997 22.4342 22.8169 22.3169C22.9342 22.1997 23 22.0408 23 21.875V18.75H29.25V28.75C29.2496 28.9214 29.2845 29.091 29.3524 29.2483C29.4203 29.4056 29.5199 29.5473 29.6449 29.6645C29.7699 29.7817 29.9176 29.872 30.079 29.9297C30.2403 29.9874 30.4118 30.0114 30.5828 30C30.9042 29.9724 31.2033 29.8241 31.4198 29.5849C31.6364 29.3458 31.7543 29.0335 31.75 28.7109V18.75H37.375C37.5408 18.75 37.6997 18.8158 37.8169 18.9331C37.9342 19.0503 38 19.2092 38 19.375ZM29.25 6.25H11.75C9.42936 6.25 7.20376 7.17187 5.56282 8.81282C3.92187 10.4538 3 12.6794 3 15V15.625C3 15.7908 3.06585 15.9497 3.18306 16.0669C3.30027 16.1842 3.45924 16.25 3.625 16.25H9.25V10.0422C9.24486 9.71906 9.36246 9.40602 9.57908 9.1662C9.7957 8.92638 10.0952 8.77765 10.4172 8.75C10.5882 8.73865 10.7597 8.76257 10.921 8.82029C11.0824 8.878 11.2301 8.96827 11.3551 9.0855C11.4801 9.20272 11.5797 9.34439 11.6476 9.50171C11.7155 9.65903 11.7504 9.82864 11.75 10V16.25H18V14.375C18 14.2092 18.0658 14.0503 18.1831 13.9331C18.3003 13.8158 18.4592 13.75 18.625 13.75H22.375C22.5408 13.75 22.6997 13.8158 22.8169 13.9331C22.9342 14.0503 23 14.2092 23 14.375V16.25H29.25V10.0422C29.2449 9.71906 29.3625 9.40602 29.5791 9.1662C29.7957 8.92638 30.0952 8.77765 30.4172 8.75C30.5882 8.73865 30.7597 8.76257 30.921 8.82029C31.0824 8.878 31.2301 8.96827 31.3551 9.0855C31.4801 9.20272 31.5797 9.34439 31.6476 9.50171C31.7155 9.65903 31.7504 9.82864 31.75 10V16.25H37.375C37.5408 16.25 37.6997 16.1842 37.8169 16.0669C37.9342 15.9497 38 15.7908 38 15.625V15C38 12.6794 37.0781 10.4538 35.4372 8.81282C33.7962 7.17187 31.5706 6.25 29.25 6.25Z" fill="#438BFF"/>
</svg>
