<svg width="33" height="33" viewBox="0 0 33 33" fill="none" xmlns="http://www.w3.org/2000/svg">
<path d="M28.5 18.1365V26.1365C28.5 26.4017 28.3946 26.6561 28.2071 26.8436C28.0196 27.0312 27.7652 27.1365 27.5 27.1365H5.5C5.23478 27.1365 4.98043 27.0312 4.79289 26.8436C4.60536 26.6561 4.5 26.4017 4.5 26.1365V18.1365C4.5 17.8713 4.60536 17.617 4.79289 17.4294C4.98043 17.2419 5.23478 17.1365 5.5 17.1365C5.76522 17.1365 6.01957 17.2419 6.20711 17.4294C6.39464 17.617 6.5 17.8713 6.5 18.1365V25.1365H26.5V18.1365C26.5 17.8713 26.6054 17.617 26.7929 17.4294C26.9804 17.2419 27.2348 17.1365 27.5 17.1365C27.7652 17.1365 28.0196 17.2419 28.2071 17.4294C28.3946 17.617 28.5 17.8713 28.5 18.1365ZM12.2075 9.84403L15.5 6.55028V18.1365C15.5 18.4017 15.6054 18.6561 15.7929 18.8436C15.9804 19.0312 16.2348 19.1365 16.5 19.1365C16.7652 19.1365 17.0196 19.0312 17.2071 18.8436C17.3946 18.6561 17.5 18.4017 17.5 18.1365V6.55028L20.7925 9.84403C20.9801 10.0317 21.2346 10.1371 21.5 10.1371C21.7654 10.1371 22.0199 10.0317 22.2075 9.84403C22.3951 9.65639 22.5006 9.40189 22.5006 9.13653C22.5006 8.87116 22.3951 8.61667 22.2075 8.42903L17.2075 3.42903C17.1146 3.33605 17.0043 3.26229 16.8829 3.21197C16.7615 3.16164 16.6314 3.13574 16.5 3.13574C16.3686 3.13574 16.2385 3.16164 16.1171 3.21197C15.9957 3.26229 15.8854 3.33605 15.7925 3.42903L10.7925 8.42903C10.6049 8.61667 10.4994 8.87116 10.4994 9.13653C10.4994 9.40189 10.6049 9.65639 10.7925 9.84403C10.9801 10.0317 11.2346 10.1371 11.5 10.1371C11.7654 10.1371 12.0199 10.0317 12.2075 9.84403Z" fill="#141414"/>
</svg>
