<svg width="24" height="24" viewBox="0 0 24 24" fill="none" xmlns="http://www.w3.org/2000/svg">
<path d="M19.5 3H4.5C4.10218 3 3.72064 3.15804 3.43934 3.43934C3.15804 3.72064 3 4.10218 3 4.5V19.5C3 19.8978 3.15804 20.2794 3.43934 20.5607C3.72064 20.842 4.10218 21 4.5 21H19.5C19.8978 21 20.2794 20.842 20.5607 20.5607C20.842 20.2794 21 19.8978 21 19.5V4.5C21 4.10218 20.842 3.72064 20.5607 3.43934C20.2794 3.15804 19.8978 3 19.5 3ZM9 11.25C9 10.6567 9.17595 10.0766 9.50559 9.58329C9.83524 9.08994 10.3038 8.70542 10.8519 8.47836C11.4001 8.2513 12.0033 8.19189 12.5853 8.30764C13.1672 8.4234 13.7018 8.70912 14.1213 9.12868C14.5409 9.54824 14.8266 10.0828 14.9424 10.6647C15.0581 11.2467 14.9987 11.8499 14.7716 12.3981C14.5446 12.9462 14.1601 13.4148 13.6667 13.7444C13.1734 14.0741 12.5933 14.25 12 14.25C11.2044 14.25 10.4413 13.9339 9.87868 13.3713C9.31607 12.8087 9 12.0456 9 11.25ZM6.43781 19.5C6.82161 18.5551 7.43863 17.723 8.23125 17.0812C9.29842 16.2198 10.6285 15.7499 12 15.7499C13.3715 15.7499 14.7016 16.2198 15.7687 17.0812C16.5614 17.723 17.1784 18.5551 17.5622 19.5H6.43781ZM19.5 19.5H19.1559C18.8225 18.4384 18.2567 17.4645 17.4997 16.649C16.7427 15.8334 15.8135 15.1968 14.7797 14.7853C15.5157 14.2072 16.0531 13.414 16.3172 12.5161C16.5812 11.6183 16.5588 10.6604 16.2529 9.77589C15.9471 8.89138 15.3731 8.12424 14.6108 7.58126C13.8485 7.03828 12.9359 6.74648 12 6.74648C11.0641 6.74648 10.1515 7.03828 9.38922 7.58126C8.62694 8.12424 8.05292 8.89138 7.74707 9.77589C7.44123 10.6604 7.41877 11.6183 7.68283 12.5161C7.94689 13.414 8.48432 14.2072 9.22031 14.7853C8.18648 15.1968 7.25731 15.8334 6.50032 16.649C5.74333 17.4645 5.17754 18.4384 4.84406 19.5H4.5V4.5H19.5V19.5Z" fill="#727272"/>
</svg>
