<svg width="20" height="21" viewBox="0 0 20 21" fill="none" xmlns="http://www.w3.org/2000/svg">
<path d="M12.8469 8.59883L9.09688 6.09883C9.00273 6.03601 8.89329 5.99994 8.78024 5.99447C8.6672 5.98899 8.55479 6.01431 8.45501 6.06773C8.35523 6.12115 8.27183 6.20066 8.21371 6.29777C8.15559 6.39489 8.12493 6.50596 8.125 6.61914V11.6191C8.12493 11.7323 8.15559 11.8434 8.21371 11.9405C8.27183 12.0376 8.35523 12.1171 8.45501 12.1706C8.55479 12.224 8.6672 12.2493 8.78024 12.2438C8.89329 12.2383 9.00273 12.2023 9.09688 12.1395L12.8469 9.63945C12.9326 9.5824 13.0029 9.50505 13.0515 9.41428C13.1002 9.3235 13.1256 9.22212 13.1256 9.11914C13.1256 9.01616 13.1002 8.91478 13.0515 8.82401C13.0029 8.73323 12.9326 8.65588 12.8469 8.59883ZM9.375 10.4512V7.79102L11.3734 9.11914L9.375 10.4512ZM16.875 3.49414H3.125C2.79348 3.49414 2.47554 3.62584 2.24112 3.86026C2.0067 4.09468 1.875 4.41262 1.875 4.74414V13.4941C1.875 13.8257 2.0067 14.1436 2.24112 14.378C2.47554 14.6124 2.79348 14.7441 3.125 14.7441H16.875C17.2065 14.7441 17.5245 14.6124 17.7589 14.378C17.9933 14.1436 18.125 13.8257 18.125 13.4941V4.74414C18.125 4.41262 17.9933 4.09468 17.7589 3.86026C17.5245 3.62584 17.2065 3.49414 16.875 3.49414ZM16.875 13.4941H3.125V4.74414H16.875V13.4941ZM18.125 16.6191C18.125 16.7849 18.0592 16.9439 17.9419 17.0611C17.8247 17.1783 17.6658 17.2441 17.5 17.2441H2.5C2.33424 17.2441 2.17527 17.1783 2.05806 17.0611C1.94085 16.9439 1.875 16.7849 1.875 16.6191C1.875 16.4534 1.94085 16.2944 2.05806 16.1772C2.17527 16.06 2.33424 15.9941 2.5 15.9941H17.5C17.6658 15.9941 17.8247 16.06 17.9419 16.1772C18.0592 16.2944 18.125 16.4534 18.125 16.6191Z" fill="white"/>
</svg>
