<svg width="64" height="65" viewBox="0 0 64 65" fill="none" xmlns="http://www.w3.org/2000/svg">
<path d="M56.8275 20.7421L43.9425 7.85707C43.1901 7.1092 42.1733 6.68794 41.1125 6.68457H22.8875C21.8267 6.68794 20.8099 7.1092 20.0575 7.85707L7.1725 20.7421C6.42463 21.4945 6.00337 22.5112 6 23.5721V41.7971C6.00337 42.8579 6.42463 43.8747 7.1725 44.6271L20.0575 57.5121C20.8099 58.2599 21.8267 58.6812 22.8875 58.6846H41.1125C42.1733 58.6812 43.1901 58.2599 43.9425 57.5121L56.8275 44.6271C57.5754 43.8747 57.9966 42.8579 58 41.7971V23.5721C57.9966 22.5112 57.5754 21.4945 56.8275 20.7421ZM30 20.6846C30 20.1541 30.2107 19.6454 30.5858 19.2704C30.9609 18.8953 31.4696 18.6846 32 18.6846C32.5304 18.6846 33.0391 18.8953 33.4142 19.2704C33.7893 19.6454 34 20.1541 34 20.6846V34.6846C34 35.215 33.7893 35.7237 33.4142 36.0988C33.0391 36.4739 32.5304 36.6846 32 36.6846C31.4696 36.6846 30.9609 36.4739 30.5858 36.0988C30.2107 35.7237 30 35.215 30 34.6846V20.6846ZM32 46.6846C31.4067 46.6846 30.8266 46.5086 30.3333 46.179C29.8399 45.8493 29.4554 45.3808 29.2284 44.8326C29.0013 44.2844 28.9419 43.6812 29.0576 43.0993C29.1734 42.5174 29.4591 41.9828 29.8787 41.5633C30.2982 41.1437 30.8328 40.858 31.4147 40.7422C31.9967 40.6265 32.5999 40.6859 33.148 40.9129C33.6962 41.14 34.1648 41.5245 34.4944 42.0179C34.8241 42.5112 35 43.0912 35 43.6846C35 44.4802 34.6839 45.2433 34.1213 45.8059C33.5587 46.3685 32.7956 46.6846 32 46.6846Z" fill="#438BFF"/>
</svg>
