<svg width="25" height="25" viewBox="0 0 25 25" fill="none" xmlns="http://www.w3.org/2000/svg">
<path d="M14.945 13.9844L17.1012 15.0606C16.999 15.5713 16.7228 16.0308 16.3197 16.3606C15.9165 16.6903 15.4115 16.8701 14.8906 16.869C13.101 16.8671 11.3853 16.1553 10.1198 14.8898C8.85441 13.6244 8.14261 11.9086 8.14062 10.119C8.14048 9.59885 8.32059 9.09467 8.65031 8.69231C8.98003 8.28994 9.43898 8.01426 9.94906 7.91217L11.0253 10.0684L10.1094 11.4315C10.0409 11.5342 9.99887 11.6522 9.98694 11.775C9.975 11.8978 9.99355 12.0217 10.0409 12.1356C10.5775 13.411 11.5921 14.4256 12.8675 14.9622C12.9818 15.0117 13.1066 15.0319 13.2306 15.0211C13.3547 15.0103 13.4741 14.9688 13.5781 14.9003L14.945 13.9844ZM22.3906 12.369C22.391 14.0524 21.9555 15.7071 21.1267 17.1722C20.2978 18.6373 19.1037 19.8628 17.6607 20.7295C16.2176 21.5962 14.5748 22.0745 12.892 22.1179C11.2093 22.1613 9.54393 21.7683 8.05813 20.9772L4.86594 22.0412C4.60164 22.1294 4.31802 22.1422 4.04687 22.0782C3.77571 22.0142 3.52774 21.8759 3.33074 21.6789C3.13373 21.4819 2.99549 21.234 2.9315 20.9628C2.86751 20.6916 2.8803 20.408 2.96844 20.1437L4.0325 16.9515C3.33701 15.644 2.94856 14.1951 2.89662 12.715C2.84469 11.2348 3.13063 9.7623 3.73275 8.40917C4.33487 7.05605 5.23735 5.85787 6.37167 4.9056C7.506 3.95333 8.84236 3.27199 10.2793 2.91331C11.7163 2.55462 13.2161 2.528 14.6648 2.83549C16.1136 3.14297 17.4733 3.77647 18.6407 4.68789C19.8081 5.59932 20.7525 6.76472 21.4023 8.09564C22.052 9.42655 22.39 10.888 22.3906 12.369ZM18.6406 14.619C18.6407 14.4797 18.602 14.3431 18.5288 14.2245C18.4556 14.106 18.3509 14.0101 18.2262 13.9478L15.2262 12.4478C15.1082 12.389 14.9766 12.3623 14.845 12.3705C14.7133 12.3788 14.5861 12.4216 14.4762 12.4947L13.0991 13.4134C12.4669 13.0659 11.9466 12.5456 11.5991 11.9134L12.5178 10.5362C12.5909 10.4264 12.6337 10.2992 12.642 10.1675C12.6502 10.0358 12.6235 9.90432 12.5647 9.78623L11.0647 6.78623C11.0025 6.66068 10.9064 6.55504 10.7873 6.48131C10.6681 6.40757 10.5307 6.36868 10.3906 6.36905C9.39606 6.36905 8.44224 6.76414 7.73897 7.4674C7.03571 8.17066 6.64062 9.12449 6.64062 10.119C6.64311 12.3063 7.5131 14.4033 9.05973 15.9499C10.6064 17.4966 12.7034 18.3666 14.8906 18.369C15.3831 18.369 15.8707 18.2721 16.3257 18.0836C16.7807 17.8951 17.1941 17.6189 17.5423 17.2707C17.8905 16.9225 18.1667 16.5091 18.3552 16.0541C18.5436 15.5991 18.6406 15.1115 18.6406 14.619Z" fill="#438BFF"/>
</svg>
