<svg width="20" height="20" viewBox="0 0 20 20" fill="none" xmlns="http://www.w3.org/2000/svg">
<path d="M2.49951 9.99965C2.49951 9.83389 2.56536 9.67492 2.68257 9.55771C2.79978 9.4405 2.95875 9.37465 3.12451 9.37465L15.3659 9.37465L10.8073 4.81684C10.7493 4.75877 10.7032 4.68983 10.6718 4.61396C10.6403 4.53809 10.6242 4.45677 10.6242 4.37465C10.6242 4.29253 10.6403 4.21121 10.6718 4.13534C10.7032 4.05947 10.7493 3.99053 10.8073 3.93246C10.8654 3.8744 10.9343 3.82833 11.0102 3.79691C11.0861 3.76548 11.1674 3.7493 11.2495 3.7493C11.3316 3.7493 11.4129 3.76548 11.4888 3.79691C11.5647 3.82833 11.6336 3.8744 11.6917 3.93246L17.3167 9.55746C17.3748 9.61551 17.4209 9.68444 17.4524 9.76031C17.4838 9.83619 17.5 9.91752 17.5 9.99965C17.5 10.0818 17.4838 10.1631 17.4524 10.239C17.4209 10.3149 17.3748 10.3838 17.3167 10.4418L11.6917 16.0668C11.5744 16.1841 11.4154 16.25 11.2495 16.25C11.0837 16.25 10.9246 16.1841 10.8073 16.0668C10.69 15.9496 10.6242 15.7905 10.6242 15.6247C10.6242 15.4588 10.69 15.2997 10.8073 15.1825L15.3659 10.6247L3.12451 10.6247C2.95875 10.6247 2.79978 10.5588 2.68257 10.4416C2.56536 10.3244 2.49951 10.1654 2.49951 9.99965Z" fill="white"/>
</svg>
