<svg width="16" height="16" viewBox="0 0 16 16" fill="none" xmlns="http://www.w3.org/2000/svg">
<path d="M14 2.99687V5.99687C14 6.12948 13.9473 6.25666 13.8536 6.35043C13.7598 6.44419 13.6326 6.49687 13.5 6.49687H10.5C10.3674 6.49687 10.2402 6.44419 10.1464 6.35043C10.0527 6.25666 10 6.12948 10 5.99687C10 5.86426 10.0527 5.73709 10.1464 5.64332C10.2402 5.54955 10.3674 5.49687 10.5 5.49687H12.2931L11.3787 4.5825C10.4495 3.649 9.1878 3.12234 7.87063 3.11812H7.8425C6.53636 3.11506 5.28151 3.62629 4.34937 4.54125C4.25389 4.63039 4.12731 4.67862 3.99672 4.67562C3.86612 4.67262 3.74189 4.61864 3.65059 4.52522C3.55929 4.4318 3.50817 4.30635 3.50818 4.17572C3.50819 4.0451 3.55932 3.91966 3.65062 3.82625C4.78033 2.72212 6.29988 2.10805 7.87952 2.11729C9.45916 2.12653 10.9714 2.75835 12.0881 3.87562L13 4.79V2.99687C13 2.86426 13.0527 2.73709 13.1464 2.64332C13.2402 2.54955 13.3674 2.49687 13.5 2.49687C13.6326 2.49687 13.7598 2.54955 13.8536 2.64332C13.9473 2.73709 14 2.86426 14 2.99687ZM11.6506 11.4525C10.7093 12.372 9.44337 12.8834 8.12747 12.8756C6.81156 12.8679 5.55175 12.3418 4.62125 11.4112L3.70688 10.4969H5.5C5.63261 10.4969 5.75979 10.4442 5.85355 10.3504C5.94732 10.2567 6 10.1295 6 9.99687C6 9.86426 5.94732 9.73709 5.85355 9.64332C5.75979 9.54955 5.63261 9.49687 5.5 9.49687H2.5C2.36739 9.49687 2.24021 9.54955 2.14645 9.64332C2.05268 9.73709 2 9.86426 2 9.99687V12.9969C2 13.1295 2.05268 13.2567 2.14645 13.3504C2.24021 13.4442 2.36739 13.4969 2.5 13.4969C2.63261 13.4969 2.75979 13.4442 2.85355 13.3504C2.94732 13.2567 3 13.1295 3 12.9969V11.2037L3.91438 12.1181C5.02951 13.2389 6.544 13.871 8.125 13.8756H8.15812C9.72568 13.8797 11.2317 13.266 12.35 12.1675C12.4413 12.0741 12.4924 11.9486 12.4924 11.818C12.4925 11.6874 12.4413 11.5619 12.35 11.4685C12.2587 11.3751 12.1345 11.3211 12.0039 11.3181C11.8733 11.3151 11.7467 11.3634 11.6512 11.4525H11.6506Z" fill="white"/>
</svg>
