<svg width="24" height="25" viewBox="0 0 24 25" fill="none" xmlns="http://www.w3.org/2000/svg">
<path d="M19.281 18.7198C19.3507 18.7895 19.406 18.8722 19.4437 18.9632C19.4814 19.0543 19.5008 19.1519 19.5008 19.2504C19.5008 19.349 19.4814 19.4465 19.4437 19.5376C19.406 19.6286 19.3507 19.7114 19.281 19.781C19.2114 19.8507 19.1286 19.906 19.0376 19.9437C18.9465 19.9814 18.849 20.0008 18.7504 20.0008C18.6519 20.0008 18.5543 19.9814 18.4632 19.9437C18.3722 19.906 18.2895 19.8507 18.2198 19.781L12.0004 13.5607L5.78104 19.781C5.64031 19.9218 5.44944 20.0008 5.25042 20.0008C5.05139 20.0008 4.86052 19.9218 4.71979 19.781C4.57906 19.6403 4.5 19.4494 4.5 19.2504C4.5 19.0514 4.57906 18.8605 4.71979 18.7198L10.9401 12.5004L4.71979 6.28104C4.57906 6.14031 4.5 5.94944 4.5 5.75042C4.5 5.55139 4.57906 5.36052 4.71979 5.21979C4.86052 5.07906 5.05139 5 5.25042 5C5.44944 5 5.64031 5.07906 5.78104 5.21979L12.0004 11.4401L18.2198 5.21979C18.3605 5.07906 18.5514 5 18.7504 5C18.9494 5 19.1403 5.07906 19.281 5.21979C19.4218 5.36052 19.5008 5.55139 19.5008 5.75042C19.5008 5.94944 19.4218 6.14031 19.281 6.28104L13.0607 12.5004L19.281 18.7198Z" fill="black"/>
</svg>
