<svg width="32" height="33" viewBox="0 0 32 33" fill="none" xmlns="http://www.w3.org/2000/svg">
<path d="M16 3.68457C13.4288 3.68457 10.9154 4.44701 8.77759 5.87547C6.63975 7.30392 4.97351 9.33425 3.98957 11.7097C3.00563 14.0851 2.74819 16.699 3.2498 19.2207C3.75141 21.7425 4.98953 24.0589 6.80762 25.877C8.6257 27.695 10.9421 28.9332 13.4638 29.4348C15.9856 29.9364 18.5995 29.6789 20.9749 28.695C23.3503 27.7111 25.3807 26.0448 26.8091 23.907C28.2376 21.7691 29 19.2557 29 16.6846C28.9964 13.2379 27.6256 9.93339 25.1884 7.4962C22.7512 5.05902 19.4467 3.68821 16 3.68457ZM20.7075 19.9771C20.8004 20.07 20.8741 20.1803 20.9244 20.3017C20.9747 20.4231 21.0006 20.5532 21.0006 20.6846C21.0006 20.816 20.9747 20.9461 20.9244 21.0675C20.8741 21.1889 20.8004 21.2992 20.7075 21.3921C20.6146 21.485 20.5043 21.5587 20.3829 21.609C20.2615 21.6592 20.1314 21.6851 20 21.6851C19.8686 21.6851 19.7385 21.6592 19.6171 21.609C19.4957 21.5587 19.3854 21.485 19.2925 21.3921L16 18.0983L12.7075 21.3921C12.6146 21.485 12.5043 21.5587 12.3829 21.609C12.2615 21.6592 12.1314 21.6851 12 21.6851C11.8686 21.6851 11.7385 21.6592 11.6171 21.609C11.4957 21.5587 11.3854 21.485 11.2925 21.3921C11.1996 21.2992 11.1259 21.1889 11.0756 21.0675C11.0253 20.9461 10.9994 20.816 10.9994 20.6846C10.9994 20.5532 11.0253 20.4231 11.0756 20.3017C11.1259 20.1803 11.1996 20.07 11.2925 19.9771L14.5863 16.6846L11.2925 13.3921C11.1049 13.2044 10.9994 12.9499 10.9994 12.6846C10.9994 12.4192 11.1049 12.1647 11.2925 11.9771C11.4801 11.7894 11.7346 11.684 12 11.684C12.2654 11.684 12.5199 11.7894 12.7075 11.9771L16 15.2708L19.2925 11.9771C19.3854 11.8842 19.4957 11.8105 19.6171 11.7602C19.7385 11.7099 19.8686 11.684 20 11.684C20.1314 11.684 20.2615 11.7099 20.3829 11.7602C20.5043 11.8105 20.6146 11.8842 20.7075 11.9771C20.8004 12.07 20.8741 12.1803 20.9244 12.3017C20.9747 12.4231 21.0006 12.5532 21.0006 12.6846C21.0006 12.816 20.9747 12.9461 20.9244 13.0675C20.8741 13.1889 20.8004 13.2992 20.7075 13.3921L17.4138 16.6846L20.7075 19.9771Z" fill="#DF1C41"/>
</svg>
