<svg width="28" height="28" viewBox="0 0 28 28" fill="none" xmlns="http://www.w3.org/2000/svg">
<path d="M16.6257 12.2507C16.6257 12.4828 16.5336 12.7054 16.3695 12.8695C16.2054 13.0336 15.9828 13.1257 15.7507 13.1257H13.1257V15.7507C13.1257 15.9828 13.0336 16.2054 12.8695 16.3695C12.7054 16.5336 12.4828 16.6257 12.2507 16.6257C12.0187 16.6257 11.7961 16.5336 11.632 16.3695C11.4679 16.2054 11.3757 15.9828 11.3757 15.7507V13.1257H8.75074C8.51867 13.1257 8.29611 13.0336 8.13202 12.8695C7.96793 12.7054 7.87574 12.4828 7.87574 12.2507C7.87574 12.0187 7.96793 11.7961 8.13202 11.632C8.29611 11.4679 8.51867 11.3757 8.75074 11.3757H11.3757V8.75074C11.3757 8.51867 11.4679 8.29611 11.632 8.13202C11.7961 7.96793 12.0187 7.87574 12.2507 7.87574C12.4828 7.87574 12.7054 7.96793 12.8695 8.13202C13.0336 8.29611 13.1257 8.51867 13.1257 8.75074V11.3757H15.7507C15.9828 11.3757 16.2054 11.4679 16.3695 11.632C16.5336 11.7961 16.6257 12.0187 16.6257 12.2507ZM25.1198 25.1198C25.0385 25.2012 24.942 25.2657 24.8358 25.3097C24.7296 25.3538 24.6157 25.3764 24.5007 25.3764C24.3858 25.3764 24.2719 25.3538 24.1657 25.3097C24.0594 25.2657 23.9629 25.2012 23.8817 25.1198L18.4064 19.6434C16.5007 21.2307 14.0565 22.0222 11.5822 21.8532C9.10782 21.6843 6.79386 20.568 5.12164 18.7364C3.44943 16.9048 2.5477 14.4991 2.60405 12.0196C2.6604 9.54017 3.67049 7.17788 5.42419 5.42419C7.17788 3.67049 9.54017 2.6604 12.0196 2.60405C14.4991 2.5477 16.9048 3.44943 18.7364 5.12164C20.568 6.79386 21.6843 9.10782 21.8532 11.5822C22.0222 14.0565 21.2307 16.5007 19.6434 18.4064L25.1198 23.8817C25.2012 23.9629 25.2657 24.0594 25.3097 24.1657C25.3538 24.2719 25.3764 24.3858 25.3764 24.5007C25.3764 24.6157 25.3538 24.7296 25.3097 24.8358C25.2657 24.942 25.2012 25.0385 25.1198 25.1198ZM12.2507 20.1257C13.8083 20.1257 15.3308 19.6639 16.6259 18.7986C17.9209 17.9332 18.9303 16.7033 19.5263 15.2644C20.1223 13.8254 20.2783 12.242 19.9744 10.7144C19.6706 9.1868 18.9205 7.78361 17.8192 6.68227C16.7179 5.58093 15.3147 4.83091 13.7871 4.52705C12.2595 4.2232 10.6761 4.37915 9.23711 4.97519C7.79814 5.57123 6.56823 6.58059 5.70292 7.87562C4.8376 9.17066 4.37574 10.6932 4.37574 12.2507C4.37805 14.3386 5.20848 16.3403 6.68483 17.8166C8.16118 19.293 10.1629 20.1234 12.2507 20.1257Z" fill="black"/>
</svg>
